<?xml version="1.0" standalone="no"?>
<!DOCTYPE svg PUBLIC "-//W3C//DTD SVG 1.1//EN" "http://www.w3.org/Graphics/SVG/1.1/DTD/svg11.dtd" >
<svg xmlns="http://www.w3.org/2000/svg" xmlns:xlink="http://www.w3.org/1999/xlink" version="1.1">
<metadata>
Created by FontForge 20170731 at Mon Mar 15 10:00:49 2021
 By Aleksey,,,
Copyright (c) 2017 by Martin Va'cha. All rights reserved.
</metadata>
<defs>
<font id="Yellix-Thin" horiz-adv-x="1218" >
  <font-face 
    font-family="Yellix Thin"
    font-weight="100"
    font-stretch="normal"
    units-per-em="2048"
    panose-1="0 0 2 0 0 0 0 0 0 0"
    ascent="1638"
    descent="-410"
    x-height="989"
    cap-height="1434"
    bbox="-995 -434 2593 2220"
    underline-thickness="102"
    underline-position="-307"
    unicode-range="U+000D-25CF"
  />
<missing-glyph horiz-adv-x="1474" 
d="M737 1454q202 0 371.5 -98t268 -267t98.5 -370q0 -150 -58 -286.5t-156.5 -235.5t-235.5 -158t-288 -59q-200 0 -369.5 99.5t-268.5 269.5t-99 370t99 369.5t268.5 267.5t369.5 98zM510 627q43 0 75.5 72.5t32.5 172.5q0 102 -32.5 174t-75.5 72q-46 0 -80.5 -72
t-34.5 -174q0 -100 34.5 -172.5t80.5 -72.5zM967 627q47 0 79.5 71.5t32.5 173.5q0 103 -32.5 174.5t-79.5 71.5q-45 0 -77 -72t-32 -174q0 -101 32.5 -173t76.5 -72zM737 197q64 0 109 44t45 105q0 64 -44.5 108t-109.5 44q-64 0 -106.5 -43.5t-42.5 -108.5q0 -61 43 -105
t106 -44z" />
    <glyph glyph-name=".notdef" horiz-adv-x="1474" 
d="M737 1454q202 0 371.5 -98t268 -267t98.5 -370q0 -150 -58 -286.5t-156.5 -235.5t-235.5 -158t-288 -59q-200 0 -369.5 99.5t-268.5 269.5t-99 370t99 369.5t268.5 267.5t369.5 98zM510 627q43 0 75.5 72.5t32.5 172.5q0 102 -32.5 174t-75.5 72q-46 0 -80.5 -72
t-34.5 -174q0 -100 34.5 -172.5t80.5 -72.5zM967 627q47 0 79.5 71.5t32.5 173.5q0 103 -32.5 174.5t-79.5 71.5q-45 0 -77 -72t-32 -174q0 -101 32.5 -173t76.5 -72zM737 197q64 0 109 44t45 105q0 64 -44.5 108t-109.5 44q-64 0 -106.5 -43.5t-42.5 -108.5q0 -61 43 -105
t106 -44z" />
    <glyph glyph-name="uni0000" horiz-adv-x="0" 
 />
    <glyph glyph-name="uni0000" horiz-adv-x="0" 
 />
    <glyph glyph-name="uni000D" unicode="&#xd;" horiz-adv-x="512" 
 />
    <glyph glyph-name="space" unicode=" " horiz-adv-x="546" 
 />
    <glyph glyph-name="exclam" unicode="!" horiz-adv-x="401" 
d="M170 1434h61l-6 -1098h-49zM201 -20q-31 0 -51.5 20t-20.5 51t20.5 52.5t51.5 21.5q30 0 50.5 -21.5t20.5 -52.5t-20 -51t-51 -20z" />
    <glyph glyph-name="quotedbl" unicode="&#x22;" horiz-adv-x="444" 
d="M113 1020l-11 414h56l-11 -414h-34zM297 1020l-10 414h55l-10 -414h-35z" />
    <glyph glyph-name="numbersign" unicode="#" horiz-adv-x="1271" 
d="M1204 903h-301l-102 -373h321v-45h-336l-135 -485h-53l135 485h-323l-136 -485h-53l135 485h-288v45h303l102 373h-323v45h337l136 486h53l-135 -486h323l135 486h54l-135 -486h286v-45zM748 530l102 373h-324l-102 -373h324z" />
    <glyph glyph-name="dollar" unicode="$" horiz-adv-x="1126" 
d="M203 1104q0 -76 31 -131.5t83 -88t119.5 -55.5t142 -40t149.5 -35.5t142.5 -48t119.5 -70.5t83 -110.5t31 -162.5q0 -166 -137 -274t-344 -108q-34 0 -50 2v-228h-49v234q-179 28 -289 147t-110 289h47q0 -174 127.5 -286.5t323.5 -112.5q186 0 309 95t123 242
q0 84 -31 146.5t-83 99.5t-119.5 63.5t-142.5 44t-149.5 35t-142 44t-119.5 63.5t-83 99.5t-31 146.5q0 135 102 229.5t268 116.5v229h49v-225h35q198 0 324.5 -104.5t126.5 -266.5h-45q-8 142 -121.5 233t-284.5 91q-177 0 -291 -85.5t-114 -217.5z" />
    <glyph glyph-name="percent" unicode="%" horiz-adv-x="1468" 
d="M670 1180q0 -120 -69.5 -197.5t-178.5 -77.5t-178.5 77.5t-69.5 197.5t69.5 197t178.5 77t178.5 -77t69.5 -197zM1186 1434h49l-952 -1434h-50zM621 1180q0 100 -55 164.5t-144 64.5t-144 -64.5t-55 -164.5q0 -101 55 -165.5t144 -64.5t144 64.5t55 165.5zM1294 254
q0 -120 -69 -197t-178 -77t-178.5 77t-69.5 197t69.5 197t178.5 77t178 -77t69 -197zM1245 254q0 101 -54.5 165t-143.5 64t-144 -64.5t-55 -164.5t55 -164.5t144 -64.5t143.5 64t54.5 165z" />
    <glyph glyph-name="ampersand" unicode="&#x26;" horiz-adv-x="1312" 
d="M1214 0h-57l-256 266l-76 -73q-117 -117 -206 -165t-203 -48q-145 0 -244.5 106t-99.5 260q0 67 20 124.5t50 98t79 79t92 63.5t105 55q-97 99 -133 148q-84 115 -84 227q0 135 95.5 224t242.5 89q138 0 227.5 -89t89.5 -224q0 -44 -11.5 -83t-27 -68.5t-47.5 -60.5
t-56 -50t-70 -46t-71.5 -40t-78.5 -39l407 -428l242 231h59l-270 -262zM248 1141q0 -47 18 -95t53.5 -97t65 -82t76.5 -81q50 24 76.5 36.5t69.5 36.5t66.5 42.5t53.5 46t45 55t26 63t11 75.5q0 113 -78 190.5t-192 77.5q-123 0 -207 -77.5t-84 -190.5zM791 219l79 78
l-419 434q-49 -24 -84 -44t-76.5 -47.5t-69 -56.5t-52 -64.5t-36.5 -79t-12 -93.5q0 -135 85.5 -228t209.5 -93q94 0 183 47t192 147z" />
    <glyph glyph-name="quotesingle" unicode="'" horiz-adv-x="260" 
d="M113 1020l-11 414h56l-11 -414h-34z" />
    <glyph glyph-name="parenleft" unicode="(" horiz-adv-x="555" 
d="M557 -401q-178 135 -285.5 400.5t-107.5 571.5t107.5 572t285.5 401l29 -37q-169 -129 -271 -385t-102 -551t102 -551t271 -385z" />
    <glyph glyph-name="parenright" unicode=")" horiz-adv-x="555" 
d="M-2 -401l-29 36q169 129 271 385t102 551t-102 551t-271 385l29 37q178 -135 285.5 -401t107.5 -572t-107.5 -571.5t-285.5 -400.5z" />
    <glyph glyph-name="asterisk" unicode="*" horiz-adv-x="940" 
d="M854 1155l-348 -86l217 -330l-35 -24l-219 329l-221 -331l-37 28l221 328l-350 86l10 43l354 -86v363h46v-363l352 86z" />
    <glyph glyph-name="plus" unicode="+" horiz-adv-x="1153" 
d="M979 643v-45h-381v-381h-45v381h-379v45h379v379h45v-379h381z" />
    <glyph glyph-name="comma" unicode="," horiz-adv-x="434" 
d="M305 166l-143 -340h-33l92 340h84z" />
    <glyph glyph-name="hyphen" unicode="-" horiz-adv-x="559" 
d="M51 502v45h457v-45h-457z" />
    <glyph glyph-name="period" unicode="." horiz-adv-x="401" 
d="M201 -20q-31 0 -51.5 20t-20.5 51t20.5 52.5t51.5 21.5q30 0 50.5 -21.5t20.5 -52.5t-20 -51t-51 -20z" />
    <glyph glyph-name="slash" unicode="/" horiz-adv-x="731" 
d="M25 0l630 1434h52l-631 -1434h-51z" />
    <glyph glyph-name="zero" unicode="0" horiz-adv-x="1204" 
d="M602 -20q-229 0 -357 195t-128 542t128 542t357 195t357 -195t128 -542t-128 -542t-357 -195zM602 25q207 0 321.5 183t114.5 509t-114.5 509t-321.5 183t-321.5 -183t-114.5 -509t114.5 -509t321.5 -183z" />
    <glyph glyph-name="one" unicode="1" horiz-adv-x="698" 
d="M500 1434v-1434h-49v1366l-338 -309v67l340 310h47z" />
    <glyph glyph-name="two" unicode="2" horiz-adv-x="1097" 
d="M92 0v43l613 623q103 106 158 211t55 192q0 149 -100 244.5t-257 95.5q-174 0 -288 -100.5t-113 -270.5h-47q-1 191 126 303.5t322 112.5q174 0 290 -108.5t116 -276.5q0 -95 -58.5 -208t-167.5 -222l-589 -594h843v-45h-903z" />
    <glyph glyph-name="three" unicode="3" horiz-adv-x="1071" 
d="M375 805l516 584h-795v45h862v-45l-516 -576q55 14 117 14q173 0 291.5 -113.5t118.5 -285.5q0 -196 -129 -322t-328 -126q-179 0 -302.5 90.5t-148.5 240.5h48q25 -130 135 -208t268 -78q179 0 293.5 113t114.5 290q0 160 -110 256t-280 96q-79 0 -155 -20v45z" />
    <glyph glyph-name="four" unicode="4" horiz-adv-x="1126" 
d="M1059 387v-45h-225v-342h-50v342h-743v45l549 1047h55l-549 -1047h688v602h50v-602h225z" />
    <glyph glyph-name="five" unicode="5" horiz-adv-x="1046" 
d="M502 -20q-172 0 -296.5 93t-144.5 238h48q23 -126 132.5 -206t260.5 -80q169 0 286 113.5t117 277.5q0 170 -117 288.5t-286 118.5q-98 0 -183.5 -30t-136.5 -86h-39l68 727h657v-45h-616l-62 -627q50 50 134 78t178 28q189 0 320.5 -131t131.5 -321
q0 -183 -131.5 -309.5t-320.5 -126.5z" />
    <glyph glyph-name="six" unicode="6" horiz-adv-x="1071" 
d="M541 899q116 0 222.5 -61.5t173.5 -169.5t67 -232q0 -190 -134.5 -323t-326.5 -133t-326.5 133t-134.5 323q0 78 32.5 175t90.5 190l395 633h55l-376 -592q49 22 123 39.5t139 17.5zM543 25q170 0 292.5 121.5t122.5 289.5t-124.5 293t-292.5 125q-151 0 -295 -66
q-119 -195 -119 -352q0 -168 122.5 -289.5t293.5 -121.5z" />
    <glyph glyph-name="seven" unicode="7" horiz-adv-x="980" 
d="M31 1434h895v-45l-658 -1389h-53l666 1389h-850v45z" />
    <glyph glyph-name="eight" unicode="8" horiz-adv-x="1077" 
d="M539 -18q-196 0 -323.5 115t-127.5 292q0 140 92 247.5t234 133.5q-115 29 -189.5 121.5t-74.5 206.5q0 154 109.5 253t279.5 99t279.5 -99t109.5 -253q0 -114 -74.5 -206.5t-189.5 -121.5q142 -29 233.5 -136.5t91.5 -244.5q0 -177 -127 -292t-323 -115zM539 793
q151 0 247.5 85.5t96.5 219.5t-97 220.5t-247 86.5t-247 -86.5t-97 -220.5t96.5 -219.5t247.5 -85.5zM539 27q177 0 291 102t114 260q0 157 -114 258t-291 101t-291.5 -101t-114.5 -258q0 -158 114.5 -260t291.5 -102z" />
    <glyph glyph-name="nine" unicode="9" horiz-adv-x="1071" 
d="M528 1454q192 0 326.5 -133.5t134.5 -323.5q0 -78 -32.5 -174.5t-90.5 -189.5l-395 -633h-55l377 592q-49 -22 -123.5 -39.5t-139.5 -17.5q-116 0 -222 61t-173 169t-67 232q0 125 61 230t167 166t232 61zM825 645q119 195 119 352q0 168 -122.5 290t-293.5 122
q-170 0 -292.5 -122t-122.5 -290t124.5 -292.5t292.5 -124.5q153 0 295 65z" />
    <glyph glyph-name="colon" unicode=":" horiz-adv-x="401" 
d="M201 700q-31 0 -51.5 20.5t-20.5 51.5t20.5 52.5t51.5 21.5q30 0 50.5 -21.5t20.5 -52.5t-20 -51.5t-51 -20.5zM201 -20q-31 0 -51.5 20t-20.5 51t20.5 52.5t51.5 21.5q30 0 50.5 -21.5t20.5 -52.5t-20 -51t-51 -20z" />
    <glyph glyph-name="semicolon" unicode=";" horiz-adv-x="473" 
d="M272 594q-31 0 -51 20.5t-20 51.5t20 52t51 21t51.5 -21t20.5 -52t-20.5 -51.5t-51.5 -20.5zM305 156l-143 -340h-33l92 340h84z" />
    <glyph glyph-name="less" unicode="&#x3c;" horiz-adv-x="1187" 
d="M1014 315l-840 392v45l840 391v-53l-787 -361l787 -360v-54z" />
    <glyph glyph-name="equal" unicode="=" horiz-adv-x="1153" 
d="M979 797v-45h-805v45h805zM979 494v-45h-805v45h805z" />
    <glyph glyph-name="greater" unicode="&#x3e;" horiz-adv-x="1187" 
d="M174 315v54l787 360l-787 361v53l840 -391v-45z" />
    <glyph glyph-name="question" unicode="?" horiz-adv-x="958" 
d="M481 1454q177 0 291.5 -108t114.5 -277q0 -73 -23.5 -135t-61 -106.5t-83 -85.5t-91.5 -82t-84 -85.5t-62 -106t-25 -134.5h-47q0 79 23.5 145t61.5 113t83.5 89t91 81.5t83.5 82t61.5 99.5t23.5 125q0 149 -100 244.5t-255 95.5q-167 0 -275.5 -104t-109.5 -267h-47
q1 181 122.5 298.5t307.5 117.5zM440 -20q-31 0 -51 20t-20 51t20.5 52.5t50.5 21.5q31 0 51.5 -21.5t20.5 -52.5t-20.5 -51t-51.5 -20z" />
    <glyph glyph-name="at" unicode="@" horiz-adv-x="1849" 
d="M930 1303q171 0 311 -43.5t232.5 -115.5t155.5 -169.5t90.5 -201.5t27.5 -214q0 -238 -68.5 -363.5t-193.5 -125.5q-81 0 -133 35.5t-76 115.5q-47 -73 -149 -123.5t-203 -50.5q-183 0 -309 129t-126 316q0 186 126 314t309 128q92 0 184.5 -41.5t146.5 -106.5v132h50
v-533q0 -150 43.5 -211t134.5 -61q105 0 162 114t57 332q0 94 -22 185.5t-78 186t-141 165.5t-222 116t-309 45q-219 0 -398 -102t-281 -280.5t-101 -395.5q1 -160 58 -300t156 -239t238 -155.5t299 -56.5q142 0 263.5 42.5t178.5 112.5h60q-66 -90 -204.5 -145t-297.5 -55
q-170 0 -318.5 60t-254 164.5t-166 253t-60.5 318.5q0 172 63.5 325t173.5 262.5t263.5 173t327.5 63.5zM924 92q104 0 201.5 49.5t140.5 124.5q-11 64 -11 119v344q-48 70 -140 115t-191 45q-163 0 -276 -115t-113 -282t113 -283.5t276 -116.5z" />
    <glyph glyph-name="A" unicode="A" horiz-adv-x="1292" 
d="M1202 0l-174 430h-766l-174 -430h-51l577 1434h64l577 -1434h-53zM279 475h733l-367 907z" />
    <glyph glyph-name="B" unicode="B" horiz-adv-x="1212" 
d="M199 0v1434h469q159 0 269 -100t110 -244q0 -128 -80 -224t-197 -108q149 -8 252.5 -116t103.5 -257q0 -162 -113.5 -273.5t-281.5 -111.5h-532zM246 770h422q138 0 233.5 93t95.5 227q0 126 -96 212.5t-233 86.5h-422v-619zM246 45h485q149 0 247.5 98t98.5 242
q0 143 -100 241.5t-246 98.5h-485v-680z" />
    <glyph glyph-name="C" unicode="C" horiz-adv-x="1570" 
d="M823 -20q-193 0 -353.5 98.5t-253.5 269.5t-93 377q0 201 93 368.5t253.5 264t353.5 96.5q226 0 398 -126.5t223 -330.5h-51q-51 184 -209 298t-361 114q-180 0 -329.5 -90.5t-235.5 -247.5t-86 -346q0 -193 86 -354t235.5 -253.5t329.5 -92.5q210 0 369 118.5t205 311.5
h51q-51 -213 -224 -344t-401 -131z" />
    <glyph glyph-name="D" unicode="D" horiz-adv-x="1421" 
d="M610 1434q143 0 270.5 -53.5t219 -146.5t145 -226t53.5 -285q0 -151 -53.5 -285.5t-145 -230.5t-219 -151.5t-270.5 -55.5h-411v1434h411zM610 45q134 0 252.5 52t203 141.5t134 215.5t49.5 269t-49 267.5t-133.5 211.5t-203 137t-253.5 50h-362v-1344h362z" />
    <glyph glyph-name="E" unicode="E" horiz-adv-x="1085" 
d="M199 1434h747v-45h-698v-580h622v-45h-622v-719h698v-45h-747v1434z" />
    <glyph glyph-name="F" unicode="F" horiz-adv-x="1038" 
d="M199 1434h747v-45h-698v-580h622v-45h-622v-764h-49v1434z" />
    <glyph glyph-name="G" unicode="G" horiz-adv-x="1619" 
d="M913 672v45h545v-424q-79 -145 -246 -229t-374 -84q-203 0 -367 96t-256 266t-92 381t92.5 378t255.5 260t367 93q226 0 397.5 -126.5t222.5 -330.5h-51q-51 184 -208.5 298t-360.5 114q-142 0 -266 -51.5t-211.5 -142t-138 -218t-50.5 -274.5q0 -197 85.5 -356.5
t238 -250.5t342.5 -91q186 0 339.5 74.5t231.5 203.5v369h-496z" />
    <glyph glyph-name="H" unicode="H" horiz-adv-x="1441" 
d="M1194 1434h49v-1434h-49v725h-946v-725h-49v1434h49v-664h946v664z" />
    <glyph glyph-name="I" unicode="I" horiz-adv-x="446" 
d="M199 1434h49v-1434h-49v1434z" />
    <glyph glyph-name="J" unicode="J" horiz-adv-x="569" 
d="M41 25h27q134 0 199 90t65 274v1045h49v-1045q0 -207 -77.5 -308t-235.5 -101h-27v45z" />
    <glyph glyph-name="K" unicode="K" horiz-adv-x="1146" 
d="M1112 0h-74l-792 737v-737h-47v1434h47v-676l725 676h69l-739 -686z" />
    <glyph glyph-name="L" unicode="L" horiz-adv-x="1114" 
d="M199 1434h49v-1389h774v-45h-823v1434z" />
    <glyph glyph-name="M" unicode="M" horiz-adv-x="1759" 
d="M199 0v1434h49l633 -1364l630 1364h50v-1434h-50v1321l-610 -1321h-43l-610 1321v-1321h-49z" />
    <glyph glyph-name="N" unicode="N" horiz-adv-x="1472" 
d="M199 1434h65l961 -1375v1375h49v-1434h-66l-960 1374v-1374h-49v1434z" />
    <glyph glyph-name="O" unicode="O" horiz-adv-x="1677" 
d="M838 1454q148 0 280.5 -57t228 -154t151.5 -232.5t56 -285.5q0 -154 -56 -292.5t-151.5 -237.5t-228 -157t-280.5 -58q-197 0 -361 98.5t-259 269.5t-95 377q0 201 95 368.5t259.5 264t360.5 96.5zM838 1409q-138 0 -261.5 -53.5t-212 -144.5t-140.5 -218t-52 -268
q0 -193 88 -354t241 -253.5t337 -92.5q185 0 338 92.5t241 253t88 354.5q0 189 -88 346t-241 247.5t-338 90.5z" />
    <glyph glyph-name="P" unicode="P" horiz-adv-x="1224" 
d="M756 1434q158 0 267.5 -109.5t109.5 -267.5q0 -160 -109.5 -269.5t-267.5 -109.5h-508v-678h-49v1434h557zM756 723q138 0 232.5 97t94.5 237t-94.5 236t-232.5 96h-508v-666h508z" />
    <glyph glyph-name="Q" unicode="Q" horiz-adv-x="1677" 
d="M1554 725q0 -165 -62 -309.5t-173 -247.5l127 -168h-55l-105 139q-196 -159 -448 -159q-197 0 -361 98.5t-259 269.5t-95 377q0 201 95 368.5t259.5 264t360.5 96.5q148 0 280.5 -57t228 -154t151.5 -232.5t56 -285.5zM838 25q238 0 419 151l-368 488h55l346 -459
q102 97 158.5 231.5t56.5 288.5q0 189 -88 346t-241 247.5t-338 90.5q-138 0 -261.5 -53.5t-212 -144.5t-140.5 -218t-52 -268q0 -193 88 -354t241 -253.5t337 -92.5z" />
    <glyph glyph-name="R" unicode="R" 
d="M1135 0h-60l-461 664h-366v-664h-49v1434h495q177 0 290.5 -107.5t113.5 -273.5q0 -170 -113.5 -279.5t-290.5 -109.5h-24zM246 1389l2 -680h446q156 0 256.5 97t100.5 247q0 147 -100.5 241.5t-256.5 94.5h-448z" />
    <glyph glyph-name="S" unicode="S" 
d="M623 -20q-217 0 -357.5 125.5t-140.5 318.5h47q0 -174 127.5 -286.5t323.5 -112.5q186 0 309 95t123 242q0 84 -31 146.5t-83 99.5t-119.5 63.5t-142.5 44t-149.5 35t-142 44t-119.5 63.5t-83 99.5t-31 146.5q0 153 128 251.5t326 98.5t324.5 -104.5t126.5 -266.5h-45
q-8 142 -121.5 233t-284.5 91q-177 0 -291 -85.5t-114 -217.5q0 -76 31 -131.5t83 -88t119.5 -55.5t142 -40t149.5 -35.5t142.5 -48t119.5 -70.5t83 -110.5t31 -162.5q0 -166 -137 -274t-344 -108z" />
    <glyph glyph-name="T" unicode="T" horiz-adv-x="1204" 
d="M1133 1434v-45h-506v-1389h-49v1389h-506v45h1061z" />
    <glyph glyph-name="U" unicode="U" horiz-adv-x="1458" 
d="M729 -20q-229 0 -379.5 154.5t-150.5 387.5v912h49v-912q0 -215 136 -356t345 -141q207 0 344 141t137 356v912h50v-912q0 -233 -151 -387.5t-380 -154.5z" />
    <glyph glyph-name="V" unicode="V" horiz-adv-x="1249" 
d="M49 1434h51l525 -1385l524 1385h51l-547 -1434h-57z" />
    <glyph glyph-name="W" unicode="W" horiz-adv-x="2086" 
d="M1987 1434h51l-484 -1434h-57l-448 1384l-455 -1384h-57l-488 1434h51l465 -1387l457 1387h57l447 -1387z" />
    <glyph glyph-name="X" unicode="X" horiz-adv-x="1144" 
d="M1096 0h-58l-467 702l-467 -702h-55l496 745l-459 689h57l430 -646l428 646h56l-457 -689z" />
    <glyph glyph-name="Y" unicode="Y" horiz-adv-x="1181" 
d="M49 1434h57l488 -717l481 717h58l-515 -764v-670h-49v670z" />
    <glyph glyph-name="Z" unicode="Z" horiz-adv-x="1167" 
d="M119 1434h964v-45l-964 -1344h973v-45h-1026v45l970 1344h-917v45z" />
    <glyph glyph-name="bracketleft" unicode="[" horiz-adv-x="583" 
d="M223 1477v-1782h299v-45h-348v1872h348v-45h-299z" />
    <glyph glyph-name="backslash" unicode="\" horiz-adv-x="708" 
d="M670 0h-52l-630 1434h51z" />
    <glyph glyph-name="bracketright" unicode="]" horiz-adv-x="583" 
d="M360 1477h-299v45h349v-1872h-349v45h299v1782z" />
    <glyph glyph-name="asciicircum" unicode="^" horiz-adv-x="1032" 
d="M930 614h-53l-361 787l-360 -787h-54l392 840h45z" />
    <glyph glyph-name="underscore" unicode="_" horiz-adv-x="915" 
d="M41 -66v46h833v-46h-833z" />
    <glyph glyph-name="grave" unicode="`" horiz-adv-x="438" 
d="M102 1382h74l160 -266h-51z" />
    <glyph glyph-name="a" unicode="a" horiz-adv-x="1228" 
d="M1006 989h49v-989h-49v180q-50 -84 -161 -142t-227 -58q-222 0 -369 147t-147 369q0 221 147.5 367.5t368.5 146.5q119 0 230.5 -59t157.5 -144v182zM618 25q115 0 225.5 62.5t162.5 158.5v495q-51 98 -161.5 161t-226.5 63q-200 0 -333 -133.5t-133 -335.5t133 -336.5
t333 -134.5z" />
    <glyph glyph-name="b" unicode="b" horiz-adv-x="1228" 
d="M610 1010q221 0 368.5 -146.5t147.5 -367.5q0 -222 -147 -369t-369 -147q-116 0 -226.5 58t-160.5 142v-180h-49v1434h49v-627q46 85 157 144t230 59zM610 25q200 0 333.5 134.5t133.5 336.5t-133.5 335.5t-333.5 133.5q-116 0 -226 -63t-161 -161v-495
q52 -96 162 -158.5t225 -62.5z" />
    <glyph glyph-name="c" unicode="c" horiz-adv-x="1150" 
d="M610 -20q-139 0 -256 67.5t-184.5 186t-67.5 260.5t67.5 261t184.5 187t256 68q155 0 281 -88t158 -220h-52q-29 114 -139.5 188.5t-247.5 74.5q-193 0 -325.5 -136.5t-132.5 -334.5q0 -197 132.5 -333t325.5 -136q137 0 248.5 75t138.5 195h52q-29 -139 -155.5 -227
t-283.5 -88z" />
    <glyph glyph-name="d" unicode="d" horiz-adv-x="1228" 
d="M1006 1434h49v-1434h-49v180q-50 -84 -161 -142t-227 -58q-222 0 -369 147t-147 369q0 221 147.5 367.5t368.5 146.5q119 0 230.5 -59t157.5 -144v627zM618 25q115 0 225.5 62.5t162.5 158.5v495q-51 98 -161.5 161t-226.5 63q-200 0 -333 -133.5t-133 -335.5t133 -336.5
t333 -134.5z" />
    <glyph glyph-name="e" unicode="e" horiz-adv-x="1161" 
d="M1059 526h-907v-26q0 -204 126 -339.5t318 -135.5q154 0 268 74.5t140 197.5h49q-30 -143 -158 -230t-299 -87q-212 0 -353 148t-141 372q0 140 66 257.5t179.5 185t248.5 67.5q198 0 330.5 -135.5t132.5 -335.5v-13zM596 965q-169 0 -292 -112t-148 -282h854
q-8 168 -126 281t-288 113z" />
    <glyph glyph-name="f" unicode="f" horiz-adv-x="647" 
d="M535 1397q-115 0 -175.5 -56t-60.5 -186v-166h303v-45h-303v-944h-49v944h-205v45h205v166q0 150 73.5 217.5t211.5 67.5q37 0 67 -6v-45q-27 8 -67 8z" />
    <glyph glyph-name="g" unicode="g" horiz-adv-x="1228" 
d="M1006 989h49v-969q0 -202 -129 -326t-338 -124q-184 0 -309 94t-125 240h47q0 -127 111 -208t276 -81q188 0 303 111t115 294v160q-50 -84 -161 -142t-227 -58q-222 0 -369 147t-147 369q0 221 147.5 367.5t368.5 146.5q119 0 230.5 -59t157.5 -144v182zM618 25
q115 0 225.5 62.5t162.5 158.5v495q-51 98 -161.5 161t-226.5 63q-200 0 -333 -133.5t-133 -335.5t133 -336.5t333 -134.5z" />
    <glyph glyph-name="h" unicode="h" horiz-adv-x="1208" 
d="M625 1010q182 0 295.5 -120t113.5 -312v-578h-49v578q0 172 -100 279.5t-260 107.5q-126 0 -235.5 -60.5t-166.5 -161.5v-743h-49v1434h49v-627q54 92 164 147.5t238 55.5z" />
    <glyph glyph-name="i" unicode="i" horiz-adv-x="397" 
d="M201 1382q22 0 40.5 -17t18.5 -38q0 -25 -18 -42t-41 -17q-25 0 -42.5 16.5t-17.5 42.5q0 22 17.5 38.5t42.5 16.5zM174 989h49v-989h-49v989z" />
    <glyph glyph-name="j" unicode="j" horiz-adv-x="397" 
d="M199 1382q22 0 40.5 -17t18.5 -38q0 -25 -18 -42t-41 -17q-25 0 -42.5 16.5t-17.5 42.5q0 22 17.5 38.5t42.5 16.5zM2 -381h18q80 0 117 62.5t37 197.5v1110h49v-1110q0 -161 -46.5 -235t-147.5 -74h-27v49z" />
    <glyph glyph-name="k" unicode="k" horiz-adv-x="952" 
d="M901 0h-74l-604 508v-508h-49v1434h49v-902l576 457h71l-589 -469z" />
    <glyph glyph-name="l" unicode="l" horiz-adv-x="397" 
d="M223 1434v-1434h-49v1434h49z" />
    <glyph glyph-name="m" unicode="m" horiz-adv-x="1908" 
d="M1331 1010q187 0 295.5 -116t108.5 -316v-578h-49v578q0 180 -95.5 283.5t-259.5 103.5q-111 0 -213 -67.5t-160 -164.5q21 -71 21 -155v-578h-49v578q0 180 -94.5 283.5t-257.5 103.5q-113 0 -206.5 -58.5t-148.5 -154.5v-752h-49v989h49v-176q22 33 51.5 63.5t73 62.5
t103.5 51.5t127 19.5q131 0 225 -60t139 -170q166 230 389 230z" />
    <glyph glyph-name="n" unicode="n" horiz-adv-x="1208" 
d="M625 1010q182 0 295.5 -120t113.5 -312v-578h-49v578q0 172 -100 279.5t-260 107.5q-126 0 -235.5 -60.5t-166.5 -161.5v-743h-49v989h49v-182q54 92 164 147.5t238 55.5z" />
    <glyph glyph-name="o" unicode="o" horiz-adv-x="1222" 
d="M610 -20q-139 0 -256 67.5t-184.5 186t-67.5 260.5t67.5 261t184.5 187t256 68t256.5 -68t185.5 -187t68 -261q0 -106 -40 -201.5t-108.5 -164t-163 -108.5t-198.5 -40zM610 25q192 0 326.5 136.5t134.5 332.5q0 198 -134.5 334.5t-326.5 136.5q-193 0 -325.5 -136.5
t-132.5 -334.5q0 -197 132.5 -333t325.5 -136z" />
    <glyph glyph-name="p" unicode="p" horiz-adv-x="1228" 
d="M610 1010q222 0 369 -147t147 -369q0 -221 -147.5 -367.5t-368.5 -146.5q-119 0 -230 58.5t-157 143.5v-588h-49v1395h49v-180q50 84 160.5 142.5t226.5 58.5zM610 25q200 0 333.5 133.5t133.5 335.5t-133.5 336.5t-333.5 134.5q-115 0 -225 -63t-162 -159v-495
q51 -97 161 -160t226 -63z" />
    <glyph glyph-name="q" unicode="q" horiz-adv-x="1228" 
d="M1006 989h49v-1395h-49v588q-46 -85 -157.5 -143.5t-230.5 -58.5q-221 0 -368.5 146.5t-147.5 367.5q0 222 147 369t369 147q116 0 227 -58.5t161 -142.5v180zM618 25q117 0 227 63t161 160v495q-52 96 -162.5 159t-225.5 63q-200 0 -333 -134.5t-133 -336.5t133 -335.5
t333 -133.5z" />
    <glyph glyph-name="r" unicode="r" horiz-adv-x="667" 
d="M516 1010q49 0 92 -15v-47q-49 17 -92 17q-78 0 -157 -60t-136 -162v-743h-49v989h49v-182q47 92 127.5 147.5t165.5 55.5z" />
    <glyph glyph-name="s" unicode="s" horiz-adv-x="907" 
d="M442 -20q-147 0 -245 76.5t-115 205.5h51q13 -107 98 -172t211 -65q132 0 216.5 66.5t84.5 170.5q0 58 -21.5 99.5t-58 65t-84 39.5t-100 26.5l-105 21t-100 28.5t-84 44.5t-58 72.5t-21.5 109q0 106 90 174t231 68q130 0 224.5 -69.5t111.5 -178.5h-51q-17 89 -97.5 146
t-187.5 57q-120 0 -196 -55.5t-76 -141.5q0 -55 21.5 -94.5t58.5 -61.5t84.5 -37t100 -25t104.5 -20.5t99.5 -29t84.5 -46t58.5 -75.5t21.5 -113q0 -126 -98.5 -206t-252.5 -80z" />
    <glyph glyph-name="t" unicode="t" horiz-adv-x="663" 
d="M594 944h-303v-665q0 -131 60 -186.5t175 -55.5q41 0 68 8v-45q-30 -6 -68 -6q-138 0 -211 67.5t-73 217.5v665h-205v45h205v283h49v-283h303v-45z" />
    <glyph glyph-name="u" unicode="u" horiz-adv-x="1208" 
d="M985 989h49v-989h-49v182q-54 -92 -163.5 -147t-237.5 -55q-182 0 -296 120t-114 312v577h49v-577q0 -172 100.5 -279.5t260.5 -107.5q126 0 235 60t166 161v743z" />
    <glyph glyph-name="v" unicode="v" horiz-adv-x="1007" 
d="M958 989l-430 -989h-49l-430 989h53l402 -948l401 948h53z" />
    <glyph glyph-name="w" unicode="w" horiz-adv-x="1603" 
d="M414 0l-365 989h51l338 -948l338 948h49l340 -948l338 948h51l-364 -989h-49l-340 948l-338 -948h-49z" />
    <glyph glyph-name="x" unicode="x" horiz-adv-x="937" 
d="M877 0h-56l-352 473l-352 -473h-56l381 510l-358 479h55l330 -442l330 442h55l-356 -479z" />
    <glyph glyph-name="y" unicode="y" horiz-adv-x="1005" 
d="M905 989h51l-587 -1399h-52l162 385l-430 1014h53l402 -954z" />
    <glyph glyph-name="z" unicode="z" horiz-adv-x="1017" 
d="M918 989v-45l-783 -899h783v-45h-838v45l782 899h-735v45h791z" />
    <glyph glyph-name="braceleft" unicode="{" horiz-adv-x="677" 
d="M496 -350q-111 0 -182.5 74t-71.5 198v404q0 81 -57 149.5t-144 91.5v35q86 23 143.5 92.5t57.5 151.5v403q0 122 71.5 196.5t182.5 76.5h120v-45h-120q-90 0 -147.5 -62t-57.5 -166v-403q0 -84 -49.5 -158t-124.5 -102q75 -31 124.5 -104.5t49.5 -155.5v-404
q0 -104 57.5 -165.5t147.5 -61.5h120v-45h-120z" />
    <glyph glyph-name="bar" unicode="|" horiz-adv-x="395" 
d="M174 1638h47v-2048h-47v2048z" />
    <glyph glyph-name="braceright" unicode="}" horiz-adv-x="677" 
d="M182 -350h-121v45h121q90 0 147.5 61.5t57.5 165.5v404q0 82 49.5 155.5t124.5 104.5q-75 28 -124.5 102t-49.5 158v403q0 104 -57.5 166t-147.5 62h-121v45h121q111 -2 182.5 -76.5t71.5 -196.5v-403q0 -82 57.5 -151.5t143.5 -92.5v-35q-87 -23 -144 -91.5t-57 -149.5
v-404q0 -124 -71.5 -198t-182.5 -74z" />
    <glyph glyph-name="asciitilde" unicode="~" horiz-adv-x="1126" 
d="M219 551l-45 6q9 90 61 146.5t123 56.5q45 0 104.5 -25.5t108 -55.5t104 -55.5t93.5 -25.5q55 0 92 40.5t47 123.5l45 -6q-9 -90 -61 -146.5t-123 -56.5q-42 0 -99.5 25.5t-105.5 55.5t-105.5 55.5t-99.5 25.5q-55 0 -92 -40.5t-47 -123.5z" />
    <glyph glyph-name="uni00A0" unicode="&#xa0;" horiz-adv-x="546" 
 />
    <glyph glyph-name="exclamdown" unicode="&#xa1;" horiz-adv-x="401" 
d="M201 1454q31 0 51 -20.5t20 -51.5t-20 -52t-51 -21t-51.5 21t-20.5 52t20.5 51.5t51.5 20.5zM170 0l6 1098h49l6 -1098h-61z" />
    <glyph glyph-name="cent" unicode="&#xa2;" horiz-adv-x="1105" 
d="M610 25q137 0 248.5 75t138.5 195h52q-27 -135 -145.5 -221t-270.5 -94v-226h-49v226q-134 7 -244 76t-174 184.5t-64 253.5t64 254t174.5 185.5t243.5 76.5v227h49v-227q150 -8 267.5 -94.5t148.5 -213.5h-52q-29 114 -139.5 188.5t-247.5 74.5q-193 0 -325.5 -136.5
t-132.5 -334.5q0 -197 132.5 -333t325.5 -136z" />
    <glyph glyph-name="sterling" unicode="&#xa3;" horiz-adv-x="1200" 
d="M266 45h848v-45h-915v45q192 134 192 401v267h-172v45h172v315q0 164 101 272.5t253 108.5q134 0 228.5 -69t109.5 -181h-47q-10 93 -91.5 150t-199.5 57q-132 0 -218.5 -96t-86.5 -242v-315h471v-45h-471v-267q0 -282 -174 -401z" />
    <glyph glyph-name="currency" unicode="&#xa4;" horiz-adv-x="1513" 
d="M1249 711q0 -193 -129 -332l219 -219l-28 -29l-219 219q-139 -129 -330 -129q-194 0 -338 131l-221 -221l-29 29l221 221q-129 142 -129 330q0 192 131 333l-223 222l29 28l223 -221q141 131 336 131q191 0 330 -129l219 219l28 -28l-219 -219q129 -142 129 -336z
M762 262q186 0 316 131t130 318q0 189 -130 320.5t-316 131.5q-188 0 -321.5 -132.5t-133.5 -319.5q0 -121 61 -224.5t166 -164t228 -60.5z" />
    <glyph glyph-name="yen" unicode="&#xa5;" horiz-adv-x="1181" 
d="M1133 1434l-486 -721h365v-45h-394v-668h-49v668h-397v45h369l-492 721h57l488 -717l481 717h58z" />
    <glyph glyph-name="brokenbar" unicode="&#xa6;" horiz-adv-x="395" 
d="M174 918v720h47v-720h-47zM174 -410v721h47v-721h-47z" />
    <glyph glyph-name="section" unicode="&#xa7;" horiz-adv-x="1376" 
d="M1083 178q95 -92 95 -244q0 -160 -138 -264t-344 -104q-217 0 -357 120.5t-140 307.5h47q0 -168 127 -275.5t323 -107.5q185 0 308.5 91.5t123.5 231.5q0 81 -31 140.5t-83 95t-119.5 60.5t-142 42t-149.5 34t-142.5 42t-119.5 60.5t-83 95.5t-31 141q0 139 119 234
q-119 81 -119 237q0 148 128.5 243t326.5 95q197 0 324 -101t127 -257h-46q-8 137 -121 224t-284 87q-177 0 -291.5 -82.5t-114.5 -208.5q0 -73 31 -126t83 -84t119.5 -53t142.5 -38t150 -33.5t142.5 -45.5t119.5 -68t83 -106.5t31 -155.5q0 -130 -95 -228zM276 645
q0 -71 29 -123t80 -83.5t114.5 -53.5t138.5 -38.5t145 -32.5t142 -43t122 -62q81 84 81 197q0 88 -37.5 151.5t-96 97.5t-140 61t-158.5 41.5t-163.5 39.5t-143.5 55q-113 -83 -113 -207z" />
    <glyph glyph-name="dieresis" unicode="&#xa8;" horiz-adv-x="561" 
d="M162 1382q22 0 40.5 -17t18.5 -38q0 -25 -18 -42t-41 -17q-25 0 -42.5 16.5t-17.5 42.5q0 22 17.5 38.5t42.5 16.5zM399 1382q22 0 41 -17t19 -38q0 -25 -18.5 -42t-41.5 -17q-25 0 -42 16.5t-17 42.5q0 22 17.5 38.5t41.5 16.5z" />
    <glyph glyph-name="copyright" unicode="&#xa9;" horiz-adv-x="1720" 
d="M858 -20q-198 0 -367.5 99t-268.5 268.5t-99 369.5t99 369.5t268.5 268.5t367.5 99q201 0 371 -99t269 -268.5t99 -369.5t-99 -369.5t-269 -268.5t-371 -99zM860 25q186 0 344.5 93t251 252.5t92.5 346.5t-92.5 346.5t-251 252.5t-344.5 93t-344.5 -93t-251 -252.5
t-92.5 -346.5t92.5 -346.5t251 -252.5t344.5 -93zM1231 487q-40 -96 -139.5 -154.5t-223.5 -58.5q-185 0 -306.5 127t-121.5 320q0 188 121.5 313t306.5 125q116 0 213 -52t138 -138l-35 -19q-40 77 -126.5 123.5t-189.5 46.5q-168 0 -276.5 -114t-108.5 -285
q0 -175 108.5 -291.5t276.5 -116.5q109 0 198.5 52.5t127.5 138.5z" />
    <glyph glyph-name="ordfeminine" unicode="&#xaa;" horiz-adv-x="735" 
d="M592 1440h43v-594h-43v102q-30 -48 -94 -81t-131 -33q-132 0 -219 88.5t-87 220.5q0 133 87.5 221t218.5 88q68 0 132.5 -33.5t92.5 -81.5v103zM369 872q67 0 129.5 35t93.5 90v291q-31 57 -94.5 91t-128.5 34q-115 0 -192 -77t-77 -193q0 -117 77 -194t192 -77z" />
    <glyph glyph-name="guillemotleft" unicode="&#xab;" horiz-adv-x="1214" 
d="M635 66l-543 436v45l543 436v-59l-498 -400l498 -399v-59zM1092 66l-543 436v45l543 436v-59l-498 -400l498 -399v-59z" />
    <glyph glyph-name="logicalnot" unicode="&#xac;" horiz-adv-x="1187" 
d="M1014 659v-460h-49v415h-791v45h840z" />
    <glyph glyph-name="uni00AD" unicode="&#xad;" horiz-adv-x="559" 
d="M51 502v45h457v-45h-457z" />
    <glyph glyph-name="registered" unicode="&#xae;" horiz-adv-x="1648" 
d="M858 1454q201 0 371 -99t269 -268.5t99 -369.5t-99 -369.5t-269 -268.5t-371 -99q-198 0 -367.5 99t-268.5 268.5t-99 369.5t99 369.5t268.5 268.5t367.5 99zM860 25q186 0 344.5 93t251 252.5t92.5 346.5t-92.5 346.5t-251 252.5t-344.5 93t-344.5 -93t-251 -252.5
t-92.5 -346.5t92.5 -346.5t251 -252.5t344.5 -93zM907 680h-2l273 -393h-50l-270 393h-209v-393h-43v860h301q106 0 175 -66t69 -166q0 -104 -69 -169.5t-175 -65.5zM647 1108l2 -389h256q89 0 147 55t58 141q0 83 -58 138t-147 55h-258z" />
    <glyph glyph-name="macron" unicode="&#xaf;" horiz-adv-x="860" 
d="M102 1155v45h656v-45h-656z" />
    <glyph glyph-name="degree" unicode="&#xb0;" horiz-adv-x="796" 
d="M668 1182q0 -114 -80.5 -195.5t-192.5 -81.5q-114 0 -195 81.5t-81 195.5q0 112 81 192t195 80q113 0 193 -80t80 -192zM623 1182q0 94 -67 160.5t-161 66.5q-95 0 -163 -66.5t-68 -160.5q0 -95 68 -163.5t163 -68.5q94 0 161 68.5t67 163.5z" />
    <glyph glyph-name="plusminus" unicode="&#xb1;" horiz-adv-x="1153" 
d="M598 643h381v-45h-381v-381h-45v381h-379v45h379v379h45v-379zM174 0v45h805v-45h-805z" />
    <glyph glyph-name="twosuperior" unicode="&#xb2;" horiz-adv-x="632" 
d="M55 573v35l361 365q127 130 127 237q0 86 -58 141.5t-147 55.5q-103 0 -168 -60t-64 -157h-40q-1 117 76 186.5t196 69.5q106 0 177 -67t71 -169q0 -57 -36.5 -126t-103.5 -136l-333 -336h489v-39h-547z" />
    <glyph glyph-name="threesuperior" unicode="&#xb3;" horiz-adv-x="645" 
d="M223 1059l299 336h-467v39h525v-35l-301 -334q34 6 63 6q104 0 174 -69t70 -171q0 -118 -78.5 -194t-198.5 -76q-109 0 -185 56.5t-89 148.5h41q13 -75 77.5 -120.5t155.5 -45.5q102 0 168 66t66 168q0 91 -64 146.5t-164 55.5q-43 0 -92 -12v35z" />
    <glyph glyph-name="acute" unicode="&#xb4;" horiz-adv-x="438" 
d="M336 1382l-182 -266h-52l160 266h74z" />
    <glyph glyph-name="mu" unicode="&#xb5;" horiz-adv-x="1208" 
d="M985 989h49v-989h-49v182q-54 -92 -163.5 -147t-237.5 -55q-121 0 -215 56.5t-146 156.5v-603h-49v1399h49v-577q0 -172 100.5 -279.5t260.5 -107.5q126 0 235 60t166 161v743z" />
    <glyph glyph-name="paragraph" unicode="&#xb6;" horiz-adv-x="1187" 
d="M1116 1434v-45h-145v-1799h-49v1799h-201v-1799h-49v1088h-201q-157 0 -268 112t-111 269q0 155 111 265t268 110h645zM672 723v666h-201q-137 0 -233.5 -96.5t-96.5 -233.5q0 -138 97 -237t233 -99h201z" />
    <glyph glyph-name="periodcentered" unicode="&#xb7;" horiz-adv-x="401" 
d="M201 432q-31 0 -51.5 20.5t-20.5 51.5t20.5 52.5t51.5 21.5q30 0 50.5 -21.5t20.5 -52.5t-20 -51.5t-51 -20.5z" />
    <glyph glyph-name="cedilla" unicode="&#xb8;" horiz-adv-x="452" 
d="M154 20h47q75 -60 113 -125.5t36.5 -120.5t-29 -101t-82 -73t-122.5 -30l-15 41q85 13 136 51t61 91.5t-26.5 123.5t-118.5 143z" />
    <glyph glyph-name="onesuperior" unicode="&#xb9;" horiz-adv-x="376" 
d="M262 1434v-861h-41v813l-188 -122v45l194 125h35z" />
    <glyph glyph-name="ordmasculine" unicode="&#xba;" horiz-adv-x="731" 
d="M365 1452q127 0 216 -90t89 -219q0 -130 -88.5 -219.5t-216.5 -89.5t-216 89.5t-88 219.5q0 129 88.5 219t215.5 90zM365 1413q-111 0 -188 -78t-77 -192t77 -192.5t188 -78.5t188.5 78.5t77.5 192.5t-77.5 192t-188.5 78z" />
    <glyph glyph-name="guillemotright" unicode="&#xbb;" horiz-adv-x="1214" 
d="M123 66v59l498 399l-498 400v59l543 -436v-45zM580 66v59l497 399l-497 400v59l542 -436v-45z" />
    <glyph glyph-name="onequarter" unicode="&#xbc;" horiz-adv-x="1591" 
d="M221 573v813l-188 -122v45l194 125h35v-861h-41zM1092 1434h49l-953 -1434h-49zM1552 244v-41h-133v-203h-41v203h-444v37l328 620h45l-326 -616h397v346h41v-346h133z" />
    <glyph glyph-name="onehalf" unicode="&#xbd;" horiz-adv-x="1458" 
d="M262 1434v-861h-41v813l-188 -122v45l194 125h35zM1092 1434h49l-953 -1434h-49zM930 0v35l360 364q127 130 127 238q0 86 -58 141.5t-147 55.5q-102 0 -167 -60.5t-64 -157.5h-41q-1 117 76 186.5t196 69.5q106 0 177 -66.5t71 -168.5q0 -58 -36 -126.5t-103 -135.5
l-334 -336h490v-39h-547z" />
    <glyph glyph-name="threequarters" unicode="&#xbe;" horiz-adv-x="1835" 
d="M586 831q0 -118 -78.5 -194t-198.5 -76q-109 0 -185 56.5t-89 148.5h41q13 -75 77.5 -120.5t155.5 -45.5q102 0 168 66t66 168q0 91 -64 146.5t-164 55.5q-43 0 -92 -12v35l299 336h-467v39h525v-35l-301 -334q34 6 63 6q104 0 174 -69t70 -171zM1335 1434h49l-952 -1434
h-49zM1796 244v-41h-133v-203h-41v203h-444v37l327 620h45l-325 -616h397v346h41v-346h133z" />
    <glyph glyph-name="questiondown" unicode="&#xbf;" horiz-adv-x="956" 
d="M516 1454q31 0 51.5 -20.5t20.5 -51.5t-20.5 -52t-51.5 -21t-51.5 21t-20.5 52t20.5 51.5t51.5 20.5zM475 -20q-177 0 -291 108t-114 277q0 73 23.5 135t61 106.5t83 85.5t91.5 82t84 85.5t62 106t25 134.5h47q0 -79 -23.5 -145t-61.5 -113t-83.5 -89t-91 -81.5
t-83.5 -82t-61.5 -99.5t-23.5 -125q0 -149 99.5 -244.5t254.5 -95.5q167 0 275.5 103.5t109.5 266.5h47q-1 -181 -122.5 -298t-307.5 -117z" />
    <glyph glyph-name="Agrave" unicode="&#xc0;" horiz-adv-x="1292" 
d="M678 1561h-51l-183 266h74zM1202 0l-174 430h-766l-174 -430h-51l577 1434h64l577 -1434h-53zM279 475h733l-367 907z" />
    <glyph glyph-name="Aacute" unicode="&#xc1;" horiz-adv-x="1292" 
d="M834 1827l-183 -266h-51l160 266h74zM1202 0l-174 430h-766l-174 -430h-51l577 1434h64l577 -1434h-53zM279 475h733l-367 907z" />
    <glyph glyph-name="Acircumflex" unicode="&#xc2;" horiz-adv-x="1292" 
d="M647 1804l-160 -223h-47l176 266h62l174 -266h-47zM1202 0l-174 430h-766l-174 -430h-51l577 1434h64l577 -1434h-53zM279 475h733l-367 907z" />
    <glyph glyph-name="Atilde" unicode="&#xc3;" horiz-adv-x="1292" 
d="M504 1716q-46 0 -76 -35.5t-29 -91.5l-45 4q3 75 45.5 121.5t104.5 46.5q36 0 77 -20t72 -43.5t68.5 -43.5t66.5 -20q46 0 76 35.5t29 91.5l45 -4q-3 -75 -45.5 -121.5t-104.5 -46.5q-36 0 -77 20t-71 43.5t-67.5 43.5t-68.5 20zM1202 0l-174 430h-766l-174 -430h-51
l577 1434h64l577 -1434h-53zM279 475h733l-367 907z" />
    <glyph glyph-name="Adieresis" unicode="&#xc4;" horiz-adv-x="1292" 
d="M528 1606q-25 0 -42 16.5t-17 42.5q0 22 17.5 38.5t41.5 16.5q22 0 41 -17t19 -38q0 -25 -18.5 -42t-41.5 -17zM766 1606q-25 0 -42 16.5t-17 42.5q0 22 17.5 38.5t41.5 16.5q22 0 40.5 -17t18.5 -38q0 -25 -18 -42t-41 -17zM1202 0l-174 430h-766l-174 -430h-51
l577 1434h64l577 -1434h-53zM279 475h733l-367 907z" />
    <glyph glyph-name="Aring" unicode="&#xc5;" horiz-adv-x="1292" 
d="M647 1561q-92 0 -151.5 56.5t-59.5 145.5q0 88 59.5 144.5t151.5 56.5t151.5 -56.5t59.5 -144.5q0 -89 -59.5 -145.5t-151.5 -56.5zM647 1921q-72 0 -119 -45t-47 -113q0 -69 47 -114t119 -45t119 45t47 114q0 68 -47 113t-119 45zM1202 0l-174 430h-766l-174 -430h-51
l577 1434h64l577 -1434h-53zM279 475h733l-367 907z" />
    <glyph glyph-name="AE" unicode="&#xc6;" horiz-adv-x="1859" 
d="M1720 1389h-698v-580h623v-45h-623v-719h698v-45h-747v430h-600l-279 -430h-57l930 1434h753v-45zM401 475h572v879z" />
    <glyph glyph-name="Ccedilla" unicode="&#xc7;" horiz-adv-x="1570" 
d="M1448 455q-47 -201 -205.5 -330t-370.5 -143q58 -58 84.5 -118t19.5 -110.5t-36 -91.5t-81 -65t-116 -27l-14 41q106 16 157.5 68.5t36.5 132t-100 168.5q-193 0 -353.5 98.5t-253.5 269.5t-93 377q0 201 93 368.5t253.5 264t353.5 96.5q226 0 398 -126.5t223 -330.5h-51
q-51 184 -209 298t-361 114q-180 0 -329.5 -90.5t-235.5 -247.5t-86 -346q0 -193 86 -354t235.5 -253.5t329.5 -92.5q210 0 369 118.5t205 311.5h51z" />
    <glyph glyph-name="Egrave" unicode="&#xc8;" horiz-adv-x="1085" 
d="M367 1827h73l160 -266h-51zM199 1434h747v-45h-698v-580h622v-45h-622v-719h698v-45h-747v1434z" />
    <glyph glyph-name="Eacute" unicode="&#xc9;" horiz-adv-x="1085" 
d="M756 1827l-183 -266h-51l160 266h74zM199 1434h747v-45h-698v-580h622v-45h-622v-719h698v-45h-747v1434z" />
    <glyph glyph-name="Ecircumflex" unicode="&#xca;" horiz-adv-x="1085" 
d="M569 1804l-159 -223h-48l177 266h61l174 -266h-47zM946 1389h-698v-580h622v-45h-622v-719h698v-45h-747v1434h747v-45z" />
    <glyph glyph-name="Edieresis" unicode="&#xcb;" horiz-adv-x="1085" 
d="M451 1720q22 0 40.5 -17t18.5 -38q0 -25 -18 -42t-41 -17q-25 0 -42.5 16.5t-17.5 42.5q0 22 17.5 38.5t42.5 16.5zM688 1720q22 0 41 -17t19 -38q0 -25 -18.5 -42t-41.5 -17q-25 0 -42 16.5t-17 42.5q0 22 17.5 38.5t41.5 16.5zM199 1434h747v-45h-698v-580h622v-45
h-622v-719h698v-45h-747v1434z" />
    <glyph glyph-name="Igrave" unicode="&#xcc;" horiz-adv-x="446" 
d="M20 1827h74l160 -266h-51zM199 1434h49v-1434h-49v1434z" />
    <glyph glyph-name="Iacute" unicode="&#xcd;" horiz-adv-x="446" 
d="M410 1827l-183 -266h-51l160 266h74zM199 1434h49v-1434h-49v1434z" />
    <glyph glyph-name="Icircumflex" unicode="&#xce;" horiz-adv-x="446" 
d="M254 1847l174 -266h-47l-158 223l-160 -223h-47l177 266h61zM199 0v1434h49v-1434h-49z" />
    <glyph glyph-name="Idieresis" unicode="&#xcf;" horiz-adv-x="446" 
d="M104 1720q22 0 41 -17t19 -38q0 -25 -18.5 -42t-41.5 -17q-25 0 -42 16.5t-17 42.5q0 22 17.5 38.5t41.5 16.5zM342 1720q22 0 40.5 -17t18.5 -38q0 -25 -18 -42t-41 -17q-25 0 -42 16.5t-17 42.5q0 22 17.5 38.5t41.5 16.5zM199 1434h49v-1434h-49v1434z" />
    <glyph glyph-name="Eth" unicode="&#xd0;" horiz-adv-x="1421" 
d="M610 1434q143 0 270.5 -53.5t219 -146.5t145 -226t53.5 -285q0 -151 -53.5 -285.5t-145 -230.5t-219 -151.5t-270.5 -55.5h-411v700h-256v45h256v689h411zM610 45q134 0 252.5 52t203 141.5t134 215.5t49.5 269t-49 267.5t-133.5 211.5t-203 137t-253.5 50h-362v-644h260
v-45h-260v-655h362z" />
    <glyph glyph-name="Ntilde" unicode="&#xd1;" horiz-adv-x="1472" 
d="M449 1593q3 76 45 122t104 46q36 0 77 -20t72.5 -43.5t69 -43.5t66.5 -20q46 0 75.5 35.5t28.5 91.5l45 -4q-3 -76 -45 -122t-104 -46q-36 0 -77 20t-71 43.5t-68 43.5t-69 20q-46 0 -75.5 -35.5t-28.5 -91.5zM199 1434h65l961 -1375v1375h49v-1434h-66l-960 1374v-1374
h-49v1434z" />
    <glyph glyph-name="Ograve" unicode="&#xd2;" horiz-adv-x="1677" 
d="M635 1827h74l159 -266h-51zM838 1454q148 0 280.5 -57t228 -154t151.5 -232.5t56 -285.5q0 -154 -56 -292.5t-151.5 -237.5t-228 -157t-280.5 -58q-197 0 -361 98.5t-259 269.5t-95 377q0 201 95 368.5t259.5 264t360.5 96.5zM838 1409q-138 0 -261.5 -53.5t-212 -144.5
t-140.5 -218t-52 -268q0 -193 88 -354t241 -253.5t337 -92.5q185 0 338 92.5t241 253t88 354.5q0 189 -88 346t-241 247.5t-338 90.5z" />
    <glyph glyph-name="Oacute" unicode="&#xd3;" horiz-adv-x="1677" 
d="M1024 1827l-182 -266h-51l159 266h74zM838 1454q148 0 280.5 -57t228 -154t151.5 -232.5t56 -285.5q0 -154 -56 -292.5t-151.5 -237.5t-228 -157t-280.5 -58q-197 0 -361 98.5t-259 269.5t-95 377q0 201 95 368.5t259.5 264t360.5 96.5zM838 1409q-138 0 -261.5 -53.5
t-212 -144.5t-140.5 -218t-52 -268q0 -193 88 -354t241 -253.5t337 -92.5q185 0 338 92.5t241 253t88 354.5q0 189 -88 346t-241 247.5t-338 90.5z" />
    <glyph glyph-name="Ocircumflex" unicode="&#xd4;" horiz-adv-x="1677" 
d="M838 1804l-160 -223h-47l176 266h61l174 -266h-47zM838 1454q148 0 280.5 -57t228 -154t151.5 -232.5t56 -285.5q0 -154 -56 -292.5t-151.5 -237.5t-228 -157t-280.5 -58q-197 0 -361 98.5t-259 269.5t-95 377q0 201 95 368.5t259.5 264t360.5 96.5zM838 25
q185 0 338 92.5t241 253t88 354.5q0 189 -88 346t-241 247.5t-338 90.5q-138 0 -261.5 -53.5t-212 -144.5t-140.5 -218t-52 -268q0 -193 88 -354t241 -253.5t337 -92.5z" />
    <glyph glyph-name="Otilde" unicode="&#xd5;" horiz-adv-x="1677" 
d="M545 1593q3 76 45 122t104 46q36 0 77 -20t72.5 -43.5t69 -43.5t66.5 -20q46 0 75.5 35.5t28.5 91.5l45 -4q-3 -76 -45 -122t-104 -46q-36 0 -77 20t-71 43.5t-68 43.5t-69 20q-46 0 -75.5 -35.5t-28.5 -91.5zM838 1454q148 0 280.5 -57t228 -154t151.5 -232.5t56 -285.5
q0 -154 -56 -292.5t-151.5 -237.5t-228 -157t-280.5 -58q-197 0 -361 98.5t-259 269.5t-95 377q0 201 95 368.5t259.5 264t360.5 96.5zM838 1409q-138 0 -261.5 -53.5t-212 -144.5t-140.5 -218t-52 -268q0 -193 88 -354t241 -253.5t337 -92.5q185 0 338 92.5t241 253
t88 354.5q0 189 -88 346t-241 247.5t-338 90.5z" />
    <glyph glyph-name="Odieresis" unicode="&#xd6;" horiz-adv-x="1677" 
d="M719 1720q22 0 40.5 -17t18.5 -38q0 -25 -18 -42t-41 -17q-25 0 -42.5 16.5t-17.5 42.5q0 22 17.5 38.5t42.5 16.5zM956 1720q22 0 41 -17t19 -38q0 -25 -18.5 -42t-41.5 -17q-25 0 -42 16.5t-17 42.5q0 22 17.5 38.5t41.5 16.5zM838 1454q148 0 280.5 -57t228 -154
t151.5 -232.5t56 -285.5q0 -154 -56 -292.5t-151.5 -237.5t-228 -157t-280.5 -58q-197 0 -361 98.5t-259 269.5t-95 377q0 201 95 368.5t259.5 264t360.5 96.5zM838 1409q-138 0 -261.5 -53.5t-212 -144.5t-140.5 -218t-52 -268q0 -193 88 -354t241 -253.5t337 -92.5
q185 0 338 92.5t241 253t88 354.5q0 189 -88 346t-241 247.5t-338 90.5z" />
    <glyph glyph-name="multiply" unicode="&#xd7;" horiz-adv-x="1005" 
d="M831 338l-32 -33l-295 297l-297 -297l-33 33l297 297l-295 293l31 33l295 -295l295 295l32 -33l-294 -295z" />
    <glyph glyph-name="Oslash" unicode="&#xd8;" horiz-adv-x="1677" 
d="M1321 1268q109 -102 171 -242.5t62 -300.5q0 -154 -56 -292.5t-151.5 -237.5t-228 -157t-280.5 -58q-255 0 -447 159l-143 -174l-37 31l143 176q-109 103 -170 246.5t-61 306.5q0 201 95 368.5t259.5 264t360.5 96.5q250 0 444 -154l145 177l39 -31zM172 725
q0 -152 56.5 -286.5t156.5 -231.5l868 1057q-178 145 -415 145q-138 0 -261.5 -53.5t-212 -144.5t-140.5 -218t-52 -268zM838 25q185 0 338 92.5t241 253t88 354.5q0 150 -56.5 281.5t-158.5 226.5l-870 -1057q181 -151 418 -151z" />
    <glyph glyph-name="Ugrave" unicode="&#xd9;" horiz-adv-x="1458" 
d="M526 1827h74l160 -266h-51zM729 -20q-229 0 -379.5 154.5t-150.5 387.5v912h49v-912q0 -215 136 -356t345 -141q207 0 344 141t137 356v912h50v-912q0 -233 -151 -387.5t-380 -154.5z" />
    <glyph glyph-name="Uacute" unicode="&#xda;" horiz-adv-x="1458" 
d="M915 1827l-182 -266h-51l160 266h73zM729 -20q-229 0 -379.5 154.5t-150.5 387.5v912h49v-912q0 -215 136 -356t345 -141q207 0 344 141t137 356v912h50v-912q0 -233 -151 -387.5t-380 -154.5z" />
    <glyph glyph-name="Ucircumflex" unicode="&#xdb;" horiz-adv-x="1458" 
d="M729 1804l-160 -223h-47l176 266h62l174 -266h-47zM1210 1434h50v-912q0 -233 -151 -387.5t-380 -154.5t-379.5 154.5t-150.5 387.5v912h49v-912q0 -215 136 -356t345 -141q207 0 344 141t137 356v912z" />
    <glyph glyph-name="Udieresis" unicode="&#xdc;" horiz-adv-x="1458" 
d="M610 1720q22 0 41 -17t19 -38q0 -25 -18.5 -42t-41.5 -17q-25 0 -42 16.5t-17 42.5q0 22 17.5 38.5t41.5 16.5zM848 1720q22 0 40.5 -17t18.5 -38q0 -25 -18 -42t-41 -17q-25 0 -42.5 16.5t-17.5 42.5q0 22 17.5 38.5t42.5 16.5zM729 -20q-229 0 -379.5 154.5
t-150.5 387.5v912h49v-912q0 -215 136 -356t345 -141q207 0 344 141t137 356v912h50v-912q0 -233 -151 -387.5t-380 -154.5z" />
    <glyph glyph-name="Yacute" unicode="&#xdd;" horiz-adv-x="1181" 
d="M778 1827l-182 -266h-51l160 266h73zM49 1434h57l488 -717l481 717h58l-515 -764v-670h-49v670z" />
    <glyph glyph-name="Thorn" unicode="&#xde;" horiz-adv-x="1216" 
d="M756 1098q158 0 267.5 -109.5t109.5 -267.5q0 -160 -109.5 -269.5t-267.5 -109.5h-508v-342h-49v1434h49v-336h508zM756 387q138 0 232.5 97t94.5 237t-94.5 236t-232.5 96h-508v-666h508z" />
    <glyph glyph-name="germandbls" unicode="&#xdf;" horiz-adv-x="1198" 
d="M174 0v1071q0 173 122 278t312 105q173 0 292.5 -111t119.5 -262q0 -136 -84 -229t-215 -102q164 -6 270.5 -110t106.5 -259q0 -159 -112 -270t-269 -111h-330v45h330q140 0 238 98.5t98 237.5q0 149 -110 245.5t-298 96.5h-258v45h258q138 0 234 90.5t96 222.5
q0 134 -106.5 232t-260.5 98q-166 0 -275.5 -95.5t-109.5 -244.5v-1071h-49z" />
    <glyph glyph-name="agrave" unicode="&#xe0;" horiz-adv-x="1228" 
d="M657 1116h-51l-182 266h74zM1006 989h49v-989h-49v180q-50 -84 -161 -142t-227 -58q-222 0 -369 147t-147 369q0 221 147.5 367.5t368.5 146.5q119 0 230.5 -59t157.5 -144v182zM618 25q115 0 225.5 62.5t162.5 158.5v495q-51 98 -161.5 161t-226.5 63
q-200 0 -333 -133.5t-133 -335.5t133 -336.5t333 -134.5z" />
    <glyph glyph-name="aacute" unicode="&#xe1;" horiz-adv-x="1228" 
d="M813 1382l-182 -266h-51l159 266h74zM1006 989h49v-989h-49v180q-50 -84 -161 -142t-227 -58q-222 0 -369 147t-147 369q0 221 147.5 367.5t368.5 146.5q119 0 230.5 -59t157.5 -144v182zM618 25q115 0 225.5 62.5t162.5 158.5v495q-51 98 -161.5 161t-226.5 63
q-200 0 -333 -133.5t-133 -335.5t133 -336.5t333 -134.5z" />
    <glyph glyph-name="acircumflex" unicode="&#xe2;" horiz-adv-x="1228" 
d="M627 1360l-160 -223h-47l176 266h61l174 -266h-47zM1006 989h49v-989h-49v180q-50 -84 -161 -142t-227 -58q-222 0 -369 147t-147 369q0 221 147.5 367.5t368.5 146.5q119 0 230.5 -59t157.5 -144v182zM618 25q115 0 225.5 62.5t162.5 158.5v495q-51 98 -161.5 161
t-226.5 63q-200 0 -333 -133.5t-133 -335.5t133 -336.5t333 -134.5z" />
    <glyph glyph-name="atilde" unicode="&#xe3;" horiz-adv-x="1228" 
d="M483 1272q-46 0 -75.5 -35.5t-28.5 -91.5l-45 4q3 76 45 122t104 46q36 0 77 -20t72.5 -43.5t69 -43.5t66.5 -20q46 0 75.5 35.5t28.5 91.5l46 -4q-3 -75 -45.5 -121.5t-104.5 -46.5q-36 0 -77 20t-71 43.5t-68 43.5t-69 20zM1006 989h49v-989h-49v180q-50 -84 -161 -142
t-227 -58q-222 0 -369 147t-147 369q0 221 147.5 367.5t368.5 146.5q119 0 230.5 -59t157.5 -144v182zM618 25q115 0 225.5 62.5t162.5 158.5v495q-51 98 -161.5 161t-226.5 63q-200 0 -333 -133.5t-133 -335.5t133 -336.5t333 -134.5z" />
    <glyph glyph-name="adieresis" unicode="&#xe4;" horiz-adv-x="1228" 
d="M510 1268q-25 0 -42 16.5t-17 42.5q0 22 17.5 38.5t41.5 16.5q22 0 40.5 -17t18.5 -38q0 -25 -18 -42t-41 -17zM748 1268q-25 0 -42.5 16.5t-17.5 42.5q0 22 17.5 38.5t42.5 16.5q22 0 40.5 -17t18.5 -38q0 -25 -18 -42t-41 -17zM1006 989h49v-989h-49v180
q-50 -84 -161 -142t-227 -58q-222 0 -369 147t-147 369q0 221 147.5 367.5t368.5 146.5q119 0 230.5 -59t157.5 -144v182zM618 25q115 0 225.5 62.5t162.5 158.5v495q-51 98 -161.5 161t-226.5 63q-200 0 -333 -133.5t-133 -335.5t133 -336.5t333 -134.5z" />
    <glyph glyph-name="aring" unicode="&#xe5;" horiz-adv-x="1228" 
d="M627 1116q-92 0 -151.5 57t-59.5 146q0 88 59.5 144.5t151.5 56.5t151.5 -56.5t59.5 -144.5q0 -89 -59.5 -146t-151.5 -57zM627 1477q-72 0 -119 -45t-47 -113q0 -69 47 -114.5t119 -45.5t119 45.5t47 114.5q0 68 -47 113t-119 45zM1006 989h49v-989h-49v180
q-50 -84 -161 -142t-227 -58q-222 0 -369 147t-147 369q0 221 147.5 367.5t368.5 146.5q119 0 230.5 -59t157.5 -144v182zM618 25q115 0 225.5 62.5t162.5 158.5v495q-51 98 -161.5 161t-226.5 63q-200 0 -333 -133.5t-133 -335.5t133 -336.5t333 -134.5z" />
    <glyph glyph-name="ae" unicode="&#xe6;" horiz-adv-x="2068" 
d="M1962 526h-907v-26q0 -204 126 -339.5t318 -135.5q154 0 268 74.5t140 197.5h49q-30 -143 -158 -230t-299 -87q-149 0 -267 76.5t-177 207.5v-264h-49v180q-50 -84 -161 -142t-227 -58q-222 0 -369 147t-147 369q0 221 147.5 367.5t368.5 146.5q119 0 230.5 -59
t157.5 -144v182h49v-266q61 131 179.5 209t264.5 78q198 0 330.5 -135.5t132.5 -335.5v-13zM1006 246v495q-51 98 -161.5 161t-226.5 63q-200 0 -333 -133.5t-133 -335.5t133 -336.5t333 -134.5q115 0 225.5 62.5t162.5 158.5zM1499 965q-169 0 -292 -112t-148 -282h854
q-8 168 -126 281t-288 113z" />
    <glyph glyph-name="ccedilla" unicode="&#xe7;" horiz-adv-x="1150" 
d="M610 25q137 0 248.5 75t138.5 195h52q-29 -139 -155.5 -227t-283.5 -88h-20q58 -57 84.5 -117t19.5 -110t-36 -91t-81 -65t-116 -27l-15 41q107 16 159 69.5t35.5 134.5t-105.5 171q-186 26 -309.5 169.5t-123.5 338.5q0 142 67.5 261t184.5 187t256 68q155 0 281 -88
t158 -220h-52q-29 114 -139.5 188.5t-247.5 74.5q-193 0 -325.5 -136.5t-132.5 -334.5q0 -197 132.5 -333t325.5 -136z" />
    <glyph glyph-name="egrave" unicode="&#xe8;" horiz-adv-x="1161" 
d="M621 1116h-52l-182 266h74zM1059 526h-907v-26q0 -204 126 -339.5t318 -135.5q154 0 268 74.5t140 197.5h49q-30 -143 -158 -230t-299 -87q-212 0 -353 148t-141 372q0 140 66 257.5t179.5 185t248.5 67.5q198 0 330.5 -135.5t132.5 -335.5v-13zM596 965
q-169 0 -292 -112t-148 -282h854q-8 168 -126 281t-288 113z" />
    <glyph glyph-name="eacute" unicode="&#xe9;" horiz-adv-x="1161" 
d="M776 1382l-182 -266h-51l159 266h74zM1059 526h-907v-26q0 -204 126 -339.5t318 -135.5q154 0 268 74.5t140 197.5h49q-30 -143 -158 -230t-299 -87q-212 0 -353 148t-141 372q0 140 66 257.5t179.5 185t248.5 67.5q198 0 330.5 -135.5t132.5 -335.5v-13zM596 965
q-169 0 -292 -112t-148 -282h854q-8 168 -126 281t-288 113z" />
    <glyph glyph-name="ecircumflex" unicode="&#xea;" horiz-adv-x="1161" 
d="M590 1360l-160 -223h-47l176 266h62l174 -266h-47zM1059 526h-907v-26q0 -204 126 -339.5t318 -135.5q154 0 268 74.5t140 197.5h49q-30 -143 -158 -230t-299 -87q-212 0 -353 148t-141 372q0 140 66 257.5t179.5 185t248.5 67.5q198 0 330.5 -135.5t132.5 -335.5v-13z
M596 965q-169 0 -292 -112t-148 -282h854q-8 168 -126 281t-288 113z" />
    <glyph glyph-name="edieresis" unicode="&#xeb;" horiz-adv-x="1161" 
d="M473 1268q-25 0 -42 16.5t-17 42.5q0 22 17.5 38.5t41.5 16.5q22 0 40.5 -17t18.5 -38q0 -25 -18 -42t-41 -17zM711 1268q-25 0 -42.5 16.5t-17.5 42.5q0 22 17.5 38.5t42.5 16.5q22 0 40.5 -17t18.5 -38q0 -25 -18 -42t-41 -17zM1059 526h-907v-26q0 -204 126 -339.5
t318 -135.5q154 0 268 74.5t140 197.5h49q-30 -143 -158 -230t-299 -87q-212 0 -353 148t-141 372q0 140 66 257.5t179.5 185t248.5 67.5q198 0 330.5 -135.5t132.5 -335.5v-13zM596 965q-169 0 -292 -112t-148 -282h854q-8 168 -126 281t-288 113z" />
    <glyph glyph-name="igrave" unicode="&#xec;" horiz-adv-x="397" 
d="M-2 1382h74l159 -266h-51zM174 989h49v-989h-49v989z" />
    <glyph glyph-name="iacute" unicode="&#xed;" horiz-adv-x="397" 
d="M387 1382l-182 -266h-51l159 266h74zM174 989h49v-989h-49v989z" />
    <glyph glyph-name="icircumflex" unicode="&#xee;" horiz-adv-x="397" 
d="M231 1403l175 -266h-48l-157 223l-160 -223h-47l176 266h61zM174 0v989h49v-989h-49z" />
    <glyph glyph-name="idieresis" unicode="&#xef;" horiz-adv-x="397" 
d="M84 1382q22 0 40.5 -17t18.5 -38q0 -25 -18 -42t-41 -17q-25 0 -42 16.5t-17 42.5q0 22 17.5 38.5t41.5 16.5zM322 1382q22 0 40.5 -17t18.5 -38q0 -25 -18 -42t-41 -17q-25 0 -42.5 16.5t-17.5 42.5q0 22 17.5 38.5t42.5 16.5zM174 989h49v-989h-49v989z" />
    <glyph glyph-name="eth" unicode="&#xf0;" horiz-adv-x="1314" 
d="M1419 1282v-45h-289v-741q0 -152 -68 -270t-185 -182t-263 -64q-106 0 -201 40.5t-163 109t-108 164t-40 202.5t40 202t108 163.5t163 108.5t201 40q171 0 295.5 -89t171.5 -243v559h-284v45h284v152h49v-152h289zM614 25q204 0 335.5 132.5t131.5 338.5
q0 204 -131.5 336.5t-335.5 132.5q-196 0 -331.5 -136t-135.5 -333q0 -198 135.5 -334.5t331.5 -136.5z" />
    <glyph glyph-name="ntilde" unicode="&#xf1;" horiz-adv-x="1208" 
d="M451 1272q-46 0 -76 -35.5t-29 -91.5l-45 4q3 75 45.5 121.5t104.5 46.5q36 0 77 -20t72 -43.5t68.5 -43.5t66.5 -20q46 0 76 35.5t29 91.5l45 -4q-3 -75 -45.5 -121.5t-104.5 -46.5q-36 0 -77 20t-71 43.5t-67.5 43.5t-68.5 20zM625 1010q182 0 295.5 -120t113.5 -312
v-578h-49v578q0 172 -100 279.5t-260 107.5q-126 0 -235.5 -60.5t-166.5 -161.5v-743h-49v989h49v-182q54 92 164 147.5t238 55.5z" />
    <glyph glyph-name="ograve" unicode="&#xf2;" horiz-adv-x="1222" 
d="M410 1382h73l160 -266h-51zM610 -20q-139 0 -256 67.5t-184.5 186t-67.5 260.5t67.5 261t184.5 187t256 68t256.5 -68t185.5 -187t68 -261q0 -106 -40 -201.5t-108.5 -164t-163 -108.5t-198.5 -40zM610 25q192 0 326.5 136.5t134.5 332.5q0 198 -134.5 334.5
t-326.5 136.5q-193 0 -325.5 -136.5t-132.5 -334.5q0 -197 132.5 -333t325.5 -136z" />
    <glyph glyph-name="oacute" unicode="&#xf3;" horiz-adv-x="1222" 
d="M799 1382l-183 -266h-51l160 266h74zM610 -20q-139 0 -256 67.5t-184.5 186t-67.5 260.5t67.5 261t184.5 187t256 68t256.5 -68t185.5 -187t68 -261q0 -106 -40 -201.5t-108.5 -164t-163 -108.5t-198.5 -40zM610 25q192 0 326.5 136.5t134.5 332.5q0 198 -134.5 334.5
t-326.5 136.5q-193 0 -325.5 -136.5t-132.5 -334.5q0 -197 132.5 -333t325.5 -136z" />
    <glyph glyph-name="ocircumflex" unicode="&#xf4;" horiz-adv-x="1222" 
d="M612 1360l-159 -223h-47l176 266h61l174 -266h-47zM610 1010q139 0 256.5 -68t185.5 -187t68 -261q0 -106 -40 -201.5t-108.5 -164t-163 -108.5t-198.5 -40q-139 0 -256 67.5t-184.5 186t-67.5 260.5t67.5 261t184.5 187t256 68zM610 25q192 0 326.5 136.5t134.5 332.5
q0 198 -134.5 334.5t-326.5 136.5q-193 0 -325.5 -136.5t-132.5 -334.5q0 -197 132.5 -333t325.5 -136z" />
    <glyph glyph-name="otilde" unicode="&#xf5;" horiz-adv-x="1222" 
d="M319 1149q3 75 45.5 121.5t104.5 46.5q36 0 77 -20t72.5 -43.5t69 -43.5t66.5 -20q46 0 75.5 35.5t28.5 91.5l45 -4q-3 -76 -45 -122t-104 -46q-36 0 -77 20t-71 43.5t-68 43.5t-69 20q-46 0 -75.5 -35.5t-28.5 -91.5zM610 -20q-139 0 -256 67.5t-184.5 186t-67.5 260.5
t67.5 261t184.5 187t256 68t256.5 -68t185.5 -187t68 -261q0 -106 -40 -201.5t-108.5 -164t-163 -108.5t-198.5 -40zM610 25q192 0 326.5 136.5t134.5 332.5q0 198 -134.5 334.5t-326.5 136.5q-193 0 -325.5 -136.5t-132.5 -334.5q0 -197 132.5 -333t325.5 -136z" />
    <glyph glyph-name="odieresis" unicode="&#xf6;" horiz-adv-x="1222" 
d="M496 1382q22 0 40.5 -17t18.5 -38q0 -25 -18 -42t-41 -17q-25 0 -42.5 16.5t-17.5 42.5q0 22 17.5 38.5t42.5 16.5zM733 1382q22 0 41 -17t19 -38q0 -25 -18.5 -42t-41.5 -17q-25 0 -42 16.5t-17 42.5q0 22 17.5 38.5t41.5 16.5zM610 -20q-139 0 -256 67.5t-184.5 186
t-67.5 260.5t67.5 261t184.5 187t256 68t256.5 -68t185.5 -187t68 -261q0 -106 -40 -201.5t-108.5 -164t-163 -108.5t-198.5 -40zM610 25q192 0 326.5 136.5t134.5 332.5q0 198 -134.5 334.5t-326.5 136.5q-193 0 -325.5 -136.5t-132.5 -334.5q0 -197 132.5 -333t325.5 -136
z" />
    <glyph glyph-name="divide" unicode="&#xf7;" horiz-adv-x="1153" 
d="M578 864q-31 0 -51.5 20.5t-20.5 51.5t20.5 52.5t51.5 21.5q30 0 50.5 -21.5t20.5 -52.5t-20 -51.5t-51 -20.5zM979 659v-45h-805v45h805zM578 264q-31 0 -51.5 20.5t-20.5 51.5t20.5 52.5t51.5 21.5q30 0 50.5 -21.5t20.5 -52.5t-20 -51.5t-51 -20.5z" />
    <glyph glyph-name="oslash" unicode="&#xf8;" horiz-adv-x="1222" 
d="M954 877q78 -72 122 -171t44 -212q0 -106 -40 -201.5t-108.5 -164t-163 -108.5t-198.5 -40q-171 0 -307 102l-104 -127l-35 29l104 127q-78 72 -122 171t-44 212q0 142 67.5 261t184.5 187t256 68q167 0 308 -103l104 127l37 -28zM152 494q0 -101 38.5 -191.5
t106.5 -155.5l592 723q-126 95 -279 95q-193 0 -325.5 -136.5t-132.5 -334.5zM610 25q192 0 326.5 136.5t134.5 332.5q0 102 -39 192t-108 156l-592 -723q124 -94 278 -94z" />
    <glyph glyph-name="ugrave" unicode="&#xf9;" horiz-adv-x="1208" 
d="M645 1116h-51l-182 266h73zM985 989h49v-989h-49v182q-54 -92 -163.5 -147t-237.5 -55q-182 0 -296 120t-114 312v577h49v-577q0 -172 100.5 -279.5t260.5 -107.5q126 0 235 60t166 161v743z" />
    <glyph glyph-name="uacute" unicode="&#xfa;" horiz-adv-x="1208" 
d="M801 1382l-183 -266h-51l160 266h74zM985 989h49v-989h-49v182q-54 -92 -163.5 -147t-237.5 -55q-182 0 -296 120t-114 312v577h49v-577q0 -172 100.5 -279.5t260.5 -107.5q126 0 235 60t166 161v743z" />
    <glyph glyph-name="ucircumflex" unicode="&#xfb;" horiz-adv-x="1208" 
d="M614 1360l-159 -223h-47l176 266h61l174 -266h-47zM985 989h49v-989h-49v182q-54 -92 -163.5 -147t-237.5 -55q-182 0 -296 120t-114 312v577h49v-577q0 -172 100.5 -279.5t260.5 -107.5q126 0 235 60t166 161v743z" />
    <glyph glyph-name="udieresis" unicode="&#xfc;" horiz-adv-x="1208" 
d="M498 1268q-25 0 -42.5 16.5t-17.5 42.5q0 22 17.5 38.5t42.5 16.5q22 0 40.5 -17t18.5 -38q0 -25 -18 -42t-41 -17zM735 1268q-25 0 -42 16.5t-17 42.5q0 22 17.5 38.5t41.5 16.5q22 0 41 -17t19 -38q0 -25 -18.5 -42t-41.5 -17zM985 989h49v-989h-49v182
q-54 -92 -163.5 -147t-237.5 -55q-182 0 -296 120t-114 312v577h49v-577q0 -172 100.5 -279.5t260.5 -107.5q126 0 235 60t166 161v743z" />
    <glyph glyph-name="yacute" unicode="&#xfd;" horiz-adv-x="1005" 
d="M702 1382l-182 -266h-51l160 266h73zM905 989h51l-587 -1399h-52l162 385l-430 1014h53l402 -954z" />
    <glyph glyph-name="thorn" unicode="&#xfe;" horiz-adv-x="1228" 
d="M610 1010q222 0 369 -147t147 -369q0 -221 -147.5 -367.5t-368.5 -146.5q-119 0 -230 58.5t-157 143.5v-592h-49v1844h49v-625q50 84 160.5 142.5t226.5 58.5zM610 25q200 0 333.5 133.5t133.5 335.5t-133.5 336.5t-333.5 134.5q-115 0 -225 -63t-162 -159v-495
q51 -97 161 -160t226 -63z" />
    <glyph glyph-name="ydieresis" unicode="&#xff;" horiz-adv-x="1005" 
d="M399 1268q-25 0 -42 16.5t-17 42.5q0 22 17.5 38.5t41.5 16.5q22 0 41 -17t19 -38q0 -25 -18.5 -42t-41.5 -17zM637 1268q-25 0 -42 16.5t-17 42.5q0 22 17.5 38.5t41.5 16.5q22 0 40.5 -17t18.5 -38q0 -25 -18 -42t-41 -17zM905 989h51l-587 -1399h-52l162 385
l-430 1014h53l402 -954z" />
    <glyph glyph-name="Amacron" unicode="&#x100;" horiz-adv-x="1292" 
d="M975 1645v-46h-656v46h656zM1202 0l-174 430h-766l-174 -430h-51l577 1434h64l577 -1434h-53zM279 475h733l-367 907z" />
    <glyph glyph-name="amacron" unicode="&#x101;" 
d="M932 1200v-45h-656v45h656zM1006 989h49v-989h-49v180q-50 -84 -161 -142t-227 -58q-222 0 -369 147t-147 369q0 221 147.5 367.5t368.5 146.5q119 0 230.5 -59t157.5 -144v182zM618 25q115 0 225.5 62.5t162.5 158.5v495q-51 98 -161.5 161t-226.5 63
q-200 0 -333 -133.5t-133 -335.5t133 -336.5t333 -134.5z" />
    <glyph glyph-name="Abreve" unicode="&#x102;" horiz-adv-x="1292" 
d="M647 1561q-116 0 -192.5 81.5t-79.5 208.5h45q3 -108 67 -177.5t160 -69.5q97 0 161.5 69.5t65.5 177.5h46q-1 -127 -78.5 -208.5t-194.5 -81.5zM1202 0l-174 430h-766l-174 -430h-51l577 1434h64l577 -1434h-53zM279 475h733l-367 907z" />
    <glyph glyph-name="abreve" unicode="&#x103;" horiz-adv-x="1216" 
d="M594 1116q-116 0 -192.5 82t-79.5 209h45q3 -108 67 -178t160 -70q97 0 161.5 70t65.5 178h45q-1 -127 -78 -209t-194 -82zM1006 989h49v-989h-49v180q-50 -84 -161 -142t-227 -58q-222 0 -369 147t-147 369q0 221 147.5 367.5t368.5 146.5q119 0 230.5 -59t157.5 -144
v182zM618 25q115 0 225.5 62.5t162.5 158.5v495q-51 98 -161.5 161t-226.5 63q-200 0 -333 -133.5t-133 -335.5t133 -336.5t333 -134.5z" />
    <glyph glyph-name="Aogonek" unicode="&#x104;" horiz-adv-x="1292" 
d="M1262 -334l18 -39q-69 -37 -147 -37t-124 45.5t-46 116.5q0 87 60 159t167 120l-162 399h-766l-174 -430h-51l577 1434h64l577 -1434h-32q-99 -36 -157 -101.5t-58 -146.5q0 -52 33 -85.5t92 -33.5q79 0 129 33zM279 475h733l-367 907z" />
    <glyph glyph-name="aogonek" unicode="&#x105;" horiz-adv-x="1228" 
d="M1094 -334l18 -39q-69 -37 -147 -37t-124 45.5t-46 116.5q0 83 56 153t155 118v157q-50 -84 -161 -142t-227 -58q-222 0 -369 147t-147 369q0 221 147.5 367.5t368.5 146.5q119 0 230.5 -59t157.5 -144v182h49v-989q-99 -36 -157 -101.5t-58 -146.5q0 -52 33 -85.5
t92 -33.5q79 0 129 33zM618 25q115 0 225.5 62.5t162.5 158.5v495q-51 98 -161.5 161t-226.5 63q-200 0 -333 -133.5t-133 -335.5t133 -336.5t333 -134.5z" />
    <glyph glyph-name="Cacute" unicode="&#x106;" horiz-adv-x="1570" 
d="M1026 1827l-182 -266h-51l159 266h74zM823 -20q-193 0 -353.5 98.5t-253.5 269.5t-93 377q0 201 93 368.5t253.5 264t353.5 96.5q226 0 398 -126.5t223 -330.5h-51q-51 184 -209 298t-361 114q-180 0 -329.5 -90.5t-235.5 -247.5t-86 -346q0 -193 86 -354t235.5 -253.5
t329.5 -92.5q210 0 369 118.5t205 311.5h51q-51 -213 -224 -344t-401 -131z" />
    <glyph glyph-name="cacute" unicode="&#x107;" horiz-adv-x="1150" 
d="M795 1382l-183 -266h-51l160 266h74zM610 -20q-139 0 -256 67.5t-184.5 186t-67.5 260.5t67.5 261t184.5 187t256 68q155 0 281 -88t158 -220h-52q-29 114 -139.5 188.5t-247.5 74.5q-193 0 -325.5 -136.5t-132.5 -334.5q0 -197 132.5 -333t325.5 -136q137 0 248.5 75
t138.5 195h52q-29 -139 -155.5 -227t-283.5 -88z" />
    <glyph glyph-name="Ccircumflex" unicode="&#x108;" horiz-adv-x="1570" 
d="M840 1804l-160 -223h-47l176 266h61l174 -266h-47zM1397 455h51q-51 -213 -224 -344t-401 -131q-193 0 -353.5 98.5t-253.5 269.5t-93 377q0 201 93 368.5t253.5 264t353.5 96.5q226 0 398 -126.5t223 -330.5h-51q-51 184 -209 298t-361 114q-180 0 -329.5 -90.5
t-235.5 -247.5t-86 -346q0 -193 86 -354t235.5 -253.5t329.5 -92.5q210 0 369 118.5t205 311.5z" />
    <glyph glyph-name="ccircumflex" unicode="&#x109;" horiz-adv-x="1150" 
d="M608 1360l-159 -223h-48l177 266h61l174 -266h-47zM610 25q137 0 248.5 75t138.5 195h52q-29 -139 -155.5 -227t-283.5 -88q-139 0 -256 67.5t-184.5 186t-67.5 260.5t67.5 261t184.5 187t256 68q155 0 281 -88t158 -220h-52q-29 114 -139.5 188.5t-247.5 74.5
q-193 0 -325.5 -136.5t-132.5 -334.5q0 -197 132.5 -333t325.5 -136z" />
    <glyph glyph-name="Cdotaccent" unicode="&#x10a;" horiz-adv-x="1570" 
d="M840 1720q22 0 40.5 -17t18.5 -38q0 -25 -18 -42t-41 -17q-25 0 -42.5 16.5t-17.5 42.5q0 22 17.5 38.5t42.5 16.5zM823 -20q-193 0 -353.5 98.5t-253.5 269.5t-93 377q0 201 93 368.5t253.5 264t353.5 96.5q226 0 398 -126.5t223 -330.5h-51q-51 184 -209 298t-361 114
q-180 0 -329.5 -90.5t-235.5 -247.5t-86 -346q0 -193 86 -354t235.5 -253.5t329.5 -92.5q210 0 369 118.5t205 311.5h51q-51 -213 -224 -344t-401 -131z" />
    <glyph glyph-name="cdotaccent" unicode="&#x10b;" horiz-adv-x="1150" 
d="M608 1382q22 0 41 -17t19 -38q0 -25 -18.5 -42t-41.5 -17q-25 0 -42 16.5t-17 42.5q0 22 17.5 38.5t41.5 16.5zM610 -20q-139 0 -256 67.5t-184.5 186t-67.5 260.5t67.5 261t184.5 187t256 68q155 0 281 -88t158 -220h-52q-29 114 -139.5 188.5t-247.5 74.5
q-193 0 -325.5 -136.5t-132.5 -334.5q0 -197 132.5 -333t325.5 -136q137 0 248.5 75t138.5 195h52q-29 -139 -155.5 -227t-283.5 -88z" />
    <glyph glyph-name="Ccaron" unicode="&#x10c;" horiz-adv-x="1570" 
d="M870 1561h-61l-176 266h47l160 -223l157 223h47zM1397 455h51q-51 -213 -224 -344t-401 -131q-193 0 -353.5 98.5t-253.5 269.5t-93 377q0 201 93 368.5t253.5 264t353.5 96.5q226 0 398 -126.5t223 -330.5h-51q-51 184 -209 298t-361 114q-180 0 -329.5 -90.5
t-235.5 -247.5t-86 -346q0 -193 86 -354t235.5 -253.5t329.5 -92.5q210 0 369 118.5t205 311.5z" />
    <glyph glyph-name="ccaron" unicode="&#x10d;" horiz-adv-x="1150" 
d="M639 1116h-61l-177 266h48l159 -223l158 223h47zM610 25q137 0 248.5 75t138.5 195h52q-29 -139 -155.5 -227t-283.5 -88q-139 0 -256 67.5t-184.5 186t-67.5 260.5t67.5 261t184.5 187t256 68q155 0 281 -88t158 -220h-52q-29 114 -139.5 188.5t-247.5 74.5
q-193 0 -325.5 -136.5t-132.5 -334.5q0 -197 132.5 -333t325.5 -136z" />
    <glyph glyph-name="Dcaron" unicode="&#x10e;" horiz-adv-x="1421" 
d="M680 1561h-62l-176 266h47l160 -223l158 223h47zM610 1434q143 0 270.5 -53.5t219 -146.5t145 -226t53.5 -285q0 -151 -53.5 -285.5t-145 -230.5t-219 -151.5t-270.5 -55.5h-411v1434h411zM610 45q134 0 252.5 52t203 141.5t134 215.5t49.5 269t-49 267.5t-133.5 211.5
t-203 137t-253.5 50h-362v-1344h362z" />
    <glyph glyph-name="dcaron" unicode="&#x10f;" horiz-adv-x="1210" 
d="M1196 1524h55l-59 -408h-41zM1006 807v627h49v-1434h-49v180q-50 -84 -161 -142t-227 -58q-222 0 -369 147t-147 369q0 221 147.5 367.5t368.5 146.5q119 0 230.5 -59t157.5 -144zM618 25q115 0 225.5 62.5t162.5 158.5v495q-51 98 -161.5 161t-226.5 63
q-200 0 -333 -133.5t-133 -335.5t133 -336.5t333 -134.5z" />
    <glyph glyph-name="Dcroat" unicode="&#x110;" horiz-adv-x="1421" 
d="M610 1434q143 0 270.5 -53.5t219 -146.5t145 -226t53.5 -285q0 -151 -53.5 -285.5t-145 -230.5t-219 -151.5t-270.5 -55.5h-411v700h-256v45h256v689h411zM610 45q134 0 252.5 52t203 141.5t134 215.5t49.5 269t-49 267.5t-133.5 211.5t-203 137t-253.5 50h-362v-644h260
v-45h-260v-655h362z" />
    <glyph glyph-name="dcroat" unicode="&#x111;" horiz-adv-x="1228" 
d="M1333 1282v-45h-278v-1237h-49v180q-50 -84 -161 -142t-227 -58q-222 0 -369 147t-147 369q0 221 147.5 367.5t368.5 146.5q119 0 230.5 -59t157.5 -144v430h-238v45h238v152h49v-152h278zM618 25q115 0 225.5 62.5t162.5 158.5v495q-51 98 -161.5 161t-226.5 63
q-200 0 -333 -133.5t-133 -335.5t133 -336.5t333 -134.5z" />
    <glyph glyph-name="Emacron" unicode="&#x112;" horiz-adv-x="1085" 
d="M242 1599v46h655v-46h-655zM199 1434h747v-45h-698v-580h622v-45h-622v-719h698v-45h-747v1434z" />
    <glyph glyph-name="emacron" unicode="&#x113;" horiz-adv-x="1161" 
d="M918 1200v-45h-656v45h656zM1059 526h-907v-26q0 -204 126 -339.5t318 -135.5q154 0 268 74.5t140 197.5h49q-30 -143 -158 -230t-299 -87q-212 0 -353 148t-141 372q0 140 66 257.5t179.5 185t248.5 67.5q198 0 330.5 -135.5t132.5 -335.5v-13zM596 965
q-169 0 -292 -112t-148 -282h854q-8 168 -126 281t-288 113z" />
    <glyph glyph-name="Ebreve" unicode="&#x114;" horiz-adv-x="1085" 
d="M842 1851q-1 -127 -78.5 -208.5t-194.5 -81.5q-116 0 -192.5 81.5t-79.5 208.5h45q3 -108 67 -177.5t160 -69.5q97 0 162 69.5t66 177.5h45zM199 1434h747v-45h-698v-580h622v-45h-622v-719h698v-45h-747v1434z" />
    <glyph glyph-name="ebreve" unicode="&#x115;" horiz-adv-x="1161" 
d="M590 1116q-116 0 -193 82t-80 209h45q3 -108 67.5 -178t160.5 -70q97 0 161.5 70t65.5 178h45q-1 -127 -78 -209t-194 -82zM1059 526h-907v-26q0 -204 126 -339.5t318 -135.5q154 0 268 74.5t140 197.5h49q-30 -143 -158 -230t-299 -87q-212 0 -353 148t-141 372
q0 140 66 257.5t179.5 185t248.5 67.5q198 0 330.5 -135.5t132.5 -335.5v-13zM596 965q-169 0 -292 -112t-148 -282h854q-8 168 -126 281t-288 113z" />
    <glyph glyph-name="Edotaccent" unicode="&#x116;" horiz-adv-x="1085" 
d="M569 1720q22 0 41 -17t19 -38q0 -25 -18.5 -42t-41.5 -17q-25 0 -42 16.5t-17 42.5q0 22 17.5 38.5t41.5 16.5zM199 1434h747v-45h-698v-580h622v-45h-622v-719h698v-45h-747v1434z" />
    <glyph glyph-name="edotaccent" unicode="&#x117;" horiz-adv-x="1161" 
d="M590 1268q-25 0 -42.5 16.5t-17.5 42.5q0 22 17.5 38.5t42.5 16.5q22 0 40.5 -17t18.5 -38q0 -25 -18 -42t-41 -17zM1059 526h-907v-26q0 -204 126 -339.5t318 -135.5q154 0 268 74.5t140 197.5h49q-30 -143 -158 -230t-299 -87q-212 0 -353 148t-141 372q0 140 66 257.5
t179.5 185t248.5 67.5q198 0 330.5 -135.5t132.5 -335.5v-13zM596 965q-169 0 -292 -112t-148 -282h854q-8 168 -126 281t-288 113z" />
    <glyph glyph-name="Eogonek" unicode="&#x118;" horiz-adv-x="1085" 
d="M946 1389h-698v-580h622v-45h-622v-719h698v-45h-180q-99 -36 -157 -101.5t-58 -146.5q0 -52 33.5 -85.5t91.5 -33.5q79 0 129 33l18 -39q-69 -37 -147 -37t-124 45.5t-46 116.5q0 146 168 248h-475v1434h747v-45z" />
    <glyph glyph-name="eogonek" unicode="&#x119;" horiz-adv-x="1161" 
d="M1059 526h-907v-26q0 -204 126 -339.5t318 -135.5q154 0 268 74.5t140 197.5h49q-27 -122 -125 -205v-6q-85 -71 -133 -120t-78.5 -104t-30.5 -110q0 -52 33 -85.5t92 -33.5q79 0 129 33l18 -39q-69 -37 -147 -37t-124 45.5t-46 116.5q0 64 37.5 126.5t114.5 135.5
q-87 -34 -197 -34q-212 0 -353 148t-141 372q0 140 66 257.5t179.5 185t248.5 67.5q198 0 330.5 -135.5t132.5 -335.5v-13zM596 965q-169 0 -292 -112t-148 -282h854q-8 168 -126 281t-288 113z" />
    <glyph glyph-name="Ecaron" unicode="&#x11a;" horiz-adv-x="1085" 
d="M600 1561h-61l-177 266h48l159 -223l158 223h47zM946 1389h-698v-580h622v-45h-622v-719h698v-45h-747v1434h747v-45z" />
    <glyph glyph-name="ecaron" unicode="&#x11b;" horiz-adv-x="1161" 
d="M621 1116h-62l-176 266h47l160 -223l158 223h47zM1059 526h-907v-26q0 -204 126 -339.5t318 -135.5q154 0 268 74.5t140 197.5h49q-30 -143 -158 -230t-299 -87q-212 0 -353 148t-141 372q0 140 66 257.5t179.5 185t248.5 67.5q198 0 330.5 -135.5t132.5 -335.5v-13z
M596 965q-169 0 -292 -112t-148 -282h854q-8 168 -126 281t-288 113z" />
    <glyph glyph-name="Gcircumflex" unicode="&#x11c;" horiz-adv-x="1619" 
d="M838 1804l-160 -223h-47l176 266h61l174 -266h-47zM913 672v45h545v-424q-79 -145 -246 -229t-374 -84q-203 0 -367 96t-256 266t-92 381t92.5 378t255.5 260t367 93q226 0 397.5 -126.5t222.5 -330.5h-51q-51 184 -208.5 298t-360.5 114q-142 0 -266 -51.5t-211.5 -142
t-138 -218t-50.5 -274.5q0 -197 85.5 -356.5t238 -250.5t342.5 -91q186 0 339.5 74.5t231.5 203.5v369h-496z" />
    <glyph glyph-name="gcircumflex" unicode="&#x11d;" horiz-adv-x="1228" 
d="M664 1360l-160 -223h-47l176 266h61l174 -266h-47zM1006 989h49v-969q0 -202 -129 -326t-338 -124q-184 0 -309 94t-125 240h47q0 -127 111 -208t276 -81q188 0 303 111t115 294v160q-50 -84 -161 -142t-227 -58q-222 0 -369 147t-147 369q0 221 147.5 367.5t368.5 146.5
q119 0 230.5 -59t157.5 -144v182zM618 25q115 0 225.5 62.5t162.5 158.5v495q-51 98 -161.5 161t-226.5 63q-200 0 -333 -133.5t-133 -335.5t133 -336.5t333 -134.5z" />
    <glyph glyph-name="Gbreve" unicode="&#x11e;" horiz-adv-x="1619" 
d="M838 1561q-116 0 -193 81.5t-80 208.5h45q3 -108 67.5 -177.5t160.5 -69.5q97 0 161.5 69.5t65.5 177.5h45q-1 -127 -78 -208.5t-194 -81.5zM913 672v45h545v-424q-79 -145 -246 -229t-374 -84q-203 0 -367 96t-256 266t-92 381t92.5 378t255.5 260t367 93
q226 0 397.5 -126.5t222.5 -330.5h-51q-51 184 -208.5 298t-360.5 114q-142 0 -266 -51.5t-211.5 -142t-138 -218t-50.5 -274.5q0 -197 85.5 -356.5t238 -250.5t342.5 -91q186 0 339.5 74.5t231.5 203.5v369h-496z" />
    <glyph glyph-name="gbreve" unicode="&#x11f;" horiz-adv-x="1228" 
d="M664 1116q-116 0 -193 82t-80 209h45q3 -108 67.5 -178t160.5 -70q97 0 161.5 70t65.5 178h45q-1 -127 -78 -209t-194 -82zM1006 989h49v-969q0 -202 -129 -326t-338 -124q-184 0 -309 94t-125 240h47q0 -127 111 -208t276 -81q188 0 303 111t115 294v160
q-50 -84 -161 -142t-227 -58q-222 0 -369 147t-147 369q0 221 147.5 367.5t368.5 146.5q119 0 230.5 -59t157.5 -144v182zM618 25q115 0 225.5 62.5t162.5 158.5v495q-51 98 -161.5 161t-226.5 63q-200 0 -333 -133.5t-133 -335.5t133 -336.5t333 -134.5z" />
    <glyph glyph-name="Gdotaccent" unicode="&#x120;" horiz-adv-x="1619" 
d="M838 1606q-25 0 -42.5 16.5t-17.5 42.5q0 22 17.5 38.5t42.5 16.5q22 0 40.5 -17t18.5 -38q0 -25 -18 -42t-41 -17zM913 672v45h545v-424q-79 -145 -246 -229t-374 -84q-203 0 -367 96t-256 266t-92 381t92.5 378t255.5 260t367 93q226 0 397.5 -126.5t222.5 -330.5h-51
q-51 184 -208.5 298t-360.5 114q-142 0 -266 -51.5t-211.5 -142t-138 -218t-50.5 -274.5q0 -197 85.5 -356.5t238 -250.5t342.5 -91q186 0 339.5 74.5t231.5 203.5v369h-496z" />
    <glyph glyph-name="gdotaccent" unicode="&#x121;" horiz-adv-x="1228" 
d="M664 1268q-25 0 -42.5 16.5t-17.5 42.5q0 22 17.5 38.5t42.5 16.5q22 0 40.5 -17t18.5 -38q0 -25 -18 -42t-41 -17zM1006 989h49v-969q0 -202 -129 -326t-338 -124q-184 0 -309 94t-125 240h47q0 -127 111 -208t276 -81q188 0 303 111t115 294v160q-50 -84 -161 -142
t-227 -58q-222 0 -369 147t-147 369q0 221 147.5 367.5t368.5 146.5q119 0 230.5 -59t157.5 -144v182zM618 25q115 0 225.5 62.5t162.5 158.5v495q-51 98 -161.5 161t-226.5 63q-200 0 -333 -133.5t-133 -335.5t133 -336.5t333 -134.5z" />
    <glyph glyph-name="uni0122" unicode="&#x122;" horiz-adv-x="1619" 
d="M913 672v45h545v-424q-79 -145 -246 -229t-374 -84q-203 0 -367 96t-256 266t-92 381t92.5 378t255.5 260t367 93q226 0 397.5 -126.5t222.5 -330.5h-51q-51 184 -208.5 298t-360.5 114q-142 0 -266 -51.5t-211.5 -142t-138 -218t-50.5 -274.5q0 -197 85.5 -356.5
t238 -250.5t342.5 -91q186 0 339.5 74.5t231.5 203.5v369h-496zM635 -430l160 266h73l-182 -266h-51z" />
    <glyph glyph-name="uni0123" unicode="&#x123;" horiz-adv-x="1228" 
d="M844 1382l-160 -266h-74l183 266h51zM1006 989h49v-969q0 -202 -129 -326t-338 -124q-184 0 -309 94t-125 240h47q0 -127 111 -208t276 -81q188 0 303 111t115 294v160q-50 -84 -161 -142t-227 -58q-222 0 -369 147t-147 369q0 221 147.5 367.5t368.5 146.5
q119 0 230.5 -59t157.5 -144v182zM618 25q115 0 225.5 62.5t162.5 158.5v495q-51 98 -161.5 161t-226.5 63q-200 0 -333 -133.5t-133 -335.5t133 -336.5t333 -134.5z" />
    <glyph glyph-name="Hcircumflex" unicode="&#x124;" horiz-adv-x="1441" 
d="M721 1804l-160 -223h-47l176 266h62l174 -266h-47zM1194 1434h49v-1434h-49v725h-946v-725h-49v1434h49v-664h946v664z" />
    <glyph glyph-name="hcircumflex" unicode="&#x125;" horiz-adv-x="1208" 
d="M356 1581l-157 223l-160 -223h-47l176 266h61l174 -266h-47zM625 1010q182 0 295.5 -120t113.5 -312v-578h-49v578q0 172 -100 279.5t-260 107.5q-126 0 -235.5 -60.5t-166.5 -161.5v-743h-49v1434h49v-627q54 92 164 147.5t238 55.5z" />
    <glyph glyph-name="Hbar" unicode="&#x126;" horiz-adv-x="1441" 
d="M1389 1143v-45h-146v-1098h-49v725h-946v-725h-49v1098h-148v45h148v291h49v-291h946v291h49v-291h146zM1194 770v328h-946v-328h946z" />
    <glyph glyph-name="hbar" unicode="&#x127;" horiz-adv-x="1208" 
d="M625 1010q182 0 295.5 -120t113.5 -312v-578h-49v578q0 172 -100 279.5t-260 107.5q-126 0 -235.5 -60.5t-166.5 -161.5v-743h-49v1237h-260v45h260v152h49v-152h256v-45h-256v-430q54 92 164 147.5t238 55.5z" />
    <glyph glyph-name="Itilde" unicode="&#x128;" horiz-adv-x="446" 
d="M-70 1593q3 75 45.5 121.5t104.5 46.5q36 0 77 -20t72.5 -43.5t69 -43.5t66.5 -20q46 0 75.5 35.5t28.5 91.5l45 -4q-3 -76 -45 -122t-104 -46q-36 0 -77 20t-71 43.5t-68 43.5t-69 20q-46 0 -76 -35.5t-29 -91.5zM199 1434h49v-1434h-49v1434z" />
    <glyph glyph-name="itilde" unicode="&#x129;" horiz-adv-x="397" 
d="M-92 1149q3 76 45 122t104 46q36 0 77 -20t72.5 -43.5t69 -43.5t66.5 -20q46 0 75.5 35.5t28.5 91.5l46 -4q-3 -75 -45.5 -121.5t-104.5 -46.5q-36 0 -77 20t-71 43.5t-68 43.5t-69 20q-46 0 -75.5 -35.5t-28.5 -91.5zM174 989h49v-989h-49v989z" />
    <glyph glyph-name="Imacron" unicode="&#x12a;" horiz-adv-x="446" 
d="M-104 1599v46h655v-46h-655zM199 1434h49v-1434h-49v1434z" />
    <glyph glyph-name="imacron" unicode="&#x12b;" horiz-adv-x="397" 
d="M-127 1155v45h655v-45h-655zM174 989h49v-989h-49v989z" />
    <glyph glyph-name="Ibreve" unicode="&#x12c;" horiz-adv-x="446" 
d="M496 1851q-1 -127 -78.5 -208.5t-194.5 -81.5q-116 0 -192.5 81.5t-79.5 208.5h45q3 -108 67 -177.5t160 -69.5q97 0 162 69.5t66 177.5h45zM199 1434h49v-1434h-49v1434z" />
    <glyph glyph-name="ibreve" unicode="&#x12d;" horiz-adv-x="397" 
d="M473 1407q-1 -127 -78 -209t-194 -82q-116 0 -193 82t-80 209h45q3 -108 67.5 -178t160.5 -70q97 0 161.5 70t65.5 178h45zM174 989h49v-989h-49v989z" />
    <glyph glyph-name="Iogonek" unicode="&#x12e;" horiz-adv-x="446" 
d="M285 -334l18 -39q-69 -37 -147 -37t-124 45.5t-46 116.5q0 84 56 154.5t157 118.5v1409h49v-1434h-2q-99 -36 -157 -101.5t-58 -146.5q0 -52 33.5 -85.5t91.5 -33.5q79 0 129 33z" />
    <glyph glyph-name="iogonek" unicode="&#x12f;" horiz-adv-x="397" 
d="M201 1268q-25 0 -42.5 16.5t-17.5 42.5q0 22 17.5 38.5t42.5 16.5q22 0 40.5 -17t18.5 -38q0 -25 -18 -42t-41 -17zM262 -334l19 -39q-69 -37 -148 -37q-78 0 -124 45.5t-46 116.5q0 83 56 153t155 118v966h49v-989q-99 -36 -157 -101.5t-58 -146.5q0 -52 33 -85.5
t92 -33.5q79 0 129 33z" />
    <glyph glyph-name="Idotaccent" unicode="&#x130;" horiz-adv-x="446" 
d="M223 1720q22 0 41 -17t19 -38q0 -25 -18.5 -42t-41.5 -17q-25 0 -42 16.5t-17 42.5q0 22 17.5 38.5t41.5 16.5zM199 1434h49v-1434h-49v1434z" />
    <glyph glyph-name="dotlessi" unicode="&#x131;" horiz-adv-x="397" 
d="M174 989h49v-989h-49v989z" />
    <glyph glyph-name="IJ" unicode="&#x132;" horiz-adv-x="1015" 
d="M199 1434h49v-1434h-49v1434zM487 25h27q134 0 199 90t65 274v1045h49v-1045q0 -207 -77.5 -308t-235.5 -101h-27v45z" />
    <glyph glyph-name="ij" unicode="&#x133;" horiz-adv-x="794" 
d="M201 1382q22 0 40.5 -17t18.5 -38q0 -25 -18 -42t-41 -17q-25 0 -42.5 16.5t-17.5 42.5q0 22 17.5 38.5t42.5 16.5zM596 1382q22 0 40.5 -17t18.5 -38q0 -25 -18 -42t-41 -17q-25 0 -42 16.5t-17 42.5q0 22 17.5 38.5t41.5 16.5zM174 989h49v-989h-49v989zM399 -381h19
q79 0 116 62.5t37 197.5v1110h50v-1110q0 -161 -47 -235t-148 -74h-27v49z" />
    <glyph glyph-name="Jcircumflex" unicode="&#x134;" horiz-adv-x="569" 
d="M393 1847l174 -266h-47l-158 223l-159 -223h-47l176 266h61zM332 389v1045h49v-1045q0 -207 -77.5 -308t-235.5 -101h-27v45h27q134 0 199 90t65 274z" />
    <glyph glyph-name="jcircumflex" unicode="&#x135;" horiz-adv-x="397" 
d="M229 1403l174 -266h-47l-157 223l-160 -223h-47l176 266h61zM174 -121v1110h49v-1110q0 -161 -46.5 -235t-147.5 -74h-27v49h18q80 0 117 62.5t37 197.5z" />
    <glyph glyph-name="uni0136" unicode="&#x136;" horiz-adv-x="1146" 
d="M301 748l811 -748h-74l-792 737v-737h-47v1434h47v-676l725 676h69zM451 -430l159 266h74l-182 -266h-51z" />
    <glyph glyph-name="uni0137" unicode="&#x137;" horiz-adv-x="952" 
d="M281 520l620 -520h-74l-604 508v-508h-49v1434h49v-902l576 457h71zM342 -430l160 266h73l-182 -266h-51z" />
    <glyph glyph-name="kgreenlandic" unicode="&#x138;" horiz-adv-x="956" 
d="M905 0h-74l-608 512v-512h-49v989h49v-461l580 461h71l-589 -469z" />
    <glyph glyph-name="Lacute" unicode="&#x139;" horiz-adv-x="1114" 
d="M410 1827l-183 -266h-51l160 266h74zM199 1434h49v-1389h774v-45h-823v1434z" />
    <glyph glyph-name="lacute" unicode="&#x13a;" horiz-adv-x="397" 
d="M373 1827l-183 -266h-51l160 266h74zM223 1434v-1434h-49v1434h49z" />
    <glyph glyph-name="uni013B" unicode="&#x13b;" horiz-adv-x="1114" 
d="M199 1434h49v-1389h774v-45h-823v1434zM692 -164l-182 -266h-51l159 266h74z" />
    <glyph glyph-name="uni013C" unicode="&#x13c;" horiz-adv-x="397" 
d="M223 1434v-1434h-49v1434h49zM281 -164l-183 -266h-51l160 266h74z" />
    <glyph glyph-name="Lcaron" unicode="&#x13d;" horiz-adv-x="1114" 
d="M604 1524l-59 -408h-41l45 408h55zM199 1434h49v-1389h774v-45h-823v1434z" />
    <glyph glyph-name="lcaron" unicode="&#x13e;" horiz-adv-x="397" 
d="M438 1524l-59 -408h-41l45 408h55zM223 1434v-1434h-49v1434h49z" />
    <glyph glyph-name="Ldot" unicode="&#x13f;" horiz-adv-x="1103" 
d="M199 1434h49v-1389h774v-45h-823v1434zM705 659q-31 0 -51.5 20.5t-20.5 51.5t20.5 52.5t51.5 21.5q30 0 50.5 -21.5t20.5 -52.5t-20 -51.5t-51 -20.5z" />
    <glyph glyph-name="ldot" unicode="&#x140;" horiz-adv-x="483" 
d="M236 1434v-1434h-50v1434h50zM442 618q-31 0 -51 20.5t-20 51.5t20.5 52.5t50.5 21.5q31 0 51.5 -21.5t20.5 -52.5t-20.5 -51.5t-51.5 -20.5z" />
    <glyph glyph-name="Lslash" unicode="&#x141;" horiz-adv-x="1114" 
d="M248 45h774v-45h-823v598l-131 -61v47l131 61v789h49v-766l491 229v-45l-491 -231v-576z" />
    <glyph glyph-name="lslash" unicode="&#x142;" horiz-adv-x="397" 
d="M391 979v-47l-168 -76v-856h-49v834l-166 -76v45l166 76v555h49v-533z" />
    <glyph glyph-name="Nacute" unicode="&#x143;" horiz-adv-x="1472" 
d="M928 1827l-183 -266h-51l160 266h74zM199 1434h65l961 -1375v1375h49v-1434h-66l-960 1374v-1374h-49v1434z" />
    <glyph glyph-name="nacute" unicode="&#x144;" horiz-adv-x="1208" 
d="M780 1382l-182 -266h-51l160 266h73zM625 1010q182 0 295.5 -120t113.5 -312v-578h-49v578q0 172 -100 279.5t-260 107.5q-126 0 -235.5 -60.5t-166.5 -161.5v-743h-49v989h49v-182q54 92 164 147.5t238 55.5z" />
    <glyph glyph-name="uni0145" unicode="&#x145;" horiz-adv-x="1472" 
d="M199 1434h65l961 -1375v1375h49v-1434h-66l-960 1374v-1374h-49v1434zM819 -164l-182 -266h-51l159 266h74z" />
    <glyph glyph-name="uni0146" unicode="&#x146;" horiz-adv-x="1208" 
d="M625 1010q182 0 295.5 -120t113.5 -312v-578h-49v578q0 172 -100 279.5t-260 107.5q-126 0 -235.5 -60.5t-166.5 -161.5v-743h-49v989h49v-182q54 92 164 147.5t238 55.5zM442 -430l160 266h74l-182 -266h-52z" />
    <glyph glyph-name="Ncaron" unicode="&#x147;" horiz-adv-x="1472" 
d="M772 1561h-61l-176 266h47l159 -223l158 223h47zM1225 1434h49v-1434h-66l-960 1374v-1374h-49v1434h65l961 -1375v1375z" />
    <glyph glyph-name="ncaron" unicode="&#x148;" horiz-adv-x="1208" 
d="M625 1116h-62l-176 266h47l160 -223l158 223h47zM625 1010q182 0 295.5 -120t113.5 -312v-578h-49v578q0 172 -100 279.5t-260 107.5q-126 0 -235.5 -60.5t-166.5 -161.5v-743h-49v989h49v-182q54 92 164 147.5t238 55.5z" />
    <glyph glyph-name="napostrophe" unicode="&#x149;" horiz-adv-x="1181" 
d="M242 1257q-28 5 -45 25.5t-17 50.5q0 32 21 53t53 21t53 -21t21 -53q0 -20 -15 -49l-86 -168h-34zM625 1010q182 0 295.5 -120t113.5 -312v-578h-49v578q0 172 -100 279.5t-260 107.5q-126 0 -235.5 -60.5t-166.5 -161.5v-743h-49v989h49v-182q54 92 164 147.5t238 55.5z
" />
    <glyph glyph-name="Eng" unicode="&#x14a;" horiz-adv-x="1472" 
d="M1225 1434h49v-1457q0 -207 -77.5 -308t-235.5 -101h-27v45h27q133 0 198.5 89.5t65.5 272.5l-977 1399v-1374h-49v1434h65l961 -1375v1375z" />
    <glyph glyph-name="eng" unicode="&#x14b;" horiz-adv-x="1208" 
d="M625 1010q182 0 295.5 -120t113.5 -312v-699q0 -161 -46.5 -235t-147.5 -74q-25 0 -39 2l4 49q10 -2 26 -2q80 0 117 62.5t37 197.5v699q0 172 -100 279.5t-260 107.5q-126 0 -235.5 -60.5t-166.5 -161.5v-743h-49v989h49v-182q54 92 164 147.5t238 55.5z" />
    <glyph glyph-name="Omacron" unicode="&#x14c;" horiz-adv-x="1677" 
d="M510 1599v46h655v-46h-655zM838 1454q148 0 280.5 -57t228 -154t151.5 -232.5t56 -285.5q0 -154 -56 -292.5t-151.5 -237.5t-228 -157t-280.5 -58q-197 0 -361 98.5t-259 269.5t-95 377q0 201 95 368.5t259.5 264t360.5 96.5zM838 1409q-138 0 -261.5 -53.5t-212 -144.5
t-140.5 -218t-52 -268q0 -193 88 -354t241 -253.5t337 -92.5q185 0 338 92.5t241 253t88 354.5q0 189 -88 346t-241 247.5t-338 90.5z" />
    <glyph glyph-name="omacron" unicode="&#x14d;" horiz-adv-x="1222" 
d="M285 1155v45h655v-45h-655zM610 -20q-139 0 -256 67.5t-184.5 186t-67.5 260.5t67.5 261t184.5 187t256 68t256.5 -68t185.5 -187t68 -261q0 -106 -40 -201.5t-108.5 -164t-163 -108.5t-198.5 -40zM610 25q192 0 326.5 136.5t134.5 332.5q0 198 -134.5 334.5
t-326.5 136.5q-193 0 -325.5 -136.5t-132.5 -334.5q0 -197 132.5 -333t325.5 -136z" />
    <glyph glyph-name="Obreve" unicode="&#x14e;" horiz-adv-x="1677" 
d="M1110 1851q-1 -127 -78 -208.5t-194 -81.5q-116 0 -193 81.5t-80 208.5h45q3 -108 67.5 -177.5t160.5 -69.5q97 0 161.5 69.5t65.5 177.5h45zM838 1454q148 0 280.5 -57t228 -154t151.5 -232.5t56 -285.5q0 -154 -56 -292.5t-151.5 -237.5t-228 -157t-280.5 -58
q-197 0 -361 98.5t-259 269.5t-95 377q0 201 95 368.5t259.5 264t360.5 96.5zM838 1409q-138 0 -261.5 -53.5t-212 -144.5t-140.5 -218t-52 -268q0 -193 88 -354t241 -253.5t337 -92.5q185 0 338 92.5t241 253t88 354.5q0 189 -88 346t-241 247.5t-338 90.5z" />
    <glyph glyph-name="obreve" unicode="&#x14f;" horiz-adv-x="1222" 
d="M885 1407q-1 -127 -78.5 -209t-194.5 -82q-116 0 -192.5 82t-79.5 209h45q3 -108 67 -178t160 -70q97 0 162 70t66 178h45zM610 -20q-139 0 -256 67.5t-184.5 186t-67.5 260.5t67.5 261t184.5 187t256 68t256.5 -68t185.5 -187t68 -261q0 -106 -40 -201.5t-108.5 -164
t-163 -108.5t-198.5 -40zM610 25q192 0 326.5 136.5t134.5 332.5q0 198 -134.5 334.5t-326.5 136.5q-193 0 -325.5 -136.5t-132.5 -334.5q0 -197 132.5 -333t325.5 -136z" />
    <glyph glyph-name="Ohungarumlaut" unicode="&#x150;" horiz-adv-x="1677" 
d="M729 1561l152 286h-54l-151 -286h53zM961 1561l149 286h-53l-150 -286h54zM838 1454q148 0 280.5 -57t228 -154t151.5 -232.5t56 -285.5q0 -154 -56 -292.5t-151.5 -237.5t-228 -157t-280.5 -58q-197 0 -361 98.5t-259 269.5t-95 377q0 201 95 368.5t259.5 264
t360.5 96.5zM838 1409q-138 0 -261.5 -53.5t-212 -144.5t-140.5 -218t-52 -268q0 -193 88 -354t241 -253.5t337 -92.5q185 0 338 92.5t241 253t88 354.5q0 189 -88 346t-241 247.5t-338 90.5z" />
    <glyph glyph-name="ohungarumlaut" unicode="&#x151;" horiz-adv-x="1222" 
d="M504 1116l151 287h-53l-151 -287h53zM735 1116l150 287h-54l-149 -287h53zM610 -20q-139 0 -256 67.5t-184.5 186t-67.5 260.5t67.5 261t184.5 187t256 68t256.5 -68t185.5 -187t68 -261q0 -106 -40 -201.5t-108.5 -164t-163 -108.5t-198.5 -40zM610 25
q192 0 326.5 136.5t134.5 332.5q0 198 -134.5 334.5t-326.5 136.5q-193 0 -325.5 -136.5t-132.5 -334.5q0 -197 132.5 -333t325.5 -136z" />
    <glyph glyph-name="OE" unicode="&#x152;" horiz-adv-x="2060" 
d="M1921 1389h-698v-580h622v-45h-622v-719h698v-45h-1110q-143 0 -270.5 55.5t-219 151.5t-145 230.5t-53.5 285.5q0 152 53.5 285t145 226t219 146.5t270.5 53.5h1110v-45zM1174 45v1344h-363q-135 0 -253.5 -50t-203 -137t-133.5 -211.5t-49 -267.5t49.5 -269t134 -215.5
t203 -141.5t252.5 -52h363z" />
    <glyph glyph-name="oe" unicode="&#x153;" horiz-adv-x="2134" 
d="M2028 526h-908v-26q0 -204 126.5 -339.5t318.5 -135.5q154 0 267.5 74.5t139.5 197.5h49q-30 -143 -157.5 -230t-298.5 -87q-169 0 -296 96.5t-173 255.5q-52 -157 -184.5 -254.5t-301.5 -97.5q-139 0 -256 67.5t-184.5 186t-67.5 260.5t67.5 261t184.5 187t256 68
q169 0 301.5 -98t182.5 -255q48 157 177.5 255t293.5 98q198 0 330.5 -135.5t132.5 -335.5v-13zM610 25q192 0 326.5 136.5t134.5 332.5q0 198 -134.5 334.5t-326.5 136.5q-193 0 -325.5 -136.5t-132.5 -334.5q0 -197 132.5 -333t325.5 -136zM1565 965q-169 0 -292.5 -112
t-148.5 -282h854q-8 168 -125.5 281t-287.5 113z" />
    <glyph glyph-name="Racute" unicode="&#x154;" 
d="M768 1827l-182 -266h-51l159 266h74zM1135 0h-60l-461 664h-366v-664h-49v1434h495q177 0 290.5 -107.5t113.5 -273.5q0 -170 -113.5 -279.5t-290.5 -109.5h-24zM246 1389l2 -680h446q156 0 256.5 97t100.5 247q0 147 -100.5 241.5t-256.5 94.5h-448z" />
    <glyph glyph-name="racute" unicode="&#x155;" horiz-adv-x="667" 
d="M582 1382l-183 -266h-51l160 266h74zM516 1010q49 0 92 -15v-47q-49 17 -92 17q-78 0 -157 -60t-136 -162v-743h-49v989h49v-182q47 92 127.5 147.5t165.5 55.5z" />
    <glyph glyph-name="uni0156" unicode="&#x156;" 
d="M670 664l465 -664h-60l-461 664h-366v-664h-49v1434h495q177 0 290.5 -107.5t113.5 -273.5q0 -170 -113.5 -279.5t-290.5 -109.5h-24zM246 1389l2 -680h446q156 0 256.5 97t100.5 247q0 147 -100.5 241.5t-256.5 94.5h-448zM471 -430l160 266h74l-183 -266h-51z" />
    <glyph glyph-name="uni0157" unicode="&#x157;" horiz-adv-x="667" 
d="M516 1010q49 0 92 -15v-47q-49 17 -92 17q-78 0 -157 -60t-136 -162v-743h-49v989h49v-182q47 92 127.5 147.5t165.5 55.5zM23 -430l159 266h74l-182 -266h-51z" />
    <glyph glyph-name="Rcaron" unicode="&#x158;" 
d="M612 1561h-61l-176 266h47l160 -223l157 223h47zM1135 0h-60l-461 664h-366v-664h-49v1434h495q177 0 290.5 -107.5t113.5 -273.5q0 -170 -113.5 -279.5t-290.5 -109.5h-24zM246 1389l2 -680h446q156 0 256.5 97t100.5 247q0 147 -100.5 241.5t-256.5 94.5h-448z" />
    <glyph glyph-name="rcaron" unicode="&#x159;" horiz-adv-x="667" 
d="M426 1116h-61l-177 266h48l159 -223l158 223h47zM516 1010q49 0 92 -15v-47q-49 17 -92 17q-78 0 -157 -60t-136 -162v-743h-49v989h49v-182q47 92 127.5 147.5t165.5 55.5z" />
    <glyph glyph-name="Sacute" unicode="&#x15a;" 
d="M795 1827l-183 -266h-51l160 266h74zM623 -20q-217 0 -357.5 125.5t-140.5 318.5h47q0 -174 127.5 -286.5t323.5 -112.5q186 0 309 95t123 242q0 84 -31 146.5t-83 99.5t-119.5 63.5t-142.5 44t-149.5 35t-142 44t-119.5 63.5t-83 99.5t-31 146.5q0 153 128 251.5
t326 98.5t324.5 -104.5t126.5 -266.5h-45q-8 142 -121.5 233t-284.5 91q-177 0 -291 -85.5t-114 -217.5q0 -76 31 -131.5t83 -88t119.5 -55.5t142 -40t149.5 -35.5t142.5 -48t119.5 -70.5t83 -110.5t31 -162.5q0 -166 -137 -274t-344 -108z" />
    <glyph glyph-name="sacute" unicode="&#x15b;" horiz-adv-x="907" 
d="M641 1382l-182 -266h-51l159 266h74zM442 -20q-147 0 -245 76.5t-115 205.5h51q13 -107 98 -172t211 -65q132 0 216.5 66.5t84.5 170.5q0 58 -21.5 99.5t-58 65t-84 39.5t-100 26.5l-105 21t-100 28.5t-84 44.5t-58 72.5t-21.5 109q0 106 90 174t231 68
q130 0 224.5 -69.5t111.5 -178.5h-51q-17 89 -97.5 146t-187.5 57q-120 0 -196 -55.5t-76 -141.5q0 -55 21.5 -94.5t58.5 -61.5t84.5 -37t100 -25t104.5 -20.5t99.5 -29t84.5 -46t58.5 -75.5t21.5 -113q0 -126 -98.5 -206t-252.5 -80z" />
    <glyph glyph-name="Scircumflex" unicode="&#x15c;" 
d="M608 1804l-159 -223h-48l177 266h61l174 -266h-47zM203 1104q0 -76 31 -131.5t83 -88t119.5 -55.5t142 -40t149.5 -35.5t142.5 -48t119.5 -70.5t83 -110.5t31 -162.5q0 -166 -137 -274t-344 -108q-217 0 -357.5 125.5t-140.5 318.5h47q0 -174 127.5 -286.5t323.5 -112.5
q186 0 309 95t123 242q0 84 -31 146.5t-83 99.5t-119.5 63.5t-142.5 44t-149.5 35t-142 44t-119.5 63.5t-83 99.5t-31 146.5q0 153 128 251.5t326 98.5t324.5 -104.5t126.5 -266.5h-45q-8 142 -121.5 233t-284.5 91q-177 0 -291 -85.5t-114 -217.5z" />
    <glyph glyph-name="scircumflex" unicode="&#x15d;" horiz-adv-x="907" 
d="M455 1360l-160 -223h-47l176 266h61l174 -266h-47zM160 768q0 -55 21.5 -94.5t58.5 -61.5t84.5 -37t100 -25t104.5 -20.5t99.5 -29t84.5 -46t58.5 -75.5t21.5 -113q0 -126 -98.5 -206t-252.5 -80q-147 0 -245 76.5t-115 205.5h51q13 -107 98 -172t211 -65
q132 0 216.5 66.5t84.5 170.5q0 58 -21.5 99.5t-58 65t-84 39.5t-100 26.5l-105 21t-100 28.5t-84 44.5t-58 72.5t-21.5 109q0 106 90 174t231 68q130 0 224.5 -69.5t111.5 -178.5h-51q-17 89 -97.5 146t-187.5 57q-120 0 -196 -55.5t-76 -141.5z" />
    <glyph glyph-name="Scedilla" unicode="&#x15e;" 
d="M1104 362q0 -155 -120 -260t-308 -120q59 -58 85.5 -118t20 -110.5t-35.5 -91.5t-81 -65t-116 -27l-14 41q106 16 157.5 68.5t36.5 132t-100 168.5h-6q-217 0 -357.5 125.5t-140.5 318.5h47q0 -174 127.5 -286.5t323.5 -112.5q186 0 309 95t123 242q0 84 -31 146.5
t-83 99.5t-119.5 63.5t-142.5 44t-149.5 35t-142 44t-119.5 63.5t-83 99.5t-31 146.5q0 153 128 251.5t326 98.5t324.5 -104.5t126.5 -266.5h-45q-8 142 -121.5 233t-284.5 91q-177 0 -291 -85.5t-114 -217.5q0 -76 31 -131.5t83 -88t119.5 -55.5t142 -40t149.5 -35.5
t142.5 -48t119.5 -70.5t83 -110.5t31 -162.5z" />
    <glyph glyph-name="scedilla" unicode="&#x15f;" horiz-adv-x="907" 
d="M793 266q0 -114 -81 -191t-212 -91q59 -58 85.5 -118.5t20 -111t-35.5 -91.5t-81 -65.5t-116 -27.5l-15 41q106 16 158 68.5t37 132t-100 168.5h-11q-147 0 -245 76.5t-115 205.5h51q13 -107 98 -172t211 -65q132 0 216.5 66.5t84.5 170.5q0 58 -21.5 99.5t-58 65
t-84 39.5t-100 26.5l-105 21t-100 28.5t-84 44.5t-58 72.5t-21.5 109q0 106 90 174t231 68q130 0 224.5 -69.5t111.5 -178.5h-51q-17 89 -97.5 146t-187.5 57q-120 0 -196 -55.5t-76 -141.5q0 -55 21.5 -94.5t58.5 -61.5t84.5 -37t100 -25t104.5 -20.5t99.5 -29t84.5 -46
t58.5 -75.5t21.5 -113z" />
    <glyph glyph-name="Scaron" unicode="&#x160;" 
d="M639 1561h-61l-177 266h48l159 -223l158 223h47zM203 1104q0 -76 31 -131.5t83 -88t119.5 -55.5t142 -40t149.5 -35.5t142.5 -48t119.5 -70.5t83 -110.5t31 -162.5q0 -166 -137 -274t-344 -108q-217 0 -357.5 125.5t-140.5 318.5h47q0 -174 127.5 -286.5t323.5 -112.5
q186 0 309 95t123 242q0 84 -31 146.5t-83 99.5t-119.5 63.5t-142.5 44t-149.5 35t-142 44t-119.5 63.5t-83 99.5t-31 146.5q0 153 128 251.5t326 98.5t324.5 -104.5t126.5 -266.5h-45q-8 142 -121.5 233t-284.5 91q-177 0 -291 -85.5t-114 -217.5z" />
    <glyph glyph-name="scaron" unicode="&#x161;" horiz-adv-x="907" 
d="M485 1116h-61l-176 266h47l160 -223l157 223h47zM160 768q0 -55 21.5 -94.5t58.5 -61.5t84.5 -37t100 -25t104.5 -20.5t99.5 -29t84.5 -46t58.5 -75.5t21.5 -113q0 -126 -98.5 -206t-252.5 -80q-147 0 -245 76.5t-115 205.5h51q13 -107 98 -172t211 -65q132 0 216.5 66.5
t84.5 170.5q0 58 -21.5 99.5t-58 65t-84 39.5t-100 26.5l-105 21t-100 28.5t-84 44.5t-58 72.5t-21.5 109q0 106 90 174t231 68q130 0 224.5 -69.5t111.5 -178.5h-51q-17 89 -97.5 146t-187.5 57q-120 0 -196 -55.5t-76 -141.5z" />
    <glyph glyph-name="uni0162" unicode="&#x162;" horiz-adv-x="1204" 
d="M1133 1389h-506v-1371q74 -60 112 -125.5t36 -120t-29.5 -100t-82 -72.5t-122.5 -30l-15 41q82 12 132.5 48t62.5 87t-18 118t-103 136h-22v1389h-506v45h1061v-45z" />
    <glyph glyph-name="uni0163" unicode="&#x163;" horiz-adv-x="663" 
d="M594 944h-303v-665q0 -131 60 -186.5t175 -55.5q41 0 68 8v-45q-30 -6 -68 -6t-75 6q66 -59 97.5 -121.5t26.5 -115t-33 -96t-81 -69t-119 -28.5l-14 41q85 13 135.5 51t61 91.5t-26 123t-117.5 141.5q-139 58 -139 261v665h-205v45h205v283h49v-283h303v-45z" />
    <glyph glyph-name="Tcaron" unicode="&#x164;" horiz-adv-x="1204" 
d="M629 1561h-62l-176 266h47l160 -223l158 223h47zM1133 1434v-45h-506v-1389h-49v1389h-506v45h1061z" />
    <glyph glyph-name="tcaron" unicode="&#x165;" horiz-adv-x="663" 
d="M551 1524l-59 -408h-41l45 408h55zM594 944h-303v-665q0 -131 60 -186.5t175 -55.5q41 0 68 8v-45q-30 -6 -68 -6q-138 0 -211 67.5t-73 217.5v665h-205v45h205v283h49v-283h303v-45z" />
    <glyph glyph-name="Tbar" unicode="&#x166;" horiz-adv-x="1204" 
d="M1133 1389h-506v-650h254v-45h-254v-694h-49v694h-263v45h263v650h-506v45h1061v-45z" />
    <glyph glyph-name="tbar" unicode="&#x167;" horiz-adv-x="663" 
d="M600 473h-309v-194q0 -131 60 -186.5t175 -55.5q41 0 68 8v-45q-30 -6 -68 -6q-138 0 -211 67.5t-73 217.5v194h-201v45h201v426h-205v45h205v283h49v-283h303v-45h-303v-426h309v-45z" />
    <glyph glyph-name="Utilde" unicode="&#x168;" horiz-adv-x="1458" 
d="M436 1593q3 75 45.5 121.5t104.5 46.5q36 0 77 -20t72 -43.5t68.5 -43.5t66.5 -20q46 0 76 35.5t29 91.5l45 -4q-3 -75 -45.5 -121.5t-104.5 -46.5q-36 0 -77 20t-71 43.5t-67.5 43.5t-68.5 20q-46 0 -76 -35.5t-29 -91.5zM729 -20q-229 0 -379.5 154.5t-150.5 387.5v912
h49v-912q0 -215 136 -356t345 -141q207 0 344 141t137 356v912h50v-912q0 -233 -151 -387.5t-380 -154.5z" />
    <glyph glyph-name="utilde" unicode="&#x169;" horiz-adv-x="1208" 
d="M471 1272q-46 0 -75.5 -35.5t-28.5 -91.5l-45 4q3 76 45 122t104 46q36 0 77 -20t72.5 -43.5t69 -43.5t66.5 -20q46 0 75.5 35.5t28.5 91.5l45 -4q-3 -76 -45 -122t-104 -46q-36 0 -77 20t-71 43.5t-68 43.5t-69 20zM985 989h49v-989h-49v182q-54 -92 -163.5 -147
t-237.5 -55q-182 0 -296 120t-114 312v577h49v-577q0 -172 100.5 -279.5t260.5 -107.5q126 0 235 60t166 161v743z" />
    <glyph glyph-name="Umacron" unicode="&#x16a;" horiz-adv-x="1458" 
d="M401 1599v46h656v-46h-656zM729 -20q-229 0 -379.5 154.5t-150.5 387.5v912h49v-912q0 -215 136 -356t345 -141q207 0 344 141t137 356v912h50v-912q0 -233 -151 -387.5t-380 -154.5z" />
    <glyph glyph-name="umacron" unicode="&#x16b;" horiz-adv-x="1208" 
d="M942 1200v-45h-655v45h655zM985 989h49v-989h-49v182q-54 -92 -163.5 -147t-237.5 -55q-182 0 -296 120t-114 312v577h49v-577q0 -172 100.5 -279.5t260.5 -107.5q126 0 235 60t166 161v743z" />
    <glyph glyph-name="Ubreve" unicode="&#x16c;" horiz-adv-x="1458" 
d="M1001 1851q-1 -127 -78 -208.5t-194 -81.5q-116 0 -192.5 81.5t-79.5 208.5h45q3 -108 67 -177.5t160 -69.5q97 0 161.5 69.5t65.5 177.5h45zM729 -20q-229 0 -379.5 154.5t-150.5 387.5v912h49v-912q0 -215 136 -356t345 -141q207 0 344 141t137 356v912h50v-912
q0 -233 -151 -387.5t-380 -154.5z" />
    <glyph glyph-name="ubreve" unicode="&#x16d;" horiz-adv-x="1208" 
d="M614 1116q-116 0 -192.5 82t-79.5 209h45q3 -108 67 -178t160 -70q97 0 162 70t66 178h45q-1 -127 -78.5 -209t-194.5 -82zM985 989h49v-989h-49v182q-54 -92 -163.5 -147t-237.5 -55q-182 0 -296 120t-114 312v577h49v-577q0 -172 100.5 -279.5t260.5 -107.5
q126 0 235 60t166 161v743z" />
    <glyph glyph-name="Uring" unicode="&#x16e;" horiz-adv-x="1458" 
d="M729 1561q-92 0 -151.5 56.5t-59.5 145.5q0 88 59.5 144.5t151.5 56.5t151.5 -56.5t59.5 -144.5q0 -89 -59.5 -145.5t-151.5 -56.5zM729 1604q72 0 119 45t47 114q0 68 -47 113t-119 45t-119 -45t-47 -113q0 -69 47 -114t119 -45zM729 -20q-229 0 -379.5 154.5
t-150.5 387.5v912h49v-912q0 -215 136 -356t345 -141q207 0 344 141t137 356v912h50v-912q0 -233 -151 -387.5t-380 -154.5z" />
    <glyph glyph-name="uring" unicode="&#x16f;" horiz-adv-x="1208" 
d="M614 1116q-92 0 -151.5 57t-59.5 146q0 88 59.5 144.5t151.5 56.5t151.5 -56.5t59.5 -144.5q0 -89 -59.5 -146t-151.5 -57zM614 1477q-72 0 -118.5 -45t-46.5 -113q0 -69 46.5 -114.5t118.5 -45.5t119 45.5t47 114.5q0 68 -47 113t-119 45zM985 989h49v-989h-49v182
q-54 -92 -163.5 -147t-237.5 -55q-182 0 -296 120t-114 312v577h49v-577q0 -172 100.5 -279.5t260.5 -107.5q126 0 235 60t166 161v743z" />
    <glyph glyph-name="Uhungarumlaut" unicode="&#x170;" horiz-adv-x="1458" 
d="M621 1561l151 286h-53l-152 -286h54zM852 1561l149 286h-53l-149 -286h53zM729 -20q-229 0 -379.5 154.5t-150.5 387.5v912h49v-912q0 -215 136 -356t345 -141q207 0 344 141t137 356v912h50v-912q0 -233 -151 -387.5t-380 -154.5z" />
    <glyph glyph-name="uhungarumlaut" unicode="&#x171;" horiz-adv-x="1208" 
d="M657 1403l-151 -287h-53l151 287h53zM887 1403l-150 -287h-53l150 287h53zM985 989h49v-989h-49v182q-54 -92 -163.5 -147t-237.5 -55q-182 0 -296 120t-114 312v577h49v-577q0 -172 100.5 -279.5t260.5 -107.5q126 0 235 60t166 161v743z" />
    <glyph glyph-name="Uogonek" unicode="&#x172;" horiz-adv-x="1458" 
d="M1210 1434h50v-912q0 -189 -103 -330.5t-270 -189.5v-2q-99 -36 -157 -101.5t-58 -146.5q0 -52 33 -85.5t92 -33.5q79 0 129 33l18 -39q-69 -37 -147 -37t-124 45.5t-46 116.5q0 134 139 230q-12 -2 -37 -2q-229 0 -379.5 154.5t-150.5 387.5v912h49v-912
q0 -215 136 -356t345 -141q207 0 344 141t137 356v912z" />
    <glyph glyph-name="uogonek" unicode="&#x173;" horiz-adv-x="1208" 
d="M1073 -334l19 -39q-69 -37 -148 -37q-78 0 -124 45.5t-46 116.5q0 83 56 153t155 118v159q-54 -92 -163.5 -147t-237.5 -55q-182 0 -296 120t-114 312v577h49v-577q0 -172 100.5 -279.5t260.5 -107.5q126 0 235 60t166 161v743h49v-989q-99 -36 -157 -101.5t-58 -146.5
q0 -52 33.5 -85.5t91.5 -33.5q79 0 129 33z" />
    <glyph glyph-name="Wcircumflex" unicode="&#x174;" horiz-adv-x="2086" 
d="M1044 1804l-159 -223h-47l176 266h61l174 -266h-47zM1987 1434h51l-484 -1434h-57l-448 1384l-455 -1384h-57l-488 1434h51l465 -1387l457 1387h57l447 -1387z" />
    <glyph glyph-name="wcircumflex" unicode="&#x175;" horiz-adv-x="1603" 
d="M803 1360l-160 -223h-47l176 266h62l174 -266h-47zM1503 989h51l-364 -989h-49l-340 948l-338 -948h-49l-365 989h51l338 -948l338 948h49l340 -948z" />
    <glyph glyph-name="Ycircumflex" unicode="&#x176;" horiz-adv-x="1181" 
d="M592 1804l-160 -223h-47l176 266h62l174 -266h-47zM1075 1434h58l-515 -764v-670h-49v670l-520 764h57l488 -717z" />
    <glyph glyph-name="ycircumflex" unicode="&#x177;" horiz-adv-x="1005" 
d="M516 1360l-160 -223h-47l176 266h62l174 -266h-47zM905 989h51l-587 -1399h-52l162 385l-430 1014h53l402 -954z" />
    <glyph glyph-name="Ydieresis" unicode="&#x178;" horiz-adv-x="1181" 
d="M473 1720q22 0 40.5 -17t18.5 -38q0 -25 -18 -42t-41 -17q-25 0 -42 16.5t-17 42.5q0 22 17.5 38.5t41.5 16.5zM711 1720q22 0 40.5 -17t18.5 -38q0 -25 -18 -42t-41 -17q-25 0 -42.5 16.5t-17.5 42.5q0 22 17.5 38.5t42.5 16.5zM49 1434h57l488 -717l481 717h58
l-515 -764v-670h-49v670z" />
    <glyph glyph-name="Zacute" unicode="&#x179;" horiz-adv-x="1167" 
d="M782 1827l-182 -266h-51l160 266h73zM119 1434h964v-45l-964 -1344h973v-45h-1026v45l970 1344h-917v45z" />
    <glyph glyph-name="zacute" unicode="&#x17a;" horiz-adv-x="1017" 
d="M686 1382l-182 -266h-51l159 266h74zM918 989v-45l-783 -899h783v-45h-838v45l782 899h-735v45h791z" />
    <glyph glyph-name="Zdotaccent" unicode="&#x17b;" horiz-adv-x="1167" 
d="M596 1720q22 0 40.5 -17t18.5 -38q0 -25 -18 -42t-41 -17q-25 0 -42 16.5t-17 42.5q0 22 17.5 38.5t41.5 16.5zM119 1434h964v-45l-964 -1344h973v-45h-1026v45l970 1344h-917v45z" />
    <glyph glyph-name="zdotaccent" unicode="&#x17c;" horiz-adv-x="1017" 
d="M500 1382q22 0 40.5 -17t18.5 -38q0 -25 -18 -42t-41 -17q-25 0 -42.5 16.5t-17.5 42.5q0 22 17.5 38.5t42.5 16.5zM918 989v-45l-783 -899h783v-45h-838v45l782 899h-735v45h791z" />
    <glyph glyph-name="Zcaron" unicode="&#x17d;" horiz-adv-x="1167" 
d="M627 1561h-62l-176 266h47l160 -223l158 223h47zM119 45h973v-45h-1026v45l970 1344h-917v45h964v-45z" />
    <glyph glyph-name="zcaron" unicode="&#x17e;" horiz-adv-x="1017" 
d="M530 1116h-61l-176 266h47l160 -223l157 223h48zM918 989v-45l-783 -899h783v-45h-838v45l782 899h-735v45h791z" />
    <glyph glyph-name="longs" unicode="&#x17f;" horiz-adv-x="856" 
d="M352 0l-2 944h-256v45h256v139q0 152 86 239t221 87q57 0 117.5 -19t102.5 -51l-25 -41q-38 31 -91 49.5t-104 18.5q-113 0 -185.5 -75t-72.5 -208v-184l2 -944h-49z" />
    <glyph glyph-name="uni0180" unicode="&#x180;" horiz-adv-x="1228" 
d="M610 1010q221 0 368.5 -146.5t147.5 -367.5q0 -222 -147 -369t-369 -147q-116 0 -226.5 58t-160.5 142v-180h-49v1257h-254v46h254v131h49v-131h262v-46h-262v-450q46 85 157 144t230 59zM610 25q200 0 333.5 134.5t133.5 336.5t-133.5 335.5t-333.5 133.5
q-116 0 -226 -63t-161 -161v-495q52 -96 162 -158.5t225 -62.5z" />
    <glyph glyph-name="florin" unicode="&#x192;" horiz-adv-x="708" 
d="M358 1130v-141h304v-45h-304v-1050q0 -152 -85 -238t-220 -86q-28 0 -55 6l6 43q24 -6 49 -6q113 0 184.5 74t71.5 207v1050h-205v45h205v141q0 152 85 238t220 86q29 0 56 -6l-6 -43q-24 6 -50 6q-113 0 -184.5 -74t-71.5 -207z" />
    <glyph glyph-name="uni01EA" unicode="&#x1ea;" horiz-adv-x="1677" 
d="M985 -6q-93 -35 -147 -100t-54 -142q0 -52 33 -85.5t92 -33.5q79 0 129 33l19 -39q-69 -37 -148 -37q-78 0 -124 45.5t-46 116.5q0 133 140 230q-14 -2 -41 -2q-197 0 -361 98.5t-259 269.5t-95 377q0 201 95 368.5t259.5 264t360.5 96.5q148 0 280.5 -57t228 -154
t151.5 -232.5t56 -285.5q0 -272 -160 -475t-409 -256zM838 25q80 0 157 18q1 0 2 1t2 1q223 56 364.5 244t141.5 436q0 189 -88 346t-241 247.5t-338 90.5q-138 0 -261.5 -53.5t-212 -144.5t-140.5 -218t-52 -268q0 -193 88 -354t241 -253.5t337 -92.5z" />
    <glyph glyph-name="uni01EB" unicode="&#x1eb;" horiz-adv-x="1222" 
d="M741 -4q-95 -36 -149.5 -100.5t-54.5 -143.5q0 -52 33.5 -85.5t91.5 -33.5q79 0 129 33l18 -39q-69 -37 -147 -37t-124 45.5t-46 116.5q0 134 137 228h-19q-139 0 -256 67.5t-184.5 186t-67.5 260.5t67.5 261t184.5 187t256 68t256.5 -68t185.5 -187t68 -261
q0 -180 -106.5 -317.5t-272.5 -180.5zM152 494q0 -197 132.5 -333t325.5 -136q192 0 326.5 136.5t134.5 332.5q0 198 -134.5 334.5t-326.5 136.5q-193 0 -325.5 -136.5t-132.5 -334.5z" />
    <glyph glyph-name="Aringacute" unicode="&#x1fa;" horiz-adv-x="1292" 
d="M647 1561q-92 0 -151.5 56.5t-59.5 145.5q0 76 46.5 130.5t121.5 66.5l156 260h74l-177 -256q89 -3 145 -59.5t56 -141.5q0 -89 -59.5 -145.5t-151.5 -56.5zM647 1921q-72 0 -119 -45t-47 -113q0 -69 47 -114t119 -45t119 45t47 114q0 68 -47 113t-119 45zM1202 0
l-174 430h-766l-174 -430h-51l577 1434h64l577 -1434h-53zM279 475h733l-367 907z" />
    <glyph glyph-name="aringacute" unicode="&#x1fb;" horiz-adv-x="1228" 
d="M627 1116q-92 0 -151.5 57t-59.5 146q0 76 46.5 130.5t121.5 66.5l155 260h74l-176 -256q89 -3 145 -59.5t56 -141.5q0 -89 -59.5 -146t-151.5 -57zM627 1477q-72 0 -119 -45t-47 -113q0 -69 47 -114.5t119 -45.5t119 45.5t47 114.5q0 68 -47 113t-119 45zM1006 989h49
v-989h-49v180q-50 -84 -161 -142t-227 -58q-222 0 -369 147t-147 369q0 221 147.5 367.5t368.5 146.5q119 0 230.5 -59t157.5 -144v182zM618 25q115 0 225.5 62.5t162.5 158.5v495q-51 98 -161.5 161t-226.5 63q-200 0 -333 -133.5t-133 -335.5t133 -336.5t333 -134.5z" />
    <glyph glyph-name="AEacute" unicode="&#x1fc;" horiz-adv-x="1859" 
d="M1530 1827l-182 -266h-52l160 266h74zM1720 1389h-698v-580h623v-45h-623v-719h698v-45h-747v430h-600l-279 -430h-57l930 1434h753v-45zM401 475h572v879z" />
    <glyph glyph-name="aeacute" unicode="&#x1fd;" horiz-adv-x="2068" 
d="M1223 1382l-183 -266h-51l160 266h74zM1962 526h-907v-26q0 -204 126 -339.5t318 -135.5q154 0 268 74.5t140 197.5h49q-30 -143 -158 -230t-299 -87q-149 0 -267 76.5t-177 207.5v-264h-49v180q-50 -84 -161 -142t-227 -58q-222 0 -369 147t-147 369q0 221 147.5 367.5
t368.5 146.5q119 0 230.5 -59t157.5 -144v182h49v-266q61 131 179.5 209t264.5 78q198 0 330.5 -135.5t132.5 -335.5v-13zM1006 246v495q-51 98 -161.5 161t-226.5 63q-200 0 -333 -133.5t-133 -335.5t133 -336.5t333 -134.5q115 0 225.5 62.5t162.5 158.5zM1499 965
q-169 0 -292 -112t-148 -282h854q-8 168 -126 281t-288 113z" />
    <glyph glyph-name="uni0218" unicode="&#x218;" 
d="M623 -20q-217 0 -357.5 125.5t-140.5 318.5h47q0 -174 127.5 -286.5t323.5 -112.5q186 0 309 95t123 242q0 84 -31 146.5t-83 99.5t-119.5 63.5t-142.5 44t-149.5 35t-142 44t-119.5 63.5t-83 99.5t-31 146.5q0 153 128 251.5t326 98.5t324.5 -104.5t126.5 -266.5h-45
q-8 142 -121.5 233t-284.5 91q-177 0 -291 -85.5t-114 -217.5q0 -76 31 -131.5t83 -88t119.5 -55.5t142 -40t149.5 -35.5t142.5 -48t119.5 -70.5t83 -110.5t31 -162.5q0 -166 -137 -274t-344 -108zM692 -164l-182 -266h-51l159 266h74z" />
    <glyph glyph-name="uni0219" unicode="&#x219;" horiz-adv-x="907" 
d="M442 -20q-147 0 -245 76.5t-115 205.5h51q13 -107 98 -172t211 -65q132 0 216.5 66.5t84.5 170.5q0 58 -21.5 99.5t-58 65t-84 39.5t-100 26.5l-105 21t-100 28.5t-84 44.5t-58 72.5t-21.5 109q0 106 90 174t231 68q130 0 224.5 -69.5t111.5 -178.5h-51q-17 89 -97.5 146
t-187.5 57q-120 0 -196 -55.5t-76 -141.5q0 -55 21.5 -94.5t58.5 -61.5t84.5 -37t100 -25t104.5 -20.5t99.5 -29t84.5 -46t58.5 -75.5t21.5 -113q0 -126 -98.5 -206t-252.5 -80zM516 -164l-182 -266h-51l159 266h74z" />
    <glyph glyph-name="uni021A" unicode="&#x21a;" horiz-adv-x="1204" 
d="M1133 1434v-45h-506v-1389h-49v1389h-506v45h1061zM451 -430l159 266h74l-182 -266h-51z" />
    <glyph glyph-name="uni021B" unicode="&#x21b;" horiz-adv-x="663" 
d="M594 944h-303v-665q0 -131 60 -186.5t175 -55.5q41 0 68 8v-45q-30 -6 -68 -6q-138 0 -211 67.5t-73 217.5v665h-205v45h205v283h49v-283h303v-45zM252 -430l160 266h73l-182 -266h-51z" />
    <glyph glyph-name="uni0237" unicode="&#x237;" horiz-adv-x="397" 
d="M2 -381h18q80 0 117 62.5t37 197.5v1110h49v-1110q0 -161 -46.5 -235t-147.5 -74h-27v49z" />
    <glyph glyph-name="uni0243" unicode="&#x243;" horiz-adv-x="1212" 
d="M770 758q149 -8 252.5 -116t103.5 -257q0 -162 -113.5 -273.5t-281.5 -111.5h-532v348h-258v45h258v1041h469q159 0 269 -100t110 -244q0 -128 -80 -224t-197 -108zM246 1389v-619h422q138 0 233.5 93t95.5 227q0 126 -96 212.5t-233 86.5h-422zM731 45q149 0 247.5 98
t98.5 242q0 143 -100 241.5t-246 98.5h-485v-332h260v-45h-260v-303h485z" />
    <glyph glyph-name="circumflex" unicode="&#x2c6;" horiz-adv-x="616" 
d="M514 1137h-47l-158 223l-159 -223h-48l177 266h61z" />
    <glyph glyph-name="caron" unicode="&#x2c7;" horiz-adv-x="616" 
d="M467 1382h47l-174 -266h-61l-177 266h48l159 -223z" />
    <glyph glyph-name="breve" unicode="&#x2d8;" horiz-adv-x="749" 
d="M647 1407q-1 -127 -78 -209t-194 -82q-116 0 -193 82t-80 209h45q3 -108 67.5 -178t160.5 -70q97 0 161.5 70t65.5 178h45z" />
    <glyph glyph-name="dotaccent" unicode="&#x2d9;" horiz-adv-x="323" 
d="M162 1382q22 0 40.5 -17t18.5 -38q0 -25 -18 -42t-41 -17q-25 0 -42.5 16.5t-17.5 42.5q0 22 17.5 38.5t42.5 16.5z" />
    <glyph glyph-name="ring" unicode="&#x2da;" horiz-adv-x="626" 
d="M313 1116q-92 0 -151.5 57t-59.5 146q0 88 59.5 144.5t151.5 56.5t151.5 -56.5t59.5 -144.5q0 -89 -59.5 -146t-151.5 -57zM313 1159q72 0 119 45.5t47 114.5q0 68 -47 113t-119 45t-119 -45t-47 -113q0 -69 47 -114.5t119 -45.5z" />
    <glyph glyph-name="ogonek" unicode="&#x2db;" horiz-adv-x="522" 
d="M362 45v-45q-99 -36 -157 -101.5t-58 -146.5q0 -52 33.5 -85.5t91.5 -33.5q79 0 129 33l19 -39q-69 -37 -148 -37q-78 0 -124 45.5t-46 116.5q0 93 69 169t191 124z" />
    <glyph glyph-name="tilde" unicode="&#x2dc;" horiz-adv-x="788" 
d="M102 1149q3 75 45.5 121.5t104.5 46.5q36 0 77 -20t72.5 -43.5t69 -43.5t66.5 -20q46 0 75.5 35.5t28.5 91.5l45 -4q-3 -76 -45 -122t-104 -46q-36 0 -77 20t-71 43.5t-68 43.5t-69 20q-46 0 -76 -35.5t-29 -91.5z" />
    <glyph glyph-name="hungarumlaut" unicode="&#x2dd;" horiz-adv-x="638" 
d="M307 1403l-151 -287h-54l152 287h53zM537 1403l-150 -287h-53l149 287h54z" />
    <glyph glyph-name="gravecomb" unicode="&#x300;" horiz-adv-x="0" 
d="M-975 1382h74l160 -266h-52z" />
    <glyph glyph-name="acutecomb" unicode="&#x301;" horiz-adv-x="0" 
d="M-438 1382l-183 -266h-51l160 266h74z" />
    <glyph glyph-name="uni0302" unicode="&#x302;" horiz-adv-x="0" 
d="M-113 1137h-47l-157 223l-160 -223h-47l176 266h61z" />
    <glyph glyph-name="tildecomb" unicode="&#x303;" horiz-adv-x="0" 
d="M-874 1149q3 76 45 122t104 46q36 0 77 -20t72.5 -43.5t69 -43.5t66.5 -20q46 0 75.5 35.5t28.5 91.5l45 -4q-3 -76 -45 -122t-104 -46q-36 0 -77 20t-71 43.5t-68 43.5t-69 20q-46 0 -75.5 -35.5t-28.5 -91.5z" />
    <glyph glyph-name="uni0304" unicode="&#x304;" horiz-adv-x="0" 
d="M-995 1155v45h655v-45h-655z" />
    <glyph glyph-name="uni0306" unicode="&#x306;" horiz-adv-x="0" 
d="M-365 1407q-1 -127 -78 -209t-194 -82q-116 0 -192.5 82t-79.5 209h45q3 -108 67 -178t160 -70q97 0 161.5 70t65.5 178h45z" />
    <glyph glyph-name="uni0307" unicode="&#x307;" horiz-adv-x="0" 
d="M-588 1382q22 0 41 -17t19 -38q0 -25 -18.5 -42t-41.5 -17q-25 0 -42 16.5t-17 42.5q0 22 17.5 38.5t41.5 16.5z" />
    <glyph glyph-name="uni0308" unicode="&#x308;" horiz-adv-x="0" 
d="M-721 1382q22 0 40.5 -17t18.5 -38q0 -25 -18 -42t-41 -17q-25 0 -42 16.5t-17 42.5q0 22 17.5 38.5t41.5 16.5zM-483 1382q22 0 40.5 -17t18.5 -38q0 -25 -18 -42t-41 -17q-25 0 -42.5 16.5t-17.5 42.5q0 22 17.5 38.5t42.5 16.5z" />
    <glyph glyph-name="uni030A" unicode="&#x30a;" horiz-adv-x="0" 
d="M-592 1116q-92 0 -151.5 57t-59.5 146q0 88 59.5 144.5t151.5 56.5t151.5 -56.5t59.5 -144.5q0 -89 -59.5 -146t-151.5 -57zM-592 1159q72 0 119 45.5t47 114.5q0 68 -47 113t-119 45t-119 -45t-47 -113q0 -69 47 -114.5t119 -45.5z" />
    <glyph glyph-name="uni030B" unicode="&#x30b;" horiz-adv-x="0" 
d="M-592 1403l-151 -287h-54l152 287h53zM-362 1403l-150 -287h-53l149 287h54z" />
    <glyph glyph-name="uni030C" unicode="&#x30c;" horiz-adv-x="0" 
d="M-393 1382h47l-174 -266h-62l-176 266h47l160 -223z" />
    <glyph glyph-name="uni0312" unicode="&#x312;" horiz-adv-x="0" 
d="M-258 1116l182 266h51l-159 -266h-74z" />
    <glyph glyph-name="uni0326" unicode="&#x326;" horiz-adv-x="0" 
d="M-123 -164l-182 -266h-51l159 266h74z" />
    <glyph glyph-name="uni0327" unicode="&#x327;" horiz-adv-x="0" 
d="M-227 20h47q75 -60 113 -125.5t36.5 -120.5t-29 -101t-82 -73t-122.5 -30l-15 41q85 13 136 51t61 91.5t-26.5 123.5t-118.5 143z" />
    <glyph glyph-name="uni0328" unicode="&#x328;" horiz-adv-x="0" 
d="M-512 45v-45q-99 -36 -157 -101.5t-58 -146.5q0 -52 33.5 -85.5t91.5 -33.5q79 0 129 33l18 -39q-69 -37 -147 -37t-124 45.5t-46 116.5q0 93 69 169t191 124z" />
    <glyph glyph-name="uni0394" unicode="&#x394;" horiz-adv-x="1241" 
d="M37 0v45l553 1391h61l553 -1391v-45h-1167zM88 45h1065l-532 1341z" />
    <glyph glyph-name="uni0394" unicode="&#x3b4;" horiz-adv-x="1241" 
d="M37 0v45l553 1391h61l553 -1391v-45h-1167zM88 45h1065l-532 1341z" />
    <glyph glyph-name="uni03A9" unicode="&#x3a9;" horiz-adv-x="1593" 
d="M184 0v45h353q-439 250 -439 694q0 156 54 290t147.5 227t222.5 145.5t275 52.5q196 0 355 -89.5t251 -253.5t92 -372q0 -444 -436 -694h350v-45h-430v45q467 263 467 694q0 147 -50 272.5t-136.5 212.5t-206.5 136t-256 49t-256 -49t-207 -136t-137 -212.5t-50 -272.5
q0 -429 469 -694v-45h-432z" />
    <glyph glyph-name="uni03A9" unicode="&#x3c9;" horiz-adv-x="1593" 
d="M184 0v45h353q-439 250 -439 694q0 156 54 290t147.5 227t222.5 145.5t275 52.5q196 0 355 -89.5t251 -253.5t92 -372q0 -444 -436 -694h350v-45h-430v45q467 263 467 694q0 147 -50 272.5t-136.5 212.5t-206.5 136t-256 49t-256 -49t-207 -136t-137 -212.5t-50 -272.5
q0 -429 469 -694v-45h-432z" />
    <glyph glyph-name="uni03BC" unicode="&#x3bc;" horiz-adv-x="1208" 
d="M985 989h49v-989h-49v182q-54 -92 -163.5 -147t-237.5 -55q-121 0 -215 56.5t-146 156.5v-603h-49v1399h49v-577q0 -172 100.5 -279.5t260.5 -107.5q126 0 235 60t166 161v743z" />
    <glyph glyph-name="pi" unicode="&#x3c0;" horiz-adv-x="1361" 
d="M1286 43l6 -43q-27 -6 -55 -6q-136 0 -220.5 85.5t-84.5 237.5v627h-483v-944h-50v944h-297v45h1176v-45h-297v-627q0 -132 71.5 -206t184.5 -74q25 0 49 6z" />
    <glyph glyph-name="uni0E3F" unicode="&#xe3f;" horiz-adv-x="1099" 
d="M641 758q149 -8 252.5 -116t103.5 -257q0 -162 -113.5 -273.5t-281.5 -111.5h-110v-246h-50v246h-372v1434h372v245h50v-245h47q159 0 269 -100t110 -244q0 -128 -80 -224t-197 -108zM117 1389v-619h422q138 0 233.5 93t95.5 227q0 126 -96 212.5t-233 86.5h-422zM602 45
q149 0 247.5 98t98.5 242q0 143 -100 241.5t-246 98.5h-485v-680h485z" />
    <glyph glyph-name="Wgrave" unicode="&#x1e80;" horiz-adv-x="2086" 
d="M842 1827h73l160 -266h-51zM1987 1434h51l-484 -1434h-57l-448 1384l-455 -1384h-57l-488 1434h51l465 -1387l457 1387h57l447 -1387z" />
    <glyph glyph-name="wgrave" unicode="&#x1e81;" horiz-adv-x="1603" 
d="M600 1382h74l160 -266h-52zM414 0l-365 989h51l338 -948l338 948h49l340 -948l338 948h51l-364 -989h-49l-340 948l-338 -948h-49z" />
    <glyph glyph-name="Wacute" unicode="&#x1e82;" horiz-adv-x="2086" 
d="M1231 1827l-182 -266h-52l160 266h74zM1987 1434h51l-484 -1434h-57l-448 1384l-455 -1384h-57l-488 1434h51l465 -1387l457 1387h57l447 -1387z" />
    <glyph glyph-name="wacute" unicode="&#x1e83;" horiz-adv-x="1603" 
d="M989 1382l-182 -266h-51l159 266h74zM414 0l-365 989h51l338 -948l338 948h49l340 -948l338 948h51l-364 -989h-49l-340 948l-338 -948h-49z" />
    <glyph glyph-name="Wdieresis" unicode="&#x1e84;" horiz-adv-x="2086" 
d="M926 1720q22 0 40.5 -17t18.5 -38q0 -25 -18 -42t-41 -17q-25 0 -42.5 16.5t-17.5 42.5q0 22 17.5 38.5t42.5 16.5zM1163 1720q22 0 41 -17t19 -38q0 -25 -18.5 -42t-41.5 -17q-25 0 -42 16.5t-17 42.5q0 22 17.5 38.5t41.5 16.5zM1987 1434h51l-484 -1434h-57l-448 1384
l-455 -1384h-57l-488 1434h51l465 -1387l457 1387h57l447 -1387z" />
    <glyph glyph-name="wdieresis" unicode="&#x1e85;" horiz-adv-x="1603" 
d="M686 1382q22 0 40.5 -17t18.5 -38q0 -25 -18 -42t-41 -17q-25 0 -42 16.5t-17 42.5q0 22 17.5 38.5t41.5 16.5zM924 1382q22 0 40.5 -17t18.5 -38q0 -25 -18 -42t-41 -17q-25 0 -42.5 16.5t-17.5 42.5q0 22 17.5 38.5t42.5 16.5zM414 0l-365 989h51l338 -948l338 948h49
l340 -948l338 948h51l-364 -989h-49l-340 948l-338 -948h-49z" />
    <glyph glyph-name="Germandbls" unicode="&#x1e9e;" horiz-adv-x="1198" 
d="M618 1454q153 0 272.5 -92.5t145.5 -231.5l-403 -372q46 4 67 4q192 0 302 -102t110 -277q0 -158 -113.5 -270.5t-269.5 -112.5h-317v45h317q139 0 236.5 98.5t97.5 237.5q0 157 -92 247.5t-254 90.5h-127l-12 43l407 377q-28 116 -131 194t-236 78q-161 0 -265.5 -103
t-104.5 -259v-1049h-49v1049q0 175 118.5 290t300.5 115z" />
    <glyph glyph-name="Ygrave" unicode="&#x1ef2;" horiz-adv-x="1181" 
d="M389 1827h74l160 -266h-52zM49 1434h57l488 -717l481 717h58l-515 -764v-670h-49v670z" />
    <glyph glyph-name="ygrave" unicode="&#x1ef3;" horiz-adv-x="1005" 
d="M547 1116h-51l-183 266h74zM905 989h51l-587 -1399h-52l162 385l-430 1014h53l402 -954z" />
    <glyph glyph-name="uni2009" unicode="&#x2009;" horiz-adv-x="444" 
 />
    <glyph glyph-name="endash" unicode="&#x2013;" horiz-adv-x="1079" 
d="M102 502v45h875v-45h-875z" />
    <glyph glyph-name="emdash" unicode="&#x2014;" horiz-adv-x="2252" 
d="M102 502v45h2048v-45h-2048z" />
    <glyph glyph-name="quoteleft" unicode="&#x2018;" horiz-adv-x="356" 
d="M102 1198q0 15 15 49l110 232h33l-72 -205q28 -6 45 -26.5t17 -49.5q0 -32 -21 -54t-53 -22t-53 22t-21 54z" />
    <glyph glyph-name="quoteright" unicode="&#x2019;" horiz-adv-x="356" 
d="M254 1403q0 -17 -14 -49l-111 -232h-33l72 205q-28 6 -45 26.5t-17 49.5q0 32 21 54t53 22t53 -22t21 -54z" />
    <glyph glyph-name="quotesinglbase" unicode="&#x201a;" horiz-adv-x="356" 
d="M254 106q0 -18 -14 -49l-111 -231h-33l72 205q-28 6 -45 26t-17 49q0 32 21 54t53 22t53 -22t21 -54z" />
    <glyph glyph-name="quotedblleft" unicode="&#x201c;" horiz-adv-x="593" 
d="M102 1198q0 15 15 49l110 232h33l-72 -205q28 -6 45 -26.5t17 -49.5q0 -32 -21 -54t-53 -22t-53 22t-21 54zM340 1198q0 18 14 49l111 232h33l-72 -205q28 -6 44.5 -26.5t16.5 -49.5q0 -33 -20.5 -54.5t-52.5 -21.5t-53 22t-21 54z" />
    <glyph glyph-name="quotedblright" unicode="&#x201d;" horiz-adv-x="593" 
d="M254 1403q0 -17 -14 -49l-111 -232h-33l72 205q-28 6 -45 26.5t-17 49.5q0 32 21 54t53 22t53 -22t21 -54zM492 1403q0 -15 -15 -49l-110 -232h-33l72 205q-28 6 -45 26.5t-17 49.5q0 32 21 54t53 22t53 -22t21 -54z" />
    <glyph glyph-name="quotedblbase" unicode="&#x201e;" horiz-adv-x="593" 
d="M254 106q0 -18 -14 -49l-111 -231h-33l72 205q-28 6 -45 26t-17 49q0 32 21 54t53 22t53 -22t21 -54zM492 106q0 -15 -15 -49l-110 -231h-33l72 205q-28 6 -45 26t-17 49q0 32 21 54t53 22t53 -22t21 -54z" />
    <glyph glyph-name="dagger" unicode="&#x2020;" horiz-adv-x="901" 
d="M799 1110v-45h-326v-604h-49v604h-322v45h322v365h49v-365h326z" />
    <glyph glyph-name="daggerdbl" unicode="&#x2021;" horiz-adv-x="901" 
d="M473 410h326v-45h-326v-365h-49v365h-322v45h322v655h-322v45h322v365h49v-365h326v-45h-326v-655z" />
    <glyph glyph-name="bullet" unicode="&#x2022;" horiz-adv-x="528" 
d="M264 307q-81 0 -134.5 54.5t-53.5 136.5q0 80 53.5 134t134.5 54q80 0 135.5 -54.5t55.5 -133.5q0 -81 -55.5 -136t-135.5 -55z" />
    <glyph glyph-name="ellipsis" unicode="&#x2026;" horiz-adv-x="1003" 
d="M201 -20q-31 0 -51.5 20t-20.5 51t20.5 52.5t51.5 21.5q30 0 50.5 -21.5t20.5 -52.5t-20 -51t-51 -20zM514 -20q-31 0 -51.5 20t-20.5 51t20.5 52.5t51.5 21.5t51.5 -21.5t20.5 -52.5t-20.5 -51t-51.5 -20zM803 -20q-31 0 -51.5 20t-20.5 51t20.5 52.5t51.5 21.5
q30 0 50.5 -21.5t20.5 -52.5t-20 -51t-51 -20z" />
    <glyph glyph-name="perthousand" unicode="&#x2030;" horiz-adv-x="2056" 
d="M670 1180q0 -120 -69.5 -197.5t-178.5 -77.5t-178.5 77.5t-69.5 197.5t69.5 197t178.5 77t178.5 -77t69.5 -197zM1186 1434h49l-952 -1434h-50zM621 1180q0 100 -55 164.5t-144 64.5t-144 -64.5t-55 -164.5q0 -101 55 -165.5t144 -64.5t144 64.5t55 165.5zM1294 254
q0 -120 -69 -197t-178 -77t-178.5 77t-69.5 197t69.5 197t178.5 77t178 -77t69 -197zM1882 254q0 -120 -69.5 -197t-178.5 -77t-178.5 77t-69.5 197t69.5 197t178.5 77t178.5 -77t69.5 -197zM1245 254q0 101 -54.5 165t-143.5 64t-144 -64.5t-55 -164.5t55 -164.5t144 -64.5
t143.5 64t54.5 165zM1833 254q0 100 -55 164.5t-144 64.5t-143.5 -64t-54.5 -165t54.5 -165t143.5 -64t144 64.5t55 164.5z" />
    <glyph glyph-name="guilsinglleft" unicode="&#x2039;" horiz-adv-x="737" 
d="M635 66l-543 436v45l543 436v-59l-498 -400l498 -399v-59z" />
    <glyph glyph-name="guilsinglright" unicode="&#x203a;" horiz-adv-x="759" 
d="M125 66v59l498 399l-498 400v59l543 -436v-45z" />
    <glyph glyph-name="fraction" unicode="&#x2044;" horiz-adv-x="473" 
d="M690 1434h49l-952 -1434h-49z" />
    <glyph glyph-name="Euro" unicode="&#x20ac;" horiz-adv-x="1685" 
d="M1534 455h51q-51 -213 -223.5 -344t-400.5 -131q-142 0 -270 56t-221.5 151.5t-149.5 230t-60 284.5h-188v46h188q6 196 100.5 358t253 255t347.5 93q226 0 397.5 -126.5t222.5 -330.5h-51q-51 184 -208.5 298t-360.5 114q-175 0 -323 -87t-235.5 -238.5t-93.5 -335.5
h783l-33 -46h-750q4 -141 56 -267t139 -215.5t206 -142t251 -52.5q210 0 368.5 118.5t204.5 311.5z" />
    <glyph glyph-name="uni20BD" unicode="&#x20bd;" horiz-adv-x="1306" 
d="M838 1434q158 0 267 -109.5t109 -267.5q0 -160 -109 -269.5t-267 -109.5h-508v-305h477v-45h-477v-328h-49v328h-209v45h209v305h-209v45h209v711h557zM838 723q138 0 232.5 97t94.5 237t-94.5 236t-232.5 96h-508v-666h508z" />
    <glyph glyph-name="uni2116" unicode="&#x2116;" horiz-adv-x="2791" 
d="M2083 424q-139 0 -256 67.5t-184.5 186t-67.5 260.5t67.5 261t184.5 187t256 68t256.5 -68t185.5 -187t68 -261q0 -106 -40 -201.5t-108.5 -164t-163 -108.5t-198.5 -40zM199 1434h65l961 -1375v1375h49v-1434h-66l-960 1374v-1374h-49v1434zM2083 469q192 0 326.5 136.5
t134.5 332.5q0 198 -134.5 334.5t-326.5 136.5q-193 0 -326 -136.5t-133 -334.5q0 -197 133 -333t326 -136zM2486 45v-45h-805v45h805z" />
    <glyph glyph-name="uni2117" unicode="&#x2117;" horiz-adv-x="1648" 
d="M858 1454q201 0 371 -99t269 -268.5t99 -369.5t-99 -369.5t-269 -268.5t-371 -99q-198 0 -367.5 99t-268.5 268.5t-99 369.5t99 369.5t268.5 268.5t367.5 99zM860 25q186 0 344.5 93t251 252.5t92.5 346.5t-92.5 346.5t-251 252.5t-344.5 93t-344.5 -93t-251 -252.5
t-92.5 -346.5t92.5 -346.5t251 -252.5t344.5 -93zM977 1147q97 0 164 -66t67 -163q0 -98 -67 -165t-164 -67h-291v-399h-43v860h334zM977 725q79 0 133.5 56.5t54.5 136.5q0 79 -55 134.5t-133 55.5h-291v-383h291z" />
    <glyph glyph-name="trademark" unicode="&#x2122;" horiz-adv-x="1835" 
d="M682 1434v-39h-299v-822h-43v822h-299v39h641zM1677 1434h43v-861h-41v764l-370 -764h-37l-371 764v-764h-43v861h43l389 -797z" />
    <glyph glyph-name="Omega" unicode="&#x2126;" horiz-adv-x="1593" 
d="M184 0v45h353q-439 250 -439 694q0 156 54 290t147.5 227t222.5 145.5t275 52.5q196 0 355 -89.5t251 -253.5t92 -372q0 -444 -436 -694h350v-45h-430v45q467 263 467 694q0 147 -50 272.5t-136.5 212.5t-206.5 136t-256 49t-256 -49t-207 -136t-137 -212.5t-50 -272.5
q0 -429 469 -694v-45h-432z" />
    <glyph glyph-name="oneeighth" unicode="&#x215b;" horiz-adv-x="1523" 
d="M262 1434v-861h-41v813l-188 -122v45l194 125h35zM1092 1434h49l-953 -1434h-49zM1198 -10q-117 0 -194.5 69.5t-77.5 176.5q0 80 52 144.5t138 82.5q-66 17 -109.5 72t-43.5 122q0 92 66 152.5t169 60.5q104 0 171 -60.5t67 -152.5q0 -66 -43.5 -121t-112.5 -73
q84 -19 138.5 -83.5t54.5 -143.5q0 -106 -77.5 -176t-197.5 -70zM1198 481q87 0 143 49.5t56 124.5q0 77 -56 126.5t-143 49.5q-86 0 -141.5 -49.5t-55.5 -126.5q0 -75 55.5 -124.5t141.5 -49.5zM1198 29q102 0 168 58.5t66 148.5t-66 148t-168 58t-167.5 -58t-65.5 -148
q0 -89 66 -148t167 -59z" />
    <glyph glyph-name="threeeighths" unicode="&#x215c;" horiz-adv-x="1767" 
d="M223 1059l299 336h-467v39h525v-35l-301 -334q34 6 63 6q104 0 174 -69t70 -171q0 -118 -78.5 -194t-198.5 -76q-109 0 -185 56.5t-89 148.5h41q13 -75 77.5 -120.5t155.5 -45.5q102 0 168 66t66 168q0 91 -64 146.5t-164 55.5q-43 0 -92 -12v35zM1335 1434h49
l-952 -1434h-49zM1442 -10q-117 0 -195 69.5t-78 176.5q0 80 52.5 144.5t138.5 82.5q-66 17 -110 72t-44 122q0 92 66.5 152.5t169.5 60.5q104 0 170.5 -60t66.5 -153q0 -66 -43 -121t-112 -73q84 -19 138 -83.5t54 -143.5q0 -106 -77.5 -176t-196.5 -70zM1442 481
q87 0 142.5 49.5t55.5 124.5q0 77 -55.5 126.5t-142.5 49.5q-86 0 -141.5 -49.5t-55.5 -126.5q0 -75 55.5 -124.5t141.5 -49.5zM1442 29q101 0 167 58t66 149q0 90 -65.5 148t-167.5 58t-168 -58t-66 -148q0 -89 66.5 -148t167.5 -59z" />
    <glyph glyph-name="fiveeighths" unicode="&#x215d;" horiz-adv-x="1746" 
d="M303 561q-104 0 -180 57t-88 148h41q14 -73 76.5 -119.5t150.5 -46.5q97 0 164.5 65.5t67.5 159.5q0 98 -67.5 167t-164.5 69q-121 0 -186 -68h-35l41 441h403v-39h-366l-35 -359q62 62 180 62q115 0 194 -78.5t79 -194.5q0 -110 -80.5 -187t-194.5 -77zM1307 1434h49
l-953 -1434h-49zM1421 -10q-117 0 -194.5 69.5t-77.5 176.5q0 80 52 144.5t138 82.5q-66 17 -109.5 72t-43.5 122q0 92 66 152.5t169 60.5q104 0 171 -60.5t67 -152.5q0 -66 -43.5 -121t-112.5 -73q84 -19 138.5 -83.5t54.5 -143.5q0 -106 -77.5 -176t-197.5 -70zM1421 481
q87 0 143 49.5t56 124.5q0 77 -56 126.5t-143 49.5q-86 0 -141 -49.5t-55 -126.5q0 -75 55 -124.5t141 -49.5zM1421 29q102 0 168 58.5t66 148.5t-66 148t-168 58t-167.5 -58t-65.5 -148q0 -89 66 -148t167 -59z" />
    <glyph glyph-name="seveneighths" unicode="&#x215e;" horiz-adv-x="1613" 
d="M18 1434h543v-35l-391 -826h-47l395 822h-500v39zM1182 1434h49l-952 -1434h-50zM1288 -10q-117 0 -194.5 69.5t-77.5 176.5q0 80 52 144.5t138 82.5q-66 17 -109.5 72t-43.5 122q0 92 66 152.5t169 60.5q104 0 171 -60.5t67 -152.5q0 -66 -43.5 -121t-112.5 -73
q84 -19 138.5 -83.5t54.5 -143.5q0 -106 -77.5 -176t-197.5 -70zM1288 481q87 0 143 49.5t56 124.5q0 77 -56 126.5t-143 49.5q-86 0 -141 -49.5t-55 -126.5q0 -75 55 -124.5t141 -49.5zM1288 29q102 0 168 58.5t66 148.5t-66 148t-168 58t-167.5 -58t-65.5 -148
q0 -89 66 -148t167 -59z" />
    <glyph glyph-name="arrowleft" unicode="&#x2190;" horiz-adv-x="1447" 
d="M1346 666v-45h-1160l484 -478l-35 -34l-533 534l533 537l35 -35l-484 -479h1160z" />
    <glyph glyph-name="arrowup" unicode="&#x2191;" horiz-adv-x="1275" 
d="M1174 711l-35 -35l-477 483v-1159h-46v1159l-479 -483l-35 35l537 532z" />
    <glyph glyph-name="arrowright" unicode="&#x2192;" horiz-adv-x="1447" 
d="M813 1180l533 -537l-533 -534l-35 34l484 478h-1160v45h1160l-484 479z" />
    <glyph glyph-name="arrowdown" unicode="&#x2193;" horiz-adv-x="1275" 
d="M1139 547l35 -35l-537 -532l-535 532l35 35l477 -484v1160h45v-1160z" />
    <glyph glyph-name="uni2196" unicode="&#x2196;" horiz-adv-x="1099" 
d="M997 127l-30 -31l-820 817l5 -677h-50v753l758 4v-49l-680 2z" />
    <glyph glyph-name="uni2197" unicode="&#x2197;" horiz-adv-x="1099" 
d="M240 991l757 -4v-754h-49l4 678l-819 -817l-31 31l818 819l-680 -2v49z" />
    <glyph glyph-name="uni2198" unicode="&#x2198;" horiz-adv-x="1099" 
d="M948 756h49v-754l-757 -4v49l680 -2l-818 819l31 31l819 -817z" />
    <glyph glyph-name="uni2199" unicode="&#x2199;" horiz-adv-x="1099" 
d="M997 864l-817 -819l680 2v-49l-758 4v754h50l-5 -678l820 817z" />
    <glyph glyph-name="partialdiff" unicode="&#x2202;" horiz-adv-x="1126" 
d="M887 801q58 -93 90.5 -190t32.5 -175q0 -190 -134.5 -323t-326.5 -133t-326.5 133t-134.5 323q0 124 67 232t173.5 169.5t222.5 61.5q65 0 139 -17.5t123 -39.5l-377 592h56zM549 25q171 0 293.5 121.5t122.5 289.5q0 157 -119 352q-144 66 -295 66q-110 0 -207 -57.5
t-154 -154t-57 -206.5q0 -167 123 -289t293 -122z" />
    <glyph glyph-name="emptyset" unicode="&#x2205;" horiz-adv-x="1513" 
d="M1339 1266l-219 -219q129 -142 129 -336q0 -134 -65 -246.5t-177 -178t-245 -65.5q-194 0 -338 131l-221 -221l-29 29l221 221q-129 142 -129 330q0 134 67 247.5t181 179.5t248 66q191 0 330 -129l219 219zM307 711q0 -172 119 -301l637 637q-129 116 -301 116
q-188 0 -321.5 -132.5t-133.5 -319.5zM1208 711q0 178 -116 307l-637 -637q129 -119 307 -119q186 0 316 131t130 318z" />
    <glyph glyph-name="Delta" unicode="&#x2206;" horiz-adv-x="1241" 
d="M37 0v45l553 1391h61l553 -1391v-45h-1167zM88 45h1065l-532 1341z" />
    <glyph glyph-name="product" unicode="&#x220f;" horiz-adv-x="1251" 
d="M1149 1434v-1434h-49v1389h-948v-1389h-50v1434h1047z" />
    <glyph glyph-name="summation" unicode="&#x2211;" horiz-adv-x="1171" 
d="M1069 1434v-45h-922l488 -672l-488 -672h922v-45h-967v57l476 660l-476 659v58h967z" />
    <glyph glyph-name="minus" unicode="&#x2212;" horiz-adv-x="1153" 
d="M979 653v-45h-805v45h805z" />
    <glyph glyph-name="radical" unicode="&#x221a;" horiz-adv-x="1312" 
d="M1169 1434h41l-479 -1434h-82l-291 944h-256v45h293l299 -977z" />
    <glyph glyph-name="infinity" unicode="&#x221e;" horiz-adv-x="1978" 
d="M1395 1110q180 0 294.5 -126.5t114.5 -321.5t-114.5 -323t-294.5 -128q-143 0 -261 100.5t-145 231.5q-27 -131 -145 -231.5t-260 -100.5q-180 0 -295 128t-115 323t115 321.5t295 126.5q145 0 262.5 -99t142.5 -231q25 132 143 231t263 99zM584 256q155 0 266 116.5
t117 289.5q-6 172 -117 287.5t-266 115.5q-162 0 -264.5 -114t-102.5 -289q0 -176 102.5 -291t264.5 -115zM1395 256q162 0 264 115t102 291q0 175 -102.5 289t-263.5 114q-155 0 -266 -115.5t-117 -287.5q6 -173 117 -289.5t266 -116.5z" />
    <glyph glyph-name="integral" unicode="&#x222b;" horiz-adv-x="708" 
d="M614 1454q29 0 56 -6l-6 -43q-24 6 -50 6q-113 0 -184.5 -74t-71.5 -207v-1236q0 -152 -85 -238t-220 -86q-28 0 -55 6l6 43q24 -6 49 -6q113 0 184.5 74t71.5 207v1236q0 152 85 238t220 86z" />
    <glyph glyph-name="approxequal" unicode="&#x2248;" horiz-adv-x="1126" 
d="M219 623l-45 6q9 90 61 146t123 56q45 0 104.5 -25t108 -55.5t104 -55.5t93.5 -25q55 0 92 40.5t47 123.5l45 -7q-9 -90 -61 -146t-123 -56q-42 0 -99.5 25t-105.5 55.5t-105.5 55.5t-99.5 25q-55 0 -92 -40t-47 -123zM219 301l-45 6q9 90 61 146.5t123 56.5
q45 0 104.5 -25.5t108 -55.5t104 -55.5t93.5 -25.5q55 0 92 40.5t47 123.5l45 -6q-9 -90 -61 -146.5t-123 -56.5q-42 0 -99.5 25.5t-105.5 55.5t-105.5 55.5t-99.5 25.5q-55 0 -92 -40.5t-47 -123.5z" />
    <glyph glyph-name="notequal" unicode="&#x2260;" horiz-adv-x="1153" 
d="M979 752h-297l-133 -258h430v-45h-453l-104 -201h-53l104 201h-299v45h322l133 258h-455v45h479l80 155h53l-79 -155h272v-45z" />
    <glyph glyph-name="lessequal" unicode="&#x2264;" horiz-adv-x="1187" 
d="M1014 315l-840 392v45l840 391v-53l-787 -361l787 -360v-54zM1014 0h-840v45h840v-45z" />
    <glyph glyph-name="greaterequal" unicode="&#x2265;" horiz-adv-x="1187" 
d="M174 315v54l787 360l-787 361v53l840 -391v-45zM174 0v45h840v-45h-840z" />
    <glyph glyph-name="lozenge" unicode="&#x25ca;" horiz-adv-x="1019" 
d="M535 1434l376 -717l-376 -717h-54l-375 717l375 717h54zM508 53l350 664l-350 663l-348 -663z" />
    <glyph glyph-name="circle" unicode="&#x25cb;" horiz-adv-x="1720" 
d="M858 -20q-198 0 -367.5 99t-268.5 268.5t-99 369.5t99 369.5t268.5 268.5t367.5 99q201 0 371 -99t269 -268.5t99 -369.5t-99 -369.5t-269 -268.5t-371 -99zM860 25q186 0 344.5 93t251 252.5t92.5 346.5t-92.5 346.5t-251 252.5t-344.5 93t-344.5 -93t-251 -252.5
t-92.5 -346.5t92.5 -346.5t251 -252.5t344.5 -93z" />
    <glyph glyph-name="H18533" unicode="&#x25cf;" horiz-adv-x="1720" 
d="M860 -20q-200 0 -369.5 99t-268.5 268.5t-99 369.5t99 369.5t268.5 268.5t369.5 99t369.5 -99t268.5 -268.5t99 -369.5t-99 -369.5t-268.5 -268.5t-369.5 -99z" />
    <glyph glyph-name="P_sq" horiz-adv-x="1302" 
d="M1104 1434v-756h-856v-678h-49v1434h905zM1055 723v666h-807v-666h807z" />
    <glyph glyph-name="P_sq_sinf" horiz-adv-x="776" 
d="M664 860v-465h-504v-395h-47v860h551zM618 438v379h-458v-379h458z" />
    <glyph glyph-name="Iacute_J.loclNLD" horiz-adv-x="1015" 
d="M410 1827l-183 -266h-51l160 266h74zM995 1827l-182 -266h-51l160 266h73zM199 1434h49v-1434h-49v1434zM487 25h27q134 0 199 90t65 274v1045h49v-1045q0 -207 -77.5 -308t-235.5 -101h-27v45z" />
    <glyph glyph-name="O.ss10" horiz-adv-x="1605" 
d="M1407 1434v-1434h-1208v1434h1208zM248 45h1110v1344h-1110v-1344z" />
    <glyph glyph-name="Oacute.ss10" horiz-adv-x="1605" 
d="M989 1827l-182 -266h-51l159 266h74zM1407 1434v-1434h-1208v1434h1208zM248 45h1110v1344h-1110v-1344z" />
    <glyph glyph-name="Obreve.ss10" horiz-adv-x="1605" 
d="M1075 1851q-1 -127 -78 -208.5t-194 -81.5q-116 0 -193 81.5t-80 208.5h45q3 -108 67.5 -177.5t160.5 -69.5q97 0 161.5 69.5t65.5 177.5h45zM1407 1434v-1434h-1208v1434h1208zM248 45h1110v1344h-1110v-1344z" />
    <glyph glyph-name="Ocircumflex.ss10" horiz-adv-x="1605" 
d="M803 1804l-160 -223h-47l176 266h62l174 -266h-47zM199 1434h1208v-1434h-1208v1434zM1358 45v1344h-1110v-1344h1110z" />
    <glyph glyph-name="Odieresis.ss10" horiz-adv-x="1605" 
d="M684 1720q22 0 40.5 -17t18.5 -38q0 -25 -18 -42t-41 -17q-25 0 -42 16.5t-17 42.5q0 22 17.5 38.5t41.5 16.5zM922 1720q22 0 40.5 -17t18.5 -38q0 -25 -18 -42t-41 -17q-25 0 -42.5 16.5t-17.5 42.5q0 22 17.5 38.5t42.5 16.5zM1407 1434v-1434h-1208v1434h1208z
M248 45h1110v1344h-1110v-1344z" />
    <glyph glyph-name="Ograve.ss10" horiz-adv-x="1605" 
d="M600 1827h74l160 -266h-52zM1407 1434v-1434h-1208v1434h1208zM248 45h1110v1344h-1110v-1344z" />
    <glyph glyph-name="Ohungarumlaut.ss10" horiz-adv-x="1605" 
d="M694 1561l152 286h-53l-152 -286h53zM926 1561l149 286h-53l-150 -286h54zM1407 1434v-1434h-1208v1434h1208zM248 45h1110v1344h-1110v-1344z" />
    <glyph glyph-name="Omacron.ss10" horiz-adv-x="1605" 
d="M475 1599v46h655v-46h-655zM1407 1434v-1434h-1208v1434h1208zM248 45h1110v1344h-1110v-1344z" />
    <glyph glyph-name="uni01EA.ss10" horiz-adv-x="1605" 
d="M977 0q-99 -36 -157 -101.5t-58 -146.5q0 -52 33 -85.5t92 -33.5q79 0 129 33l18 -39q-69 -37 -147 -37t-124 45.5t-46 116.5q0 146 168 248h-686v1434h1208v-1434h-430zM248 45h1110v1344h-1110v-1344z" />
    <glyph glyph-name="Oslash.ss10" horiz-adv-x="1603" 
d="M1407 1413v-1413h-1165l-113 -137l-37 31l107 129v1411h1161l113 137l38 -31zM248 1389v-1307l1075 1307h-1075zM279 45h1079v1309z" />
    <glyph glyph-name="S.ss12" horiz-adv-x="1118" 
d="M508 1434h416v-45h-416q-168 0 -267.5 -75t-99.5 -200q0 -76 29 -134t78.5 -94t114.5 -63t136 -47.5t142.5 -41t136 -50t114.5 -68.5t79.5 -102t29.5 -145q0 -174 -119.5 -271.5t-334.5 -97.5h-453v45h453q193 0 301 85.5t108 238.5q0 94 -47.5 159.5t-123.5 101
t-167.5 62t-183 55.5t-167.5 69.5t-123.5 115.5t-47.5 182q0 145 112 232.5t300 87.5z" />
    <glyph glyph-name="Sacute.ss12" horiz-adv-x="1118" 
d="M756 1827l-183 -266h-51l160 266h74zM508 1434h416v-45h-416q-168 0 -267.5 -75t-99.5 -200q0 -76 29 -134t78.5 -94t114.5 -63t136 -47.5t142.5 -41t136 -50t114.5 -68.5t79.5 -102t29.5 -145q0 -174 -119.5 -271.5t-334.5 -97.5h-453v45h453q193 0 301 85.5t108 238.5
q0 94 -47.5 159.5t-123.5 101t-167.5 62t-183 55.5t-167.5 69.5t-123.5 115.5t-47.5 182q0 145 112 232.5t300 87.5z" />
    <glyph glyph-name="Scaron.ss12" horiz-adv-x="1118" 
d="M600 1561h-61l-177 266h48l159 -223l158 223h47zM141 1114q0 -76 29 -134t78.5 -94t114.5 -63t136 -47.5t142.5 -41t136 -50t114.5 -68.5t79.5 -102t29.5 -145q0 -174 -119.5 -271.5t-334.5 -97.5h-453v45h453q193 0 301 85.5t108 238.5q0 94 -47.5 159.5t-123.5 101
t-167.5 62t-183 55.5t-167.5 69.5t-123.5 115.5t-47.5 182q0 145 112 232.5t300 87.5h416v-45h-416q-168 0 -267.5 -75t-99.5 -200z" />
    <glyph glyph-name="Scedilla.ss12" horiz-adv-x="1118" 
d="M1001 369q0 -169 -112.5 -266t-315.5 -103q82 -73 109.5 -151t6 -137t-81 -98.5t-142.5 -43.5l-14 41q110 16 161.5 72t30 140.5t-118.5 176.5h-430v45h453q193 0 301 85.5t108 238.5q0 94 -47.5 159.5t-123.5 101t-167.5 62t-183 55.5t-167.5 69.5t-123.5 115.5
t-47.5 182q0 145 112 232.5t300 87.5h416v-45h-416q-168 0 -267.5 -75t-99.5 -200q0 -76 29 -134t78.5 -94t114.5 -63t136 -47.5t142.5 -41t136 -50t114.5 -68.5t79.5 -102t29.5 -145z" />
    <glyph glyph-name="Scircumflex.ss12" horiz-adv-x="1118" 
d="M569 1804l-159 -223h-48l177 266h61l174 -266h-47zM141 1114q0 -76 29 -134t78.5 -94t114.5 -63t136 -47.5t142.5 -41t136 -50t114.5 -68.5t79.5 -102t29.5 -145q0 -174 -119.5 -271.5t-334.5 -97.5h-453v45h453q193 0 301 85.5t108 238.5q0 94 -47.5 159.5t-123.5 101
t-167.5 62t-183 55.5t-167.5 69.5t-123.5 115.5t-47.5 182q0 145 112 232.5t300 87.5h416v-45h-416q-168 0 -267.5 -75t-99.5 -200z" />
    <glyph glyph-name="uni0218.ss12" horiz-adv-x="1118" 
d="M508 1434h416v-45h-416q-168 0 -267.5 -75t-99.5 -200q0 -76 29 -134t78.5 -94t114.5 -63t136 -47.5t142.5 -41t136 -50t114.5 -68.5t79.5 -102t29.5 -145q0 -174 -119.5 -271.5t-334.5 -97.5h-453v45h453q193 0 301 85.5t108 238.5q0 94 -47.5 159.5t-123.5 101
t-167.5 62t-183 55.5t-167.5 69.5t-123.5 115.5t-47.5 182q0 145 112 232.5t300 87.5zM608 -164l-182 -266h-51l160 266h73z" />
    <glyph glyph-name="D.ss16" horiz-adv-x="1458" 
d="M647 1434q143 0 270.5 -53.5t219 -146.5t145 -226t53.5 -285q0 -151 -53.5 -285.5t-145 -230.5t-219 -151.5t-270.5 -55.5h-579v45h168v1389h411zM647 45q134 0 252.5 52t203 141.5t134 215.5t49.5 269t-49 267.5t-133.5 211.5t-203 137t-253.5 50h-362v-1344h362z" />
    <glyph glyph-name="Eth.ss16" horiz-adv-x="1458" 
d="M647 1434q143 0 270.5 -53.5t219 -146.5t145 -226t53.5 -285q0 -151 -53.5 -285.5t-145 -230.5t-219 -151.5t-270.5 -55.5h-579v45h168v649h-164v45h164v695h411zM647 45q134 0 252.5 52t203 141.5t134 215.5t49.5 269t-49 267.5t-133.5 211.5t-203 137t-253.5 50h-362
v-650h352v-45h-352v-649h362z" />
    <glyph glyph-name="Dcaron.ss16" horiz-adv-x="1458" 
d="M721 1561h-62l-176 266h47l160 -223l158 223h47zM647 1434q143 0 270.5 -53.5t219 -146.5t145 -226t53.5 -285q0 -151 -53.5 -285.5t-145 -230.5t-219 -151.5t-270.5 -55.5h-579v45h168v1389h411zM647 45q134 0 252.5 52t203 141.5t134 215.5t49.5 269t-49 267.5
t-133.5 211.5t-203 137t-253.5 50h-362v-1344h362z" />
    <glyph glyph-name="Dcroat.ss16" horiz-adv-x="1458" 
d="M647 1434q143 0 270.5 -53.5t219 -146.5t145 -226t53.5 -285q0 -151 -53.5 -285.5t-145 -230.5t-219 -151.5t-270.5 -55.5h-579v45h168v649h-164v45h164v695h411zM647 45q134 0 252.5 52t203 141.5t134 215.5t49.5 269t-49 267.5t-133.5 211.5t-203 137t-253.5 50h-362
v-650h352v-45h-352v-649h362z" />
    <glyph glyph-name="J.ss17" horiz-adv-x="735" 
d="M537 1434v-1434h-496v45h446v1389h50z" />
    <glyph glyph-name="Jcircumflex.ss17" horiz-adv-x="735" 
d="M545 1847l174 -266h-47l-158 223l-160 -223h-47l176 266h62zM487 45v1389h50v-1434h-496v45h446z" />
    <glyph glyph-name="L.ss18" horiz-adv-x="1150" 
d="M1059 45v-45h-991v45h168v1389h49v-1389h774z" />
    <glyph glyph-name="Lacute.ss18" horiz-adv-x="1150" 
d="M449 1827l-183 -266h-51l160 266h74zM1059 45v-45h-991v45h168v1389h49v-1389h774z" />
    <glyph glyph-name="Lcaron.ss18" horiz-adv-x="1150" 
d="M766 1524l-59 -408h-41l45 408h55zM1059 45v-45h-991v45h168v1389h49v-1389h774z" />
    <glyph glyph-name="uni013B.ss18" horiz-adv-x="1150" 
d="M1059 45v-45h-991v45h168v1389h49v-1389h774zM471 -430l160 266h74l-183 -266h-51z" />
    <glyph glyph-name="Ldot.ss18" horiz-adv-x="1150" 
d="M1059 45v-45h-991v45h168v1389h49v-1389h774zM772 659q-31 0 -51.5 20.5t-20.5 51.5t20.5 52.5t51.5 21.5t51.5 -21.5t20.5 -52.5t-20.5 -51.5t-51.5 -20.5z" />
    <glyph glyph-name="Lslash.ss18" horiz-adv-x="1150" 
d="M1059 45v-45h-991v45h168v571l-168 -79v47l168 78v772h49v-750l454 213v-45l-454 -213v-594h774z" />
    <glyph glyph-name="M.swsh" horiz-adv-x="2086" 
d="M1987 0l-461 1386l-447 -1386h-57l-457 1386l-465 -1386h-51l488 1434h57l455 -1385l448 1385h57l484 -1434h-51z" />
    <glyph glyph-name="G.titl" horiz-adv-x="1603" 
d="M1544 717v-45h-149v-463q-204 -229 -557 -229q-203 0 -367 96t-256 266t-92 381t92.5 378t255.5 260t367 93q226 0 397.5 -126.5t222.5 -330.5h-51q-51 184 -208.5 298t-360.5 114q-142 0 -266 -51.5t-211.5 -142t-138 -218t-50.5 -274.5q0 -197 85.5 -356.5t238 -250.5
t342.5 -91q308 0 508 194v453h-492v45h690z" />
    <glyph glyph-name="Gbreve.titl" horiz-adv-x="1603" 
d="M811 1561q-116 0 -192.5 81.5t-79.5 208.5h45q3 -108 67 -177.5t160 -69.5q97 0 161.5 69.5t65.5 177.5h45q-1 -127 -78 -208.5t-194 -81.5zM1544 717v-45h-149v-463q-204 -229 -557 -229q-203 0 -367 96t-256 266t-92 381t92.5 378t255.5 260t367 93q226 0 397.5 -126.5
t222.5 -330.5h-51q-51 184 -208.5 298t-360.5 114q-142 0 -266 -51.5t-211.5 -142t-138 -218t-50.5 -274.5q0 -197 85.5 -356.5t238 -250.5t342.5 -91q308 0 508 194v453h-492v45h690z" />
    <glyph glyph-name="Gcircumflex.titl" horiz-adv-x="1603" 
d="M811 1804l-160 -223h-47l176 266h62l174 -266h-47zM1544 717v-45h-149v-463q-204 -229 -557 -229q-203 0 -367 96t-256 266t-92 381t92.5 378t255.5 260t367 93q226 0 397.5 -126.5t222.5 -330.5h-51q-51 184 -208.5 298t-360.5 114q-142 0 -266 -51.5t-211.5 -142
t-138 -218t-50.5 -274.5q0 -197 85.5 -356.5t238 -250.5t342.5 -91q308 0 508 194v453h-492v45h690z" />
    <glyph glyph-name="uni0122.titl" horiz-adv-x="1603" 
d="M1544 717v-45h-149v-463q-204 -229 -557 -229q-203 0 -367 96t-256 266t-92 381t92.5 378t255.5 260t367 93q226 0 397.5 -126.5t222.5 -330.5h-51q-51 184 -208.5 298t-360.5 114q-142 0 -266 -51.5t-211.5 -142t-138 -218t-50.5 -274.5q0 -197 85.5 -356.5t238 -250.5
t342.5 -91q308 0 508 194v453h-492v45h690zM637 -430l160 266h73l-182 -266h-51z" />
    <glyph glyph-name="Gdotaccent.titl" horiz-adv-x="1603" 
d="M811 1606q-25 0 -42 16.5t-17 42.5q0 22 17.5 38.5t41.5 16.5q22 0 40.5 -17t18.5 -38q0 -25 -18 -42t-41 -17zM1544 717v-45h-149v-463q-204 -229 -557 -229q-203 0 -367 96t-256 266t-92 381t92.5 378t255.5 260t367 93q226 0 397.5 -126.5t222.5 -330.5h-51
q-51 184 -208.5 298t-360.5 114q-142 0 -266 -51.5t-211.5 -142t-138 -218t-50.5 -274.5q0 -197 85.5 -356.5t238 -250.5t342.5 -91q308 0 508 194v453h-492v45h690z" />
    <glyph glyph-name="I.titl" horiz-adv-x="671" 
d="M532 1389h-172v-1344h172v-45h-393v45h172v1344h-172v45h393v-45z" />
    <glyph glyph-name="IJ.titl" horiz-adv-x="1417" 
d="M532 1434v-45h-172v-1344h172v-45h-393v45h172v1344h-172v45h393zM1229 1434v-45h-176v-1000q0 -207 -78 -308t-236 -101h-26v45h26q134 0 199.5 90t65.5 274v1000h-168v45h393z" />
    <glyph glyph-name="Iacute.titl" horiz-adv-x="671" 
d="M524 1827l-182 -266h-51l160 266h73zM532 1389h-172v-1344h172v-45h-393v45h172v1344h-172v45h393v-45z" />
    <glyph glyph-name="Ibreve.titl" horiz-adv-x="671" 
d="M338 1561q-116 0 -192.5 81.5t-79.5 208.5h45q3 -108 67 -177.5t160 -69.5q97 0 161.5 69.5t65.5 177.5h45q-1 -127 -78 -208.5t-194 -81.5zM532 1434v-45h-172v-1344h172v-45h-393v45h172v1344h-172v45h393z" />
    <glyph glyph-name="Icircumflex.titl" horiz-adv-x="671" 
d="M338 1804l-160 -223h-47l176 266h62l174 -266h-47zM532 1434v-45h-172v-1344h172v-45h-393v45h172v1344h-172v45h393z" />
    <glyph glyph-name="Idieresis.titl" horiz-adv-x="671" 
d="M219 1606q-25 0 -42 16.5t-17 42.5q0 22 17.5 38.5t41.5 16.5q22 0 41 -17t19 -38q0 -25 -18.5 -42t-41.5 -17zM457 1606q-25 0 -42.5 16.5t-17.5 42.5q0 22 17.5 38.5t42.5 16.5q22 0 40.5 -17t18.5 -38q0 -25 -18 -42t-41 -17zM532 1389h-172v-1344h172v-45h-393v45
h172v1344h-172v45h393v-45z" />
    <glyph glyph-name="Idotaccent.titl" horiz-adv-x="671" 
d="M338 1606q-25 0 -42 16.5t-17 42.5q0 22 17.5 38.5t41.5 16.5q22 0 40.5 -17t18.5 -38q0 -25 -18 -42t-41 -17zM532 1389h-172v-1344h172v-45h-393v45h172v1344h-172v45h393v-45z" />
    <glyph glyph-name="Igrave.titl" horiz-adv-x="671" 
d="M369 1561h-52l-182 266h74zM532 1389h-172v-1344h172v-45h-393v45h172v1344h-172v45h393v-45z" />
    <glyph glyph-name="Imacron.titl" horiz-adv-x="671" 
d="M10 1645h656v-46h-656v46zM532 1434v-45h-172v-1344h172v-45h-393v45h172v1344h-172v45h393z" />
    <glyph glyph-name="Iogonek.titl" horiz-adv-x="671" 
d="M549 -334l18 -39q-69 -37 -147 -37t-124 45.5t-46 116.5q0 146 168 248h-279v45h172v1344h-172v45h393v-45h-172v-1344h172v-45h-22q-99 -36 -157 -101.5t-58 -146.5q0 -52 33.5 -85.5t91.5 -33.5q79 0 129 33z" />
    <glyph glyph-name="Itilde.titl" horiz-adv-x="671" 
d="M584 1761l45 -4q-3 -75 -45.5 -121.5t-104.5 -46.5q-36 0 -77 20t-71 43.5t-67.5 43.5t-68.5 20q-46 0 -76 -35.5t-29 -91.5l-45 4q3 75 45.5 121.5t104.5 46.5q36 0 77 -20t72 -43.5t68.5 -43.5t66.5 -20q46 0 76 35.5t29 91.5zM532 1434v-45h-172v-1344h172v-45h-393
v45h172v1344h-172v45h393z" />
    <glyph glyph-name="J.titl" horiz-adv-x="745" 
d="M557 1434v-45h-176v-1000q0 -207 -77.5 -308t-235.5 -101h-27v45h27q134 0 199 90t65 274v1000h-168v45h393z" />
    <glyph glyph-name="Jcircumflex.titl" horiz-adv-x="745" 
d="M360 1804l-159 -223h-47l176 266h61l174 -266h-47zM557 1434v-45h-176v-1000q0 -207 -77.5 -308t-235.5 -101h-27v45h27q134 0 199 90t65 274v1000h-168v45h393z" />
    <glyph glyph-name="T.titl" horiz-adv-x="1204" 
d="M1133 1389h-506v-1344h172v-45h-393v45h172v1344h-506v45h1061v-45z" />
    <glyph glyph-name="Tbar.titl" horiz-adv-x="1204" 
d="M1133 1389h-506v-650h258v-45h-258v-649h172v-45h-393v45h172v649h-259v45h259v650h-506v45h1061v-45z" />
    <glyph glyph-name="Tcaron.titl" horiz-adv-x="1204" 
d="M633 1561h-62l-176 266h47l160 -223l158 223h47zM1133 1389h-506v-1344h172v-45h-393v45h172v1344h-506v45h1061v-45z" />
    <glyph glyph-name="uni0162.titl" horiz-adv-x="1204" 
d="M1133 1389h-506v-1344h172v-45h-150q82 -73 109.5 -151t6 -137t-81 -98.5t-142.5 -43.5l-15 41q82 12 132.5 48t62.5 87t-18 118t-103 136h-194v45h172v1344h-506v45h1061v-45z" />
    <glyph glyph-name="uni021A.titl" horiz-adv-x="1204" 
d="M1133 1389h-506v-1344h172v-45h-393v45h172v1344h-506v45h1061v-45zM451 -430l159 266h74l-182 -266h-51z" />
    <glyph glyph-name="Y.titl" horiz-adv-x="1181" 
d="M618 670v-625h173v-45h-394v45h172v625l-520 764h57l488 -717l481 717h58z" />
    <glyph glyph-name="Yacute.titl" horiz-adv-x="1181" 
d="M762 1827l-182 -266h-52l160 266h74zM618 670v-625h173v-45h-394v45h172v625l-520 764h57l488 -717l481 717h58z" />
    <glyph glyph-name="Ycircumflex.titl" horiz-adv-x="1181" 
d="M575 1804l-159 -223h-47l176 266h61l174 -266h-47zM618 670v-625h173v-45h-394v45h172v625l-520 764h57l488 -717l481 717h58z" />
    <glyph glyph-name="Ydieresis.titl" horiz-adv-x="1181" 
d="M457 1606q-25 0 -42.5 16.5t-17.5 42.5q0 22 17.5 38.5t42.5 16.5q22 0 40.5 -17t18.5 -38q0 -25 -18 -42t-41 -17zM694 1606q-25 0 -42 16.5t-17 42.5q0 22 17.5 38.5t41.5 16.5q22 0 41 -17t19 -38q0 -25 -18.5 -42t-41.5 -17zM618 670v-625h173v-45h-394v45h172v625
l-520 764h57l488 -717l481 717h58z" />
    <glyph glyph-name="Ygrave.titl" horiz-adv-x="1181" 
d="M606 1561h-51l-182 266h73zM618 670v-625h173v-45h-394v45h172v625l-520 764h57l488 -717l481 717h58z" />
    <glyph glyph-name="i.loclTRK" horiz-adv-x="397" 
d="M201 1382q22 0 40.5 -17t18.5 -38q0 -25 -18 -42t-41 -17q-25 0 -42.5 16.5t-17.5 42.5q0 22 17.5 38.5t42.5 16.5zM174 989h49v-989h-49v989z" />
    <glyph glyph-name="eth.alt" horiz-adv-x="1208" 
d="M969 897q65 -102 101 -212t36 -198q0 -212 -150.5 -361t-365.5 -149q-140 0 -258.5 68t-187 185.5t-68.5 256.5q0 218 150 368.5t368 150.5q97 0 196.5 -43t159.5 -111l-276 434l-246 -137l-22 39l241 137l-123 195h54l108 -172l260 147l23 -41l-258 -145zM590 23
q198 0 334.5 134.5t136.5 329.5q0 198 -136 336t-331 138q-198 0 -335.5 -138t-137.5 -336q0 -195 136 -329.5t333 -134.5z" />
    <glyph glyph-name="germandbls.calt" horiz-adv-x="1198" 
d="M618 1454q153 0 272.5 -92.5t145.5 -231.5l-403 -372q46 4 67 4q192 0 302 -102t110 -277q0 -158 -113.5 -270.5t-269.5 -112.5h-317v45h317q139 0 236.5 98.5t97.5 237.5q0 157 -92 247.5t-254 90.5h-127l-12 43l407 377q-28 116 -131 194t-236 78q-161 0 -265.5 -103
t-104.5 -259v-1049h-49v1049q0 175 118.5 290t300.5 115z" />
    <glyph glyph-name="iacute_j.loclNLD" horiz-adv-x="794" 
d="M387 1382l-182 -266h-51l159 266h74zM782 1382l-182 -266h-51l160 266h73zM174 989h49v-989h-49v989zM399 -381h19q79 0 116 62.5t37 197.5v1110h50v-1110q0 -161 -47 -235t-148 -74h-27v49z" />
    <glyph glyph-name="a.ss01" horiz-adv-x="1048" 
d="M512 1010q175 0 281 -104t106 -277v-629h-49v182q-67 -100 -173 -151t-231 -51q-151 0 -242 75.5t-91 196.5q0 319 536 319h201v56q0 154 -92 246t-246 92q-131 0 -227 -81.5t-103 -199.5h-49q6 137 115.5 231.5t263.5 94.5zM446 25q125 0 231 55.5t173 163.5v282h-186
q-502 0 -502 -274q0 -101 77.5 -164t206.5 -63z" />
    <glyph glyph-name="aacute.ss01" horiz-adv-x="1048" 
d="M702 1382l-182 -266h-51l160 266h73zM512 1010q175 0 281 -104t106 -277v-629h-49v182q-67 -100 -173 -151t-231 -51q-151 0 -242 75.5t-91 196.5q0 319 536 319h201v56q0 154 -92 246t-246 92q-131 0 -227 -81.5t-103 -199.5h-49q6 137 115.5 231.5t263.5 94.5zM446 25
q125 0 231 55.5t173 163.5v282h-186q-502 0 -502 -274q0 -101 77.5 -164t206.5 -63z" />
    <glyph glyph-name="abreve.ss01" horiz-adv-x="1048" 
d="M516 1116q-116 0 -192.5 82t-79.5 209h45q3 -108 67 -178t160 -70q97 0 161.5 70t65.5 178h45q-1 -127 -78 -209t-194 -82zM512 1010q175 0 281 -104t106 -277v-629h-49v182q-67 -100 -173 -151t-231 -51q-151 0 -242 75.5t-91 196.5q0 319 536 319h201v56q0 154 -92 246
t-246 92q-131 0 -227 -81.5t-103 -199.5h-49q6 137 115.5 231.5t263.5 94.5zM446 25q125 0 231 55.5t173 163.5v282h-186q-502 0 -502 -274q0 -101 77.5 -164t206.5 -63z" />
    <glyph glyph-name="acircumflex.ss01" horiz-adv-x="1048" 
d="M516 1360l-160 -223h-47l176 266h62l174 -266h-47zM512 1010q175 0 281 -104t106 -277v-629h-49v182q-67 -100 -173 -151t-231 -51q-151 0 -242 75.5t-91 196.5q0 319 536 319h201v56q0 154 -92 246t-246 92q-131 0 -227 -81.5t-103 -199.5h-49q6 137 115.5 231.5
t263.5 94.5zM446 25q125 0 231 55.5t173 163.5v282h-186q-502 0 -502 -274q0 -101 77.5 -164t206.5 -63z" />
    <glyph glyph-name="adieresis.ss01" horiz-adv-x="1048" 
d="M399 1268q-25 0 -42 16.5t-17 42.5q0 22 17.5 38.5t41.5 16.5q22 0 41 -17t19 -38q0 -25 -18.5 -42t-41.5 -17zM637 1268q-25 0 -42 16.5t-17 42.5q0 22 17.5 38.5t41.5 16.5q22 0 40.5 -17t18.5 -38q0 -25 -18 -42t-41 -17zM512 1010q175 0 281 -104t106 -277v-629h-49
v182q-67 -100 -173 -151t-231 -51q-151 0 -242 75.5t-91 196.5q0 319 536 319h201v56q0 154 -92 246t-246 92q-131 0 -227 -81.5t-103 -199.5h-49q6 137 115.5 231.5t263.5 94.5zM446 25q125 0 231 55.5t173 163.5v282h-186q-502 0 -502 -274q0 -101 77.5 -164t206.5 -63z
" />
    <glyph glyph-name="agrave.ss01" horiz-adv-x="1048" 
d="M547 1116h-51l-183 266h74zM512 1010q175 0 281 -104t106 -277v-629h-49v182q-67 -100 -173 -151t-231 -51q-151 0 -242 75.5t-91 196.5q0 319 536 319h201v56q0 154 -92 246t-246 92q-131 0 -227 -81.5t-103 -199.5h-49q6 137 115.5 231.5t263.5 94.5zM446 25
q125 0 231 55.5t173 163.5v282h-186q-502 0 -502 -274q0 -101 77.5 -164t206.5 -63z" />
    <glyph glyph-name="amacron.ss01" horiz-adv-x="1048" 
d="M844 1200v-45h-656v45h656zM512 1010q175 0 281 -104t106 -277v-629h-49v182q-67 -100 -173 -151t-231 -51q-151 0 -242 75.5t-91 196.5q0 319 536 319h201v56q0 154 -92 246t-246 92q-131 0 -227 -81.5t-103 -199.5h-49q6 137 115.5 231.5t263.5 94.5zM446 25
q125 0 231 55.5t173 163.5v282h-186q-502 0 -502 -274q0 -101 77.5 -164t206.5 -63z" />
    <glyph glyph-name="aogonek.ss01" horiz-adv-x="1048" 
d="M938 -334l18 -39q-69 -37 -147 -37t-124 45.5t-46 116.5q0 83 56 153t155 118v159q-67 -100 -173 -151t-231 -51q-151 0 -242 75.5t-91 196.5q0 319 536 319h201v56q0 154 -92 246t-246 92q-131 0 -227 -81.5t-103 -199.5h-49q6 137 115.5 231.5t263.5 94.5
q175 0 281 -104t106 -277v-629q-99 -36 -157 -101.5t-58 -146.5q0 -52 33 -85.5t92 -33.5q79 0 129 33zM446 25q125 0 231 55.5t173 163.5v282h-186q-502 0 -502 -274q0 -101 77.5 -164t206.5 -63z" />
    <glyph glyph-name="aring.ss01" horiz-adv-x="1048" 
d="M516 1116q-92 0 -151.5 57t-59.5 146q0 88 59.5 144.5t151.5 56.5t151.5 -56.5t59.5 -144.5q0 -89 -59.5 -146t-151.5 -57zM516 1477q-72 0 -119 -45t-47 -113q0 -69 47 -114.5t119 -45.5t119 45.5t47 114.5q0 68 -47 113t-119 45zM512 1010q175 0 281 -104t106 -277
v-629h-49v182q-67 -100 -173 -151t-231 -51q-151 0 -242 75.5t-91 196.5q0 319 536 319h201v56q0 154 -92 246t-246 92q-131 0 -227 -81.5t-103 -199.5h-49q6 137 115.5 231.5t263.5 94.5zM446 25q125 0 231 55.5t173 163.5v282h-186q-502 0 -502 -274q0 -101 77.5 -164
t206.5 -63z" />
    <glyph glyph-name="atilde.ss01" horiz-adv-x="1048" 
d="M373 1272q-46 0 -76 -35.5t-29 -91.5l-45 4q3 75 45.5 121.5t104.5 46.5q36 0 77 -20t72 -43.5t68.5 -43.5t66.5 -20q46 0 76 35.5t29 91.5l45 -4q-3 -75 -45.5 -121.5t-104.5 -46.5q-36 0 -77 20t-71 43.5t-67.5 43.5t-68.5 20zM512 1010q175 0 281 -104t106 -277v-629
h-49v182q-67 -100 -173 -151t-231 -51q-151 0 -242 75.5t-91 196.5q0 319 536 319h201v56q0 154 -92 246t-246 92q-131 0 -227 -81.5t-103 -199.5h-49q6 137 115.5 231.5t263.5 94.5zM446 25q125 0 231 55.5t173 163.5v282h-186q-502 0 -502 -274q0 -101 77.5 -164
t206.5 -63z" />
    <glyph glyph-name="ae.ss01" horiz-adv-x="1912" 
d="M1806 526h-907v-26q0 -204 126 -339.5t318 -135.5q154 0 268 74.5t140 197.5h49q-30 -143 -158 -230t-299 -87q-149 0 -267 76.5t-177 207.5v-264h-49v182q-67 -100 -173 -151t-231 -51q-151 0 -242 75.5t-91 196.5q0 319 536 319h201v56q0 154 -92 246t-246 92
q-131 0 -227 -81.5t-103 -199.5h-49q6 137 115.5 231.5t263.5 94.5q153 0 254.5 -80.5t126.5 -220.5q58 136 179 218.5t271 82.5q198 0 330.5 -135.5t132.5 -335.5v-13zM1343 965q-169 0 -292 -112t-148 -282h854q-8 168 -126 281t-288 113zM850 244v282h-186
q-502 0 -502 -274q0 -101 77.5 -164t206.5 -63q125 0 231 55.5t173 163.5z" />
    <glyph glyph-name="aeacute.ss01" horiz-adv-x="1912" 
d="M1143 1382l-182 -266h-52l160 266h74zM1806 526h-907v-26q0 -204 126 -339.5t318 -135.5q154 0 268 74.5t140 197.5h49q-30 -143 -158 -230t-299 -87q-149 0 -267 76.5t-177 207.5v-264h-49v182q-67 -100 -173 -151t-231 -51q-151 0 -242 75.5t-91 196.5q0 319 536 319
h201v56q0 154 -92 246t-246 92q-131 0 -227 -81.5t-103 -199.5h-49q6 137 115.5 231.5t263.5 94.5q153 0 254.5 -80.5t126.5 -220.5q58 136 179 218.5t271 82.5q198 0 330.5 -135.5t132.5 -335.5v-13zM1343 965q-169 0 -292 -112t-148 -282h854q-8 168 -126 281t-288 113z
M850 244v282h-186q-502 0 -502 -274q0 -101 77.5 -164t206.5 -63q125 0 231 55.5t173 163.5z" />
    <glyph glyph-name="a.ss02" horiz-adv-x="1081" 
d="M184 989h723v-989h-49v195q-66 -106 -174.5 -160.5t-237.5 -54.5q-152 0 -242.5 80t-90.5 212q0 151 136.5 235.5t379.5 84.5h229v352h-674v45zM446 25q130 0 238 58.5t174 172.5v291h-229q-223 0 -347 -72.5t-124 -202.5q0 -112 78.5 -179.5t209.5 -67.5z" />
    <glyph glyph-name="aacute.ss02" horiz-adv-x="1081" 
d="M731 1382l-182 -266h-51l159 266h74zM184 989h723v-989h-49v195q-66 -106 -174.5 -160.5t-237.5 -54.5q-152 0 -242.5 80t-90.5 212q0 151 136.5 235.5t379.5 84.5h229v352h-674v45zM446 25q130 0 238 58.5t174 172.5v291h-229q-223 0 -347 -72.5t-124 -202.5
q0 -112 78.5 -179.5t209.5 -67.5z" />
    <glyph glyph-name="abreve.ss02" horiz-adv-x="1081" 
d="M545 1116q-116 0 -193 82t-80 209h45q3 -108 67.5 -178t160.5 -70q97 0 161.5 70t65.5 178h45q-1 -127 -78 -209t-194 -82zM184 989h723v-989h-49v195q-66 -106 -174.5 -160.5t-237.5 -54.5q-152 0 -242.5 80t-90.5 212q0 151 136.5 235.5t379.5 84.5h229v352h-674v45z
M446 25q130 0 238 58.5t174 172.5v291h-229q-223 0 -347 -72.5t-124 -202.5q0 -112 78.5 -179.5t209.5 -67.5z" />
    <glyph glyph-name="acircumflex.ss02" horiz-adv-x="1081" 
d="M545 1360l-160 -223h-47l176 266h61l175 -266h-48zM184 989h723v-989h-49v195q-66 -106 -174.5 -160.5t-237.5 -54.5q-152 0 -242.5 80t-90.5 212q0 151 136.5 235.5t379.5 84.5h229v352h-674v45zM446 25q130 0 238 58.5t174 172.5v291h-229q-223 0 -347 -72.5
t-124 -202.5q0 -112 78.5 -179.5t209.5 -67.5z" />
    <glyph glyph-name="adieresis.ss02" horiz-adv-x="1081" 
d="M428 1268q-25 0 -42 16.5t-17 42.5q0 22 17.5 38.5t41.5 16.5q22 0 40.5 -17t18.5 -38q0 -25 -18 -42t-41 -17zM666 1268q-25 0 -42.5 16.5t-17.5 42.5q0 22 17.5 38.5t42.5 16.5q22 0 40.5 -17t18.5 -38q0 -25 -18 -42t-41 -17zM184 989h723v-989h-49v195
q-66 -106 -174.5 -160.5t-237.5 -54.5q-152 0 -242.5 80t-90.5 212q0 151 136.5 235.5t379.5 84.5h229v352h-674v45zM446 25q130 0 238 58.5t174 172.5v291h-229q-223 0 -347 -72.5t-124 -202.5q0 -112 78.5 -179.5t209.5 -67.5z" />
    <glyph glyph-name="agrave.ss02" horiz-adv-x="1081" 
d="M567 1116h-51l-182 266h74zM184 989h723v-989h-49v195q-66 -106 -174.5 -160.5t-237.5 -54.5q-152 0 -242.5 80t-90.5 212q0 151 136.5 235.5t379.5 84.5h229v352h-674v45zM446 25q130 0 238 58.5t174 172.5v291h-229q-223 0 -347 -72.5t-124 -202.5q0 -112 78.5 -179.5
t209.5 -67.5z" />
    <glyph glyph-name="amacron.ss02" horiz-adv-x="1081" 
d="M872 1200v-45h-655v45h655zM184 989h723v-989h-49v195q-66 -106 -174.5 -160.5t-237.5 -54.5q-152 0 -242.5 80t-90.5 212q0 151 136.5 235.5t379.5 84.5h229v352h-674v45zM446 25q130 0 238 58.5t174 172.5v291h-229q-223 0 -347 -72.5t-124 -202.5q0 -112 78.5 -179.5
t209.5 -67.5z" />
    <glyph glyph-name="aogonek.ss02" horiz-adv-x="1081" 
d="M946 -334l19 -39q-69 -37 -148 -37q-78 0 -124 45.5t-46 116.5q0 83 56 153t155 118v172q-66 -106 -174.5 -160.5t-237.5 -54.5q-152 0 -242.5 80t-90.5 212q0 151 136.5 235.5t379.5 84.5h229v352h-674v45h723v-989q-99 -36 -157 -101.5t-58 -146.5q0 -52 33 -85.5
t92 -33.5q79 0 129 33zM446 25q130 0 238 58.5t174 172.5v291h-229q-223 0 -347 -72.5t-124 -202.5q0 -112 78.5 -179.5t209.5 -67.5z" />
    <glyph glyph-name="aring.ss02" horiz-adv-x="1081" 
d="M545 1116q-92 0 -151.5 57t-59.5 146q0 88 59.5 144.5t151.5 56.5t151.5 -56.5t59.5 -144.5q0 -89 -59.5 -146t-151.5 -57zM545 1477q-72 0 -119 -45t-47 -113q0 -69 47 -114.5t119 -45.5t119 45.5t47 114.5q0 68 -47 113t-119 45zM184 989h723v-989h-49v195
q-66 -106 -174.5 -160.5t-237.5 -54.5q-152 0 -242.5 80t-90.5 212q0 151 136.5 235.5t379.5 84.5h229v352h-674v45zM446 25q130 0 238 58.5t174 172.5v291h-229q-223 0 -347 -72.5t-124 -202.5q0 -112 78.5 -179.5t209.5 -67.5z" />
    <glyph glyph-name="atilde.ss02" horiz-adv-x="1081" 
d="M401 1272q-46 0 -75.5 -35.5t-28.5 -91.5l-45 4q3 76 45 122t104 46q36 0 77 -20t72.5 -43.5t69 -43.5t66.5 -20q46 0 76 35.5t29 91.5l45 -4q-3 -75 -45.5 -121.5t-104.5 -46.5q-36 0 -77 20t-71 43.5t-68 43.5t-69 20zM184 989h723v-989h-49v195
q-66 -106 -174.5 -160.5t-237.5 -54.5q-152 0 -242.5 80t-90.5 212q0 151 136.5 235.5t379.5 84.5h229v352h-674v45zM446 25q130 0 238 58.5t174 172.5v291h-229q-223 0 -347 -72.5t-124 -202.5q0 -112 78.5 -179.5t209.5 -67.5z" />
    <glyph glyph-name="ae.ss02" horiz-adv-x="1921" 
d="M1819 526h-912v-26q0 -135 60 -244.5t161.5 -170t223.5 -60.5q137 0 243 55.5t160 155.5l39 -23q-59 -108 -176.5 -170.5t-265.5 -62.5q-145 0 -265 77.5t-180 208.5v-266h-49v195q-66 -106 -174.5 -160.5t-237.5 -54.5q-152 0 -242.5 80t-90.5 212q0 148 134.5 223.5
t381.5 75.5h229v373h-674v45h723v-266q61 131 180 209t265 78q198 0 332.5 -135.5t134.5 -335.5v-13zM1352 965q-169 0 -292.5 -112t-148.5 -282h858q-8 167 -127.5 280.5t-289.5 113.5zM858 256v270h-229q-228 0 -349.5 -63t-121.5 -191q0 -112 78.5 -179.5t209.5 -67.5
q130 0 238 58.5t174 172.5z" />
    <glyph glyph-name="aeacute.ss02" horiz-adv-x="1921" 
d="M1147 1382l-182 -266h-52l160 266h74zM1819 526h-912v-26q0 -135 60 -244.5t161.5 -170t223.5 -60.5q137 0 243 55.5t160 155.5l39 -23q-59 -108 -176.5 -170.5t-265.5 -62.5q-145 0 -265 77.5t-180 208.5v-266h-49v195q-66 -106 -174.5 -160.5t-237.5 -54.5
q-152 0 -242.5 80t-90.5 212q0 148 134.5 223.5t381.5 75.5h229v373h-674v45h723v-266q61 131 180 209t265 78q198 0 332.5 -135.5t134.5 -335.5v-13zM1352 965q-169 0 -292.5 -112t-148.5 -282h858q-8 167 -127.5 280.5t-289.5 113.5zM858 256v270h-229q-228 0 -349.5 -63
t-121.5 -191q0 -112 78.5 -179.5t209.5 -67.5q130 0 238 58.5t174 172.5z" />
    <glyph glyph-name="c.ss03" horiz-adv-x="1044" 
d="M891 944h-668v-899h668v-45h-717v989h717v-45z" />
    <glyph glyph-name="cacute.ss03" horiz-adv-x="1044" 
d="M713 1382l-183 -266h-51l160 266h74zM891 944h-668v-899h668v-45h-717v989h717v-45z" />
    <glyph glyph-name="ccaron.ss03" horiz-adv-x="1044" 
d="M557 1116h-61l-177 266h48l159 -223l158 223h47zM891 944h-668v-899h668v-45h-717v989h717v-45z" />
    <glyph glyph-name="ccedilla.ss03" horiz-adv-x="1044" 
d="M891 944h-668v-899h668v-45h-326q82 -73 109.5 -151t6 -137t-81 -98.5t-142.5 -43.5l-15 41q82 12 132.5 48t62.5 87t-18 118t-103 136h-342v989h717v-45z" />
    <glyph glyph-name="ccircumflex.ss03" horiz-adv-x="1044" 
d="M526 1360l-159 -223h-48l177 266h61l174 -266h-47zM891 944h-668v-899h668v-45h-717v989h717v-45z" />
    <glyph glyph-name="cdotaccent.ss03" horiz-adv-x="1044" 
d="M526 1382q22 0 41 -17t19 -38q0 -25 -18.5 -42t-41.5 -17q-25 0 -42 16.5t-17 42.5q0 22 17.5 38.5t41.5 16.5zM891 944h-668v-899h668v-45h-717v989h717v-45z" />
    <glyph glyph-name="g.ss04" horiz-adv-x="1228" 
d="M1006 989h49v-1399h-766v45h717v545q-50 -84 -161 -142t-227 -58q-222 0 -369 147t-147 369q0 221 147.5 367.5t368.5 146.5q119 0 230.5 -59t157.5 -144v182zM618 25q115 0 225.5 62.5t162.5 158.5v495q-51 98 -161.5 161t-226.5 63q-200 0 -333 -133.5t-133 -335.5
t133 -336.5t333 -134.5z" />
    <glyph glyph-name="gbreve.ss04" horiz-adv-x="1228" 
d="M614 1116q-116 0 -192.5 82t-79.5 209h45q3 -108 67 -178t160 -70q97 0 162 70t66 178h45q-1 -127 -78.5 -209t-194.5 -82zM1006 989h49v-1399h-766v45h717v545q-50 -84 -161 -142t-227 -58q-222 0 -369 147t-147 369q0 221 147.5 367.5t368.5 146.5q119 0 230.5 -59
t157.5 -144v182zM618 25q115 0 225.5 62.5t162.5 158.5v495q-51 98 -161.5 161t-226.5 63q-200 0 -333 -133.5t-133 -335.5t133 -336.5t333 -134.5z" />
    <glyph glyph-name="gcircumflex.ss04" horiz-adv-x="1228" 
d="M614 1360l-159 -223h-47l176 266h61l174 -266h-47zM1006 989h49v-1399h-766v45h717v545q-50 -84 -161 -142t-227 -58q-222 0 -369 147t-147 369q0 221 147.5 367.5t368.5 146.5q119 0 230.5 -59t157.5 -144v182zM618 25q115 0 225.5 62.5t162.5 158.5v495
q-51 98 -161.5 161t-226.5 63q-200 0 -333 -133.5t-133 -335.5t133 -336.5t333 -134.5z" />
    <glyph glyph-name="uni0123.ss04" horiz-adv-x="1228" 
d="M795 1382l-160 -266h-74l182 266h52zM1006 989h49v-1399h-766v45h717v545q-50 -84 -161 -142t-227 -58q-222 0 -369 147t-147 369q0 221 147.5 367.5t368.5 146.5q119 0 230.5 -59t157.5 -144v182zM618 25q115 0 225.5 62.5t162.5 158.5v495q-51 98 -161.5 161t-226.5 63
q-200 0 -333 -133.5t-133 -335.5t133 -336.5t333 -134.5z" />
    <glyph glyph-name="gdotaccent.ss04" horiz-adv-x="1228" 
d="M614 1268q-25 0 -42 16.5t-17 42.5q0 22 17.5 38.5t41.5 16.5q22 0 41 -17t19 -38q0 -25 -18.5 -42t-41.5 -17zM1006 989h49v-1399h-766v45h717v545q-50 -84 -161 -142t-227 -58q-222 0 -369 147t-147 369q0 221 147.5 367.5t368.5 146.5q119 0 230.5 -59t157.5 -144v182
zM618 25q115 0 225.5 62.5t162.5 158.5v495q-51 98 -161.5 161t-226.5 63q-200 0 -333 -133.5t-133 -335.5t133 -336.5t333 -134.5z" />
    <glyph glyph-name="h.ss05" horiz-adv-x="1173" 
d="M223 1434v-445h776v-989h-49v944h-727v-944h-49v1434h49z" />
    <glyph glyph-name="hbar.ss05" horiz-adv-x="1173" 
d="M223 989h776v-989h-49v944h-727v-944h-49v1202h-254v45h254v187h49v-187h262v-45h-262v-213z" />
    <glyph glyph-name="hcircumflex.ss05" horiz-adv-x="1173" 
d="M356 1581l-157 223l-160 -223h-47l176 266h61l174 -266h-47zM223 989h776v-989h-49v944h-727v-944h-49v1434h49v-445z" />
    <glyph glyph-name="j.ss06" horiz-adv-x="397" 
d="M199 1382q22 0 40.5 -17t18.5 -38q0 -25 -18 -42t-41 -17q-25 0 -42.5 16.5t-17.5 42.5q0 22 17.5 38.5t42.5 16.5zM223 989v-1399h-49v1399h49z" />
    <glyph glyph-name="uni0237.ss06" horiz-adv-x="397" 
d="M223 989v-1399h-49v1399h49z" />
    <glyph glyph-name="jcircumflex.ss06" horiz-adv-x="397" 
d="M229 1403l174 -266h-47l-157 223l-160 -223h-47l176 266h61zM174 -410v1399h49v-1399h-49z" />
    <glyph glyph-name="l.ss07" horiz-adv-x="473" 
d="M223 1434v-1389h168v-45h-217v1434h49z" />
    <glyph glyph-name="lacute.ss07" horiz-adv-x="473" 
d="M387 1827l-182 -266h-51l159 266h74zM223 1434v-1389h168v-45h-217v1434h49z" />
    <glyph glyph-name="lcaron.ss07" horiz-adv-x="473" 
d="M403 1524l-59 -408h-41l45 408h55zM223 1434v-1389h168v-45h-217v1434h49z" />
    <glyph glyph-name="uni013C.ss07" horiz-adv-x="473" 
d="M223 1434v-1389h168v-45h-217v1434h49zM332 -164l-182 -266h-52l160 266h74z" />
    <glyph glyph-name="ldot.ss07" horiz-adv-x="489" 
d="M223 1434v-1389h168v-45h-217v1434h49zM449 618q-31 0 -51.5 20.5t-20.5 51.5t20.5 52.5t51.5 21.5q30 0 50.5 -21.5t20.5 -52.5t-20 -51.5t-51 -20.5z" />
    <glyph glyph-name="lslash.ss07" horiz-adv-x="473" 
d="M391 932l-168 -76v-811h168v-45h-217v834l-166 -76v45l166 76v555h49v-533l168 78v-47z" />
    <glyph glyph-name="m.ss08" horiz-adv-x="1851" 
d="M1677 989v-989h-49v944h-678v-944h-49v944h-678v-944h-49v989h1503z" />
    <glyph glyph-name="n.ss09" horiz-adv-x="1173" 
d="M999 989v-989h-49v944h-727v-944h-49v989h825z" />
    <glyph glyph-name="nacute.ss09" horiz-adv-x="1173" 
d="M774 1382l-182 -266h-51l159 266h74zM999 989v-989h-49v944h-727v-944h-49v989h825z" />
    <glyph glyph-name="ncaron.ss09" horiz-adv-x="1173" 
d="M618 1116h-61l-176 266h47l160 -223l157 223h48zM174 989h825v-989h-49v944h-727v-944h-49v989z" />
    <glyph glyph-name="uni0146.ss09" horiz-adv-x="1173" 
d="M999 989v-989h-49v944h-727v-944h-49v989h825zM666 -164l-183 -266h-51l160 266h74z" />
    <glyph glyph-name="eng.ss09" horiz-adv-x="1136" 
d="M174 989h825v-1110q0 -161 -46.5 -235t-147.5 -74q-25 0 -39 2l4 49q10 -2 27 -2q79 0 116 62.5t37 197.5v1065h-727v-944h-49v989z" />
    <glyph glyph-name="ntilde.ss09" horiz-adv-x="1173" 
d="M295 1149q3 76 45 122t104 46q36 0 77 -20t72.5 -43.5t69 -43.5t66.5 -20q46 0 76 35.5t29 91.5l45 -4q-3 -75 -45.5 -121.5t-104.5 -46.5q-36 0 -77 20t-71 43.5t-68 43.5t-69 20q-46 0 -75.5 -35.5t-28.5 -91.5zM999 989v-989h-49v944h-727v-944h-49v989h825z" />
    <glyph glyph-name="o.ss10" horiz-adv-x="1173" 
d="M999 989v-989h-825v989h825zM950 944h-727v-899h727v899z" />
    <glyph glyph-name="oacute.ss10" horiz-adv-x="1173" 
d="M774 1382l-182 -266h-51l159 266h74zM999 989v-989h-825v989h825zM950 944h-727v-899h727v899z" />
    <glyph glyph-name="obreve.ss10" horiz-adv-x="1173" 
d="M860 1407q-1 -127 -78 -209t-194 -82q-116 0 -193 82t-80 209h45q3 -108 67.5 -178t160.5 -70q97 0 161.5 70t65.5 178h45zM999 989v-989h-825v989h825zM950 944h-727v-899h727v899z" />
    <glyph glyph-name="ocircumflex.ss10" horiz-adv-x="1173" 
d="M588 1360l-160 -223h-47l176 266h61l175 -266h-48zM174 989h825v-989h-825v989zM950 45v899h-727v-899h727z" />
    <glyph glyph-name="odieresis.ss10" horiz-adv-x="1173" 
d="M471 1382q22 0 40.5 -17t18.5 -38q0 -25 -18 -42t-41 -17q-25 0 -42 16.5t-17 42.5q0 22 17.5 38.5t41.5 16.5zM709 1382q22 0 40.5 -17t18.5 -38q0 -25 -18 -42t-41 -17q-25 0 -42.5 16.5t-17.5 42.5q0 22 17.5 38.5t42.5 16.5zM999 989v-989h-825v989h825zM950 944
h-727v-899h727v899z" />
    <glyph glyph-name="ograve.ss10" horiz-adv-x="1173" 
d="M385 1382h74l159 -266h-51zM999 989v-989h-825v989h825zM950 944h-727v-899h727v899z" />
    <glyph glyph-name="ohungarumlaut.ss10" horiz-adv-x="1173" 
d="M479 1116l152 287h-53l-152 -287h53zM711 1116l149 287h-53l-150 -287h54zM999 989v-989h-825v989h825zM950 944h-727v-899h727v899z" />
    <glyph glyph-name="omacron.ss10" horiz-adv-x="1173" 
d="M260 1155v45h655v-45h-655zM999 989v-989h-825v989h825zM950 944h-727v-899h727v899z" />
    <glyph glyph-name="oslash.ss10" horiz-adv-x="1314" 
d="M1071 965v-965h-788l-74 -90l-35 29l72 88v962h784l74 90l37 -28zM295 944v-858l698 858h-698zM319 45h703v860z" />
    <glyph glyph-name="otilde.ss10" horiz-adv-x="1173" 
d="M295 1149q3 76 45 122t104 46q36 0 77 -20t72.5 -43.5t69 -43.5t66.5 -20q46 0 76 35.5t29 91.5l45 -4q-3 -75 -45.5 -121.5t-104.5 -46.5q-36 0 -77 20t-71 43.5t-68 43.5t-69 20q-46 0 -75.5 -35.5t-28.5 -91.5zM999 989v-989h-825v989h825zM950 944h-727v-899h727v899
z" />
    <glyph glyph-name="oe.ss10" horiz-adv-x="2019" 
d="M1913 526h-907v-26q0 -204 126 -339.5t318 -135.5q154 0 268 74.5t140 197.5h49q-30 -143 -158 -230t-299 -87q-153 0 -273 81t-178 218v-279h-825v989h825v-278q59 136 180 217.5t271 81.5q198 0 330.5 -135.5t132.5 -335.5v-13zM1450 965q-169 0 -292 -112t-148 -282
h854q-8 168 -126 281t-288 113zM950 45v899h-727v-899h727z" />
    <glyph glyph-name="r.ss11" horiz-adv-x="679" 
d="M623 989v-45h-400v-944h-49v989h449z" />
    <glyph glyph-name="racute.ss11" horiz-adv-x="679" 
d="M586 1382l-183 -266h-51l160 266h74zM623 989v-45h-400v-944h-49v989h449z" />
    <glyph glyph-name="rcaron.ss11" horiz-adv-x="679" 
d="M430 1116h-61l-176 266h47l159 -223l158 223h47zM174 989h449v-45h-400v-944h-49v989z" />
    <glyph glyph-name="uni0157.ss11" horiz-adv-x="679" 
d="M623 989v-45h-400v-944h-49v989h449zM270 -164l-182 -266h-51l160 266h73z" />
    <glyph glyph-name="s.ss12" horiz-adv-x="892" 
d="M436 0h-307v45h307q149 0 232.5 58.5t83.5 164.5q0 67 -35.5 111.5t-92 66t-125 37t-137.5 32t-125.5 42t-92 76t-35.5 125.5q0 109 80.5 170t224.5 61h313v-45h-313q-123 0 -191.5 -49t-68.5 -137q0 -65 35.5 -108t92 -64.5t125 -36.5t137.5 -32t125.5 -43t92 -78
t35.5 -128q0 -127 -95 -197.5t-266 -70.5z" />
    <glyph glyph-name="sacute.ss12" horiz-adv-x="892" 
d="M651 1382l-182 -266h-51l160 266h73zM436 0h-307v45h307q149 0 232.5 58.5t83.5 164.5q0 67 -35.5 111.5t-92 66t-125 37t-137.5 32t-125.5 42t-92 76t-35.5 125.5q0 109 80.5 170t224.5 61h313v-45h-313q-123 0 -191.5 -49t-68.5 -137q0 -65 35.5 -108t92 -64.5
t125 -36.5t137.5 -32t125.5 -43t92 -78t35.5 -128q0 -127 -95 -197.5t-266 -70.5z" />
    <glyph glyph-name="scaron.ss12" horiz-adv-x="892" 
d="M496 1116h-62l-176 266h47l160 -223l158 223h47zM154 758q0 -65 35.5 -108t92 -64.5t125 -36.5t137.5 -32t125.5 -43t92 -78t35.5 -128q0 -127 -95 -197.5t-266 -70.5h-307v45h307q149 0 232.5 58.5t83.5 164.5q0 67 -35.5 111.5t-92 66t-125 37t-137.5 32t-125.5 42
t-92 76t-35.5 125.5q0 109 80.5 170t224.5 61h313v-45h-313q-123 0 -191.5 -49t-68.5 -137z" />
    <glyph glyph-name="scedilla.ss12" horiz-adv-x="892" 
d="M797 268q0 -120 -83.5 -189t-234.5 -77q67 -59 99.5 -122t28 -116t-32.5 -96.5t-81 -69t-120 -28.5l-15 41q82 12 132.5 48t62.5 87t-18 118t-103 136h-303v45h307q149 0 232.5 58.5t83.5 164.5q0 67 -35.5 111.5t-92 66t-125 37t-137.5 32t-125.5 42t-92 76t-35.5 125.5
q0 109 80.5 170t224.5 61h313v-45h-313q-123 0 -191.5 -49t-68.5 -137q0 -65 35.5 -108t92 -64.5t125 -36.5t137.5 -32t125.5 -43t92 -78t35.5 -128z" />
    <glyph glyph-name="scircumflex.ss12" horiz-adv-x="892" 
d="M465 1360l-160 -223h-47l176 266h62l174 -266h-47zM154 758q0 -65 35.5 -108t92 -64.5t125 -36.5t137.5 -32t125.5 -43t92 -78t35.5 -128q0 -127 -95 -197.5t-266 -70.5h-307v45h307q149 0 232.5 58.5t83.5 164.5q0 67 -35.5 111.5t-92 66t-125 37t-137.5 32t-125.5 42
t-92 76t-35.5 125.5q0 109 80.5 170t224.5 61h313v-45h-313q-123 0 -191.5 -49t-68.5 -137z" />
    <glyph glyph-name="uni0219.ss12" horiz-adv-x="892" 
d="M436 0h-307v45h307q149 0 232.5 58.5t83.5 164.5q0 67 -35.5 111.5t-92 66t-125 37t-137.5 32t-125.5 42t-92 76t-35.5 125.5q0 109 80.5 170t224.5 61h313v-45h-313q-123 0 -191.5 -49t-68.5 -137q0 -65 35.5 -108t92 -64.5t125 -36.5t137.5 -32t125.5 -43t92 -78
t35.5 -128q0 -127 -95 -197.5t-266 -70.5zM516 -164l-182 -266h-51l159 266h74z" />
    <glyph glyph-name="t.ss13" horiz-adv-x="671" 
d="M621 989v-45h-271v-944h-49v944h-270v45h270v279h49v-279h271z" />
    <glyph glyph-name="tbar.ss13" horiz-adv-x="671" 
d="M621 944h-271v-426h203v-45h-203v-473h-49v473h-201v45h201v426h-270v45h270v279h49v-279h271v-45z" />
    <glyph glyph-name="tcaron.ss13" horiz-adv-x="671" 
d="M614 1524l-59 -408h-41l45 408h55zM621 989v-45h-271v-944h-49v944h-270v45h270v279h49v-279h271z" />
    <glyph glyph-name="uni0163.ss13" horiz-adv-x="671" 
d="M621 944h-271v-926q74 -60 112 -125.5t36 -120t-29.5 -100t-82 -72.5t-122.5 -30l-14 41q82 12 132.5 48t62.5 87t-18 118t-103 136h-23v944h-270v45h270v279h49v-279h271v-45z" />
    <glyph glyph-name="uni021B.ss13" horiz-adv-x="671" 
d="M350 989h271v-45h-271v-944h-49v944h-270v45h270v279h49v-279zM174 -430l160 266h74l-183 -266h-51z" />
    <glyph glyph-name="u.ss14" 
d="M1044 989v-536q0 -215 -119 -344t-317 -129q-197 0 -315.5 129t-118.5 344v536h49v-536q0 -195 105 -311.5t280 -116.5t281 116.5t106 311.5v536h49z" />
    <glyph glyph-name="uacute.ss14" 
d="M797 1382l-183 -266h-51l160 266h74zM1044 989v-536q0 -215 -119 -344t-317 -129q-197 0 -315.5 129t-118.5 344v536h49v-536q0 -195 105 -311.5t280 -116.5t281 116.5t106 311.5v536h49z" />
    <glyph glyph-name="ucircumflex.ss14" 
d="M610 1360l-159 -223h-48l177 266h61l174 -266h-47zM995 989h49v-536q0 -215 -119 -344t-317 -129q-197 0 -315.5 129t-118.5 344v536h49v-536q0 -195 105 -311.5t280 -116.5t281 116.5t106 311.5v536z" />
    <glyph glyph-name="udieresis.ss14" 
d="M494 1382q22 0 40.5 -17t18.5 -38q0 -25 -18 -42t-41 -17q-25 0 -42.5 16.5t-17.5 42.5q0 22 17.5 38.5t42.5 16.5zM731 1382q22 0 41 -17t19 -38q0 -25 -18.5 -42t-41.5 -17q-25 0 -42 16.5t-17 42.5q0 22 17.5 38.5t41.5 16.5zM1044 989v-536q0 -215 -119 -344
t-317 -129q-197 0 -315.5 129t-118.5 344v536h49v-536q0 -195 105 -311.5t280 -116.5t281 116.5t106 311.5v536h49z" />
    <glyph glyph-name="ugrave.ss14" 
d="M408 1382h73l160 -266h-51zM1044 989v-536q0 -215 -119 -344t-317 -129q-197 0 -315.5 129t-118.5 344v536h49v-536q0 -195 105 -311.5t280 -116.5t281 116.5t106 311.5v536h49z" />
    <glyph glyph-name="uhungarumlaut.ss14" 
d="M502 1116l151 287h-53l-151 -287h53zM733 1116l150 287h-54l-149 -287h53zM1044 989v-536q0 -215 -119 -344t-317 -129q-197 0 -315.5 129t-118.5 344v536h49v-536q0 -195 105 -311.5t280 -116.5t281 116.5t106 311.5v536h49z" />
    <glyph glyph-name="umacron.ss14" 
d="M283 1155v45h655v-45h-655zM1044 989v-536q0 -215 -119 -344t-317 -129q-197 0 -315.5 129t-118.5 344v536h49v-536q0 -195 105 -311.5t280 -116.5t281 116.5t106 311.5v536h49z" />
    <glyph glyph-name="uogonek.ss14" 
d="M995 989h49v-536q0 -176 -80 -295.5t-221 -159.5q-96 -37 -152 -102t-56 -144q0 -53 33 -86t91 -33q79 0 129 33l19 -39q-69 -37 -148 -37q-78 0 -124 45.5t-46 116.5q0 133 138 228h-19q-197 0 -315.5 129t-118.5 344v536h49v-536q0 -195 105 -311.5t280 -116.5
t281 116.5t106 311.5v536z" />
    <glyph glyph-name="uring.ss14" 
d="M610 1116q-92 0 -151.5 57t-59.5 146q0 88 59.5 144.5t151.5 56.5t151.5 -56.5t59.5 -144.5q0 -89 -59.5 -146t-151.5 -57zM610 1159q72 0 119 45.5t47 114.5q0 68 -47 113t-119 45t-119 -45t-47 -113q0 -69 47 -114.5t119 -45.5zM1044 989v-536q0 -215 -119 -344
t-317 -129q-197 0 -315.5 129t-118.5 344v536h49v-536q0 -195 105 -311.5t280 -116.5t281 116.5t106 311.5v536h49z" />
    <glyph glyph-name="utilde.ss14" 
d="M317 1149q3 75 45.5 121.5t104.5 46.5q36 0 77 -20t72.5 -43.5t69 -43.5t66.5 -20q46 0 75.5 35.5t28.5 91.5l45 -4q-3 -76 -45 -122t-104 -46q-36 0 -77 20t-71 43.5t-68 43.5t-69 20q-46 0 -76 -35.5t-29 -91.5zM1044 989v-536q0 -215 -119 -344t-317 -129
q-197 0 -315.5 129t-118.5 344v536h49v-536q0 -195 105 -311.5t280 -116.5t281 116.5t106 311.5v536h49z" />
    <glyph glyph-name="u.ss15" horiz-adv-x="1173" 
d="M999 0h-825v989h49v-944h727v944h49v-989z" />
    <glyph glyph-name="uacute.ss15" horiz-adv-x="1173" 
d="M774 1382l-182 -266h-51l159 266h74zM999 0h-825v989h49v-944h727v944h49v-989z" />
    <glyph glyph-name="ucircumflex.ss15" horiz-adv-x="1173" 
d="M588 1360l-160 -223h-47l176 266h61l175 -266h-48zM950 989h49v-989h-825v989h49v-944h727v944z" />
    <glyph glyph-name="udieresis.ss15" horiz-adv-x="1173" 
d="M471 1382q22 0 40.5 -17t18.5 -38q0 -25 -18 -42t-41 -17q-25 0 -42 16.5t-17 42.5q0 22 17.5 38.5t41.5 16.5zM709 1382q22 0 40.5 -17t18.5 -38q0 -25 -18 -42t-41 -17q-25 0 -42.5 16.5t-17.5 42.5q0 22 17.5 38.5t42.5 16.5zM999 0h-825v989h49v-944h727v944h49v-989
z" />
    <glyph glyph-name="ugrave.ss15" horiz-adv-x="1173" 
d="M385 1382h74l159 -266h-51zM999 0h-825v989h49v-944h727v944h49v-989z" />
    <glyph glyph-name="uhungarumlaut.ss15" horiz-adv-x="1173" 
d="M479 1116l152 287h-53l-152 -287h53zM711 1116l149 287h-53l-150 -287h54zM999 0h-825v989h49v-944h727v944h49v-989z" />
    <glyph glyph-name="umacron.ss15" horiz-adv-x="1173" 
d="M260 1155v45h655v-45h-655zM999 0h-825v989h49v-944h727v944h49v-989z" />
    <glyph glyph-name="uogonek.ss15" horiz-adv-x="1173" 
d="M737 0q-99 -36 -157 -101.5t-58 -146.5q0 -52 33 -85.5t92 -33.5q79 0 129 33l19 -39q-69 -37 -148 -37q-78 0 -124 45.5t-46 116.5q0 146 168 248h-471v989h49v-944h727v944h49v-989h-262z" />
    <glyph glyph-name="uring.ss15" horiz-adv-x="1173" 
d="M588 1116q-92 0 -151.5 57t-59.5 146q0 88 59.5 144.5t151.5 56.5t151.5 -56.5t59.5 -144.5q0 -89 -59.5 -146t-151.5 -57zM588 1159q72 0 119 45.5t47 114.5q0 68 -47 113t-119 45t-119 -45t-47 -113q0 -69 47 -114.5t119 -45.5zM999 0h-825v989h49v-944h727v944h49
v-989z" />
    <glyph glyph-name="utilde.ss15" horiz-adv-x="1173" 
d="M295 1149q3 76 45 122t104 46q36 0 77 -20t72.5 -43.5t69 -43.5t66.5 -20q46 0 76 35.5t29 91.5l45 -4q-3 -75 -45.5 -121.5t-104.5 -46.5q-36 0 -77 20t-71 43.5t-68 43.5t-69 20q-46 0 -75.5 -35.5t-28.5 -91.5zM999 0h-825v989h49v-944h727v944h49v-989z" />
    <glyph glyph-name="uni00CD00A40301" horiz-adv-x="1015" 
d="M410 1827l-183 -266h-51l160 266h74zM995 1827l-182 -266h-51l160 266h73zM199 1434h49v-1434h-49v1434zM487 25h27q134 0 199 90t65 274v1045h49v-1045q0 -207 -77.5 -308t-235.5 -101h-27v45z" />
    <glyph glyph-name="T_h.dlig" horiz-adv-x="2422" 
d="M1839 1010q182 0 296 -120t114 -312v-578h-49v578q0 172 -100.5 279.5t-260.5 107.5q-126 0 -235 -60.5t-166 -161.5v-743h-49v1389h-762v-1389h-49v1389h-506v45h1366v-627q54 92 163.5 147.5t237.5 55.5z" />
    <glyph glyph-name="T_i.dlig" horiz-adv-x="1452" 
d="M1133 1434v-45h-506v-1389h-49v1389h-506v45h1061zM1229 989h49v-989h-49v989z" />
    <glyph glyph-name="f_f.dlig" horiz-adv-x="1185" 
d="M1079 1397q-115 0 -175 -55.5t-60 -186.5v-166h303v-45h-303v-944h-49v944h-496v-944h-49v944h-205v45h205v166q0 150 73.5 217.5t211.5 67.5q37 0 67 -6v-45q-27 8 -67 8q-115 0 -175.5 -56t-60.5 -186v-166h496v166q0 150 73 217.5t211 67.5q38 0 68 -6v-45
q-27 8 -68 8z" />
    <glyph glyph-name="f_f_i.dlig" horiz-adv-x="1554" 
d="M1380 989v-989h-49v944h-487v-944h-49v944h-496v-944h-49v944h-205v45h205v166q0 150 73.5 217.5t211.5 67.5q37 0 67 -6v-45q-27 8 -67 8q-115 0 -175.5 -56t-60.5 -186v-166h496v166q0 150 73 217.5t211 67.5q38 0 68 -6v-45q-27 8 -68 8q-115 0 -175 -55.5t-60 -186.5
v-166h536z" />
    <glyph glyph-name="f_f_t.dlig" horiz-adv-x="1761" 
d="M1683 944h-303v-665q0 -130 60.5 -186t175.5 -56q40 0 67 8v-45q-30 -6 -67 -6q-138 0 -211.5 67.5t-73.5 217.5v665h-487v-944h-49v944h-496v-944h-49v944h-205v45h205v166q0 150 73.5 217.5t211.5 67.5q37 0 67 -6v-45q-27 8 -67 8q-115 0 -175.5 -56t-60.5 -186v-166
h496v166q0 150 73 217.5t211 67.5q38 0 68 -6v-45q-27 8 -68 8q-115 0 -175 -55.5t-60 -186.5v-166h487v283h49v-283h303v-45z" />
    <glyph glyph-name="f_i.dlig" horiz-adv-x="1009" 
d="M836 989v-989h-50v944h-487v-944h-49v944h-205v45h205v166q0 150 73.5 217.5t211.5 67.5q37 0 67 -6v-45q-27 8 -67 8q-115 0 -175.5 -56t-60.5 -186v-166h537z" />
    <glyph glyph-name="f_l.dlig" horiz-adv-x="1009" 
d="M786 1434h50v-1434h-50v944h-487v-944h-49v944h-205v45h205v166q0 150 73.5 217.5t211.5 67.5q37 0 67 -6v-45q-27 8 -67 8q-115 0 -175.5 -56t-60.5 -186v-166h487v445z" />
    <glyph glyph-name="f_t.dlig" horiz-adv-x="1216" 
d="M836 944v-665q0 -131 60 -186.5t175 -55.5q41 0 68 8v-45q-30 -6 -68 -6q-138 0 -211.5 67.5t-73.5 217.5v665h-487v-944h-49v944h-205v45h205v166q0 150 73.5 217.5t211.5 67.5q37 0 67 -6v-45q-27 8 -67 8q-115 0 -175.5 -56t-60.5 -186v-166h487v283h50v-283h303v-45
h-303z" />
    <glyph glyph-name="A.sinf" horiz-adv-x="780" 
d="M715 0l-101 248h-450l-98 -248h-46l347 860h47l346 -860h-45zM180 289h418l-209 520z" />
    <glyph glyph-name="B.sinf" horiz-adv-x="727" 
d="M115 0v860h284q96 0 164 -61t68 -148q0 -74 -47.5 -131.5t-114.5 -64.5q90 -6 149.5 -71.5t59.5 -152.5q0 -97 -69.5 -164t-170.5 -67h-323zM156 467h243q78 0 133.5 53.5t55.5 128.5q0 72 -55.5 122t-133.5 50h-243v-354zM156 39h280q86 0 142.5 56t56.5 138
t-57.5 138.5t-141.5 56.5h-280v-389z" />
    <glyph glyph-name="C.sinf" horiz-adv-x="927" 
d="M862 201q-40 -96 -139.5 -154.5t-222.5 -58.5q-186 0 -307 127t-121 319q0 188 121.5 313t306.5 125q116 0 212.5 -52t137.5 -138l-35 -18q-40 77 -126 123.5t-189 46.5q-168 0 -276.5 -114.5t-108.5 -285.5q0 -174 108.5 -290.5t276.5 -116.5q109 0 198 52t127 138z" />
    <glyph glyph-name="D.sinf" horiz-adv-x="839" 
d="M352 860q176 0 296 -121t120 -305t-120.5 -309t-295.5 -125h-237v860h237zM354 39q157 0 264 113.5t107 281.5t-106 277.5t-265 109.5h-196v-782h196z" />
    <glyph glyph-name="E.sinf" horiz-adv-x="649" 
d="M115 860h454v-39h-411v-332h366v-38h-366v-412h411v-39h-454v860z" />
    <glyph glyph-name="F.sinf" horiz-adv-x="622" 
d="M115 860h454v-39h-411v-334h366v-38h-366v-449h-43v860z" />
    <glyph glyph-name="G.sinf" horiz-adv-x="944" 
d="M541 395v39h297v-305q-122 -141 -336 -141q-186 0 -308 127t-122 319q0 190 122 314t308 124q115 0 211 -52t137 -138l-35 -18q-40 77 -126 123.5t-187 46.5q-167 0 -277 -113.5t-110 -286.5q0 -175 110 -291t277 -116q178 0 293 112v256h-254z" />
    <glyph glyph-name="H.sinf" horiz-adv-x="864" 
d="M709 860h41v-860h-41v428h-551v-428h-43v860h43v-393h551v393z" />
    <glyph glyph-name="I.sinf" horiz-adv-x="272" 
d="M115 860h43v-860h-43v860z" />
    <glyph glyph-name="J.sinf" horiz-adv-x="444" 
d="M348 860v-627q0 -245 -190 -245q-71 0 -133 32l14 39q53 -32 115 -32q153 0 153 209v624h41z" />
    <glyph glyph-name="K.sinf" horiz-adv-x="698" 
d="M678 0h-60l-462 438v-438h-41v860h41v-401l424 401h57l-436 -411z" />
    <glyph glyph-name="L.sinf" horiz-adv-x="669" 
d="M115 860h43v-821h458v-39h-501v860z" />
    <glyph glyph-name="M.sinf" horiz-adv-x="1091" 
d="M115 0v860h43l389 -797l387 797h43v-860h-41v764l-371 -764h-37l-370 764v-764h-43z" />
    <glyph glyph-name="N.sinf" horiz-adv-x="878" 
d="M115 860h49l557 -797v797h43v-860h-49l-557 797v-797h-43v860z" />
    <glyph glyph-name="O.sinf" horiz-adv-x="1003" 
d="M502 872q180 0 305 -127t125 -311q0 -188 -124.5 -317t-305.5 -129q-180 0 -305 129.5t-125 316.5q0 184 125 311t305 127zM502 834q-163 0 -275 -116.5t-112 -283.5q0 -170 112 -288.5t275 -118.5t275 118.5t112 288.5q0 167 -112 283.5t-275 116.5z" />
    <glyph glyph-name="P.sinf" horiz-adv-x="733" 
d="M449 860q97 0 164 -66t67 -163q0 -98 -67 -165t-164 -67h-291v-399h-43v860h334zM449 438q79 0 133.5 56.5t54.5 136.5q0 79 -55 134.5t-133 55.5h-291v-383h291z" />
    <glyph glyph-name="Q.sinf" horiz-adv-x="1003" 
d="M932 434q0 -96 -36.5 -181.5t-100.5 -148.5l79 -104h-49l-59 78q-117 -90 -264 -90q-180 0 -305 129.5t-125 316.5q0 184 125 311t305 127t305 -127t125 -311zM502 27q134 0 239 84l-219 286h49l199 -260q119 119 119 297q0 167 -112 283.5t-275 116.5t-275 -116.5
t-112 -283.5q0 -170 112 -288.5t275 -118.5z" />
    <glyph glyph-name="R.sinf" horiz-adv-x="733" 
d="M686 0h-49l-270 393h-209v-393h-43v860h301q106 0 174.5 -65.5t68.5 -165.5q0 -104 -68.5 -170t-174.5 -66h-2zM156 821l2 -389h256q89 0 146.5 55.5t57.5 141.5q0 83 -57.5 137.5t-146.5 54.5h-258z" />
    <glyph glyph-name="S.sinf" horiz-adv-x="681" 
d="M332 872q79 0 147.5 -27.5t102.5 -70.5l-29 -31q-31 41 -91.5 66t-129.5 25q-95 0 -157 -49t-62 -123q0 -58 28 -97.5t73 -60t99 -36t108 -31.5t99 -39t73 -66t28 -105q0 -104 -79 -171.5t-202 -67.5q-156 0 -297 104l25 35q131 -100 272 -100q104 0 171 56t67 142
q0 54 -28 91t-73 56.5t-99 34t-108 31.5t-99 40.5t-73 69.5t-28 111q0 92 74.5 152.5t187.5 60.5z" />
    <glyph glyph-name="T.sinf" horiz-adv-x="722" 
d="M682 860v-39h-299v-821h-43v821h-299v39h641z" />
    <glyph glyph-name="U.sinf" horiz-adv-x="870" 
d="M434 -12q-137 0 -228 93t-91 234v545h43v-545q0 -125 78 -206.5t198 -81.5t199.5 82t79.5 206v545h43v-545q0 -141 -92 -234t-230 -93z" />
    <glyph glyph-name="V.sinf" horiz-adv-x="755" 
d="M29 860h45l305 -809l305 809h43l-328 -860h-43z" />
    <glyph glyph-name="W.sinf" horiz-adv-x="1253" 
d="M1180 860h45l-289 -860h-45l-262 803l-264 -803h-43l-293 860h45l268 -807l268 807h41l262 -807z" />
    <glyph glyph-name="X.sinf" horiz-adv-x="700" 
d="M672 0h-49l-273 410l-272 -410h-49l297 446l-275 414h49l250 -377l250 377h49l-274 -414z" />
    <glyph glyph-name="Y.sinf" horiz-adv-x="720" 
d="M29 860h49l284 -418l281 418h49l-309 -459v-401h-41v401z" />
    <glyph glyph-name="Z.sinf" horiz-adv-x="704" 
d="M70 860h583v-35l-563 -786h569v-39h-620v35l567 786h-536v39z" />
    <glyph glyph-name="a.sinf" horiz-adv-x="735" 
d="M592 594h43v-594h-43v102q-30 -48 -94 -81t-131 -33q-132 0 -219 88.5t-87 220.5q0 133 87.5 221t218.5 88q68 0 132.5 -33t92.5 -81v102zM369 27q67 0 129.5 35t93.5 90v290q-31 57 -94.5 91t-128.5 34q-115 0 -192 -77t-77 -193t77 -193t192 -77z" />
    <glyph glyph-name="b.sinf" horiz-adv-x="735" 
d="M369 606q130 0 217.5 -88.5t87.5 -220.5t-87.5 -220.5t-217.5 -88.5q-69 0 -134.5 34t-93.5 84v-106h-41v860h41v-373q27 50 92 84.5t136 34.5zM365 27q115 0 192.5 77.5t77.5 192.5q0 117 -77 193.5t-193 76.5q-67 0 -132 -36.5t-92 -92.5v-282q29 -56 93 -92.5
t131 -36.5z" />
    <glyph glyph-name="c.sinf" horiz-adv-x="663" 
d="M623 131q-35 -66 -103.5 -104.5t-154.5 -38.5q-128 0 -216 89.5t-88 219.5q0 129 87.5 219t216.5 90q83 0 149 -38.5t92 -102.5l-35 -16q-22 53 -77.5 85.5t-128.5 32.5q-112 0 -188.5 -78t-76.5 -192t77 -192t188 -78q76 0 134 32t89 91z" />
    <glyph glyph-name="d.sinf" horiz-adv-x="735" 
d="M592 860h43v-860h-43v102q-30 -48 -94 -81t-131 -33q-132 0 -219 88.5t-87 220.5q0 133 87.5 221t218.5 88q68 0 132.5 -33t92.5 -81v368zM369 27q67 0 129.5 35t93.5 90v290q-31 57 -94.5 91t-128.5 34q-115 0 -192 -77t-77 -193t77 -193t192 -77z" />
    <glyph glyph-name="e.sinf" horiz-adv-x="698" 
d="M637 311h-539v-10q0 -120 75 -198t183 -78q79 0 141 31.5t93 88.5l33 -18q-35 -65 -106 -102t-161 -37q-124 0 -209.5 89t-85.5 224q0 127 86 216t209 89q119 0 200 -81t81 -201v-13zM356 569q-98 0 -169 -63.5t-85 -161.5h494q-4 96 -73.5 160.5t-166.5 64.5z" />
    <glyph glyph-name="f.sinf" horiz-adv-x="514" 
d="M172 0v555h-152v39h152v80q0 93 52.5 145.5t137.5 52.5q80 0 130 -38l-15 -37q-48 39 -115 39q-65 0 -107 -43t-42 -119v-80h256v-39h-256v-555h-41z" />
    <glyph glyph-name="g.sinf" horiz-adv-x="735" 
d="M592 594h43v-592q0 -118 -75.5 -188t-197.5 -70q-81 0 -152.5 29.5t-105.5 81.5l27 24q28 -44 91 -71t138 -27q104 0 168 60.5t64 160.5v100q-29 -46 -93.5 -79t-131.5 -33q-131 0 -218.5 88t-87.5 221q0 132 87.5 219.5t218.5 87.5q68 0 132.5 -33t92.5 -81v102zM369 27
q67 0 129.5 35.5t93.5 89.5v290q-29 55 -92.5 91t-130.5 36q-115 0 -192 -77t-77 -193q0 -117 77.5 -194.5t191.5 -77.5z" />
    <glyph glyph-name="h.sinf" horiz-adv-x="722" 
d="M377 606q110 0 178 -71.5t68 -188.5v-346h-43v344q0 101 -57 162t-150 61q-73 0 -136.5 -34.5t-95.5 -92.5v-440h-41v860h41v-373q30 52 94.5 85.5t141.5 33.5z" />
    <glyph glyph-name="i.sinf" horiz-adv-x="245" 
d="M123 836q15 0 29 -12.5t14 -26.5q0 -18 -13.5 -30.5t-29.5 -12.5q-17 0 -29 12t-12 31q0 14 12 26.5t29 12.5zM102 594h41v-594h-41v594z" />
    <glyph glyph-name="j.sinf" horiz-adv-x="239" 
d="M119 836q15 0 28 -12.5t13 -26.5q0 -18 -12.5 -30.5t-28.5 -12.5q-17 0 -29 12t-12 31q0 14 12 26.5t29 12.5zM98 594h41v-662q0 -91 -28.5 -139.5t-96.5 -48.5q-16 0 -26 2l4 39h16q49 0 69.5 37.5t20.5 111.5v660z" />
    <glyph glyph-name="k.sinf" horiz-adv-x="581" 
d="M553 0h-57l-355 305v-305h-41v860h41v-545l336 279h58l-345 -283z" />
    <glyph glyph-name="l.sinf" horiz-adv-x="241" 
d="M141 860v-860h-41v860h41z" />
    <glyph glyph-name="m.sinf" horiz-adv-x="1153" 
d="M807 606q116 0 181 -68.5t65 -189.5v-348h-41v346q0 104 -55 163.5t-152 59.5q-67 0 -127 -39t-92 -92q10 -45 10 -88v-350h-41v346q0 105 -54.5 164t-152.5 59q-67 0 -122 -34t-85 -89v-446h-41v594h41v-100q30 44 83.5 78t127.5 34q166 0 221 -131q98 131 234 131z" />
    <glyph glyph-name="n.sinf" horiz-adv-x="722" 
d="M377 606q110 0 178 -71.5t68 -188.5v-346h-43v344q0 101 -57 162t-150 61q-73 0 -136.5 -34.5t-95.5 -92.5v-440h-41v594h41v-107q33 56 97.5 87.5t138.5 31.5z" />
    <glyph glyph-name="o.sinf" horiz-adv-x="731" 
d="M365 606q127 0 216 -90t89 -219q0 -130 -88.5 -219.5t-216.5 -89.5t-216 89.5t-88 219.5q0 129 88.5 219t215.5 90zM365 567q-111 0 -188 -78t-77 -192t77 -192t188 -78t188.5 78t77.5 192t-77.5 192t-188.5 78z" />
    <glyph glyph-name="p.sinf" horiz-adv-x="735" 
d="M369 606q130 0 217.5 -88.5t87.5 -220.5t-87.5 -220.5t-217.5 -88.5q-71 0 -136.5 34t-91.5 84v-346h-41v834h41v-105q28 48 93.5 82.5t134.5 34.5zM365 27q116 0 193 76.5t77 193.5q0 115 -77.5 192.5t-192.5 77.5q-67 0 -131 -36.5t-93 -92.5v-282q27 -56 92.5 -92.5
t131.5 -36.5z" />
    <glyph glyph-name="q.sinf" horiz-adv-x="735" 
d="M592 594h43v-834h-43v342q-28 -48 -92 -81t-133 -33q-132 0 -219 88.5t-87 220.5q0 133 87.5 221t218.5 88q66 0 130.5 -32.5t94.5 -79.5v100zM369 27q67 0 130.5 35.5t92.5 89.5v290q-30 55 -94 90t-129 35q-115 0 -192 -77t-77 -193t77 -193t192 -77z" />
    <glyph glyph-name="r.sinf" horiz-adv-x="417" 
d="M313 606q44 0 68 -12l-4 -39q-24 12 -64 12q-46 0 -93 -34.5t-79 -92.5v-440h-41v594h41v-107q28 54 75 86.5t97 32.5z" />
    <glyph glyph-name="s.sinf" horiz-adv-x="540" 
d="M268 -12q-61 0 -121 24t-100 64l25 28q35 -36 88.5 -57.5t107.5 -21.5q78 0 126 37t48 100q0 38 -21 63t-54.5 37t-74.5 20.5t-81.5 18.5t-74 25t-54.5 45t-21 75q0 72 55 116t146 44q60 0 114 -22.5t83 -59.5l-31 -28q-24 34 -70.5 54.5t-95.5 20.5q-74 0 -119 -34
t-45 -91q0 -36 21 -60t55 -35.5t75 -20t81.5 -18.5t74.5 -25t55 -46t21 -77q0 -79 -59 -127.5t-154 -48.5z" />
    <glyph glyph-name="a.ss01.sinf" horiz-adv-x="626" 
d="M305 606q106 0 171 -62.5t65 -166.5v-377h-39v109q-39 -62 -102 -91.5t-134 -29.5q-90 0 -145 49t-55 127q0 90 82 141t225 51h129v21q0 85 -54 138.5t-143 53.5q-70 0 -124 -28t-77 -76l-32 20q30 56 90.5 88.5t142.5 32.5zM268 25q72 0 134.5 32.5t99.5 94.5v170h-129
q-127 0 -198 -41t-71 -115q0 -63 45.5 -102t118.5 -39z" />
    <glyph glyph-name="a.ss02.sinf" horiz-adv-x="645" 
d="M106 594h439v-594h-41v115q-39 -65 -103.5 -96t-136.5 -31q-90 0 -145.5 49t-55.5 127q0 90 82.5 141t225.5 51h133v201h-398v37zM266 25q73 0 137 34.5t101 98.5v164h-133q-127 0 -198 -41t-71 -115q0 -63 45.5 -102t118.5 -39z" />
    <glyph glyph-name="c.ss03.sinf" horiz-adv-x="686" 
d="M532 555h-391v-516h391v-39h-432v594h432v-39z" />
    <glyph glyph-name="g.ss04.sinf" horiz-adv-x="733" 
d="M168 -205h424v311q-30 -48 -94 -81t-131 -33q-131 0 -218.5 87.5t-87.5 219.5t87.5 219.5t218.5 87.5q69 0 133 -33.5t92 -83.5v105h41v-836h-465v37zM369 29q66 0 129.5 35.5t93.5 91.5v286q-29 55 -92.5 91t-130.5 36q-115 0 -192 -77t-77 -193t77 -193t192 -77z" />
    <glyph glyph-name="h.ss05.sinf" horiz-adv-x="700" 
d="M141 860v-266h459v-594h-41v555h-418v-555h-41v860h41z" />
    <glyph glyph-name="j.ss06.sinf" horiz-adv-x="243" 
d="M121 836q15 0 29 -12.5t14 -26.5q0 -18 -13.5 -30.5t-29.5 -12.5q-17 0 -29 12t-12 31q0 14 12 26.5t29 12.5zM141 594v-836h-41v836h41z" />
    <glyph glyph-name="l.ss07.sinf" horiz-adv-x="288" 
d="M141 860v-821h101v-39h-142v860h41z" />
    <glyph glyph-name="m.ss08.sinf" horiz-adv-x="1103" 
d="M1004 594v-594h-41v555h-390v-555h-43v555h-389v-555h-41v594h904z" />
    <glyph glyph-name="n.ss09.sinf" horiz-adv-x="700" 
d="M600 594v-594h-41v555h-418v-555h-41v594h500z" />
    <glyph glyph-name="O.ss10.sinf" horiz-adv-x="958" 
d="M801 860h43v-860h-729v860h43v-4h643v4zM158 39h643v778h-643v-778z" />
    <glyph glyph-name="o.ss10.sinf" horiz-adv-x="700" 
d="M600 594v-594h-500v594h500zM559 555h-418v-516h418v516z" />
    <glyph glyph-name="r.ss11.sinf" horiz-adv-x="444" 
d="M377 594v-39h-236v-555h-41v594h277z" />
    <glyph glyph-name="S.ss12.sinf" horiz-adv-x="671" 
d="M307 860h248v-39h-252q-95 0 -151 -42.5t-56 -112.5q0 -56 28 -94.5t73 -60t99 -37.5t108 -33.5t99 -41.5t73 -68.5t28 -107.5q0 -104 -72.5 -163.5t-201.5 -59.5h-275v39h275q110 0 171.5 49t61.5 135q0 55 -28 92.5t-73 58t-99 36.5t-108 33.5t-99 42t-73 69.5t-28 109
q0 89 69 142.5t183 53.5z" />
    <glyph glyph-name="s.ss12.sinf" horiz-adv-x="536" 
d="M264 0h-190v35h190q83 0 130.5 33.5t47.5 93.5q0 38 -21 63.5t-54.5 38t-74.5 22t-81.5 19.5t-74 25.5t-54.5 46t-21 74.5q0 68 50 105.5t139 37.5h190v-35h-192q-69 0 -108.5 -28.5t-39.5 -77.5q0 -37 21 -62t54.5 -37t74.5 -21t81.5 -19.5t74 -26.5t54.5 -47t21 -76
q0 -77 -57.5 -120.5t-159.5 -43.5z" />
    <glyph glyph-name="t.ss13.sinf" horiz-adv-x="409" 
d="M379 594v-39h-160v-555h-41v555h-160v39h160v166h41v-166h160z" />
    <glyph glyph-name="u.ss14.sinf" horiz-adv-x="727" 
d="M627 594v-322q0 -129 -72.5 -206.5t-192.5 -77.5q-119 0 -190.5 77.5t-71.5 206.5v322h41v-322q0 -112 60.5 -178.5t160.5 -66.5t162 66.5t62 178.5v322h41z" />
    <glyph glyph-name="u.ss15.sinf" horiz-adv-x="700" 
d="M600 0h-500v594h41v-555h418v555h41v-594z" />
    <glyph glyph-name="D.ss16.sinf" horiz-adv-x="876" 
d="M391 860q176 0 295 -121.5t119 -304.5q0 -184 -119.5 -309t-294.5 -125h-352v39h100v821h252zM391 39q159 0 266 113.5t107 281.5t-106.5 277.5t-266.5 109.5h-209v-782h209z" />
    <glyph glyph-name="J.ss17.sinf" horiz-adv-x="444" 
d="M330 860v-860h-305v39h264v821h41z" />
    <glyph glyph-name="L.ss18.sinf" horiz-adv-x="770" 
d="M717 39v-39h-602v39h100v821h43v-821h459z" />
    <glyph glyph-name="t.sinf" horiz-adv-x="532" 
d="M362 -12q-85 0 -137.5 53t-52.5 145v369h-152v39h152v170h41v-170h256v-39h-256v-367q0 -76 42 -119.5t107 -43.5q64 0 115 38l15 -34q-53 -41 -130 -41z" />
    <glyph glyph-name="G.titl.sinf" horiz-adv-x="962" 
d="M928 434v-37h-90v-268q-122 -141 -336 -141q-186 0 -308 127t-122 319q0 190 122 314t308 124q115 0 211 -52t137 -138l-35 -18q-40 77 -126 123.5t-187 46.5q-167 0 -277 -113.5t-110 -286.5q0 -175 110 -291t277 -116q178 0 293 112v258h-287v37h420z" />
    <glyph glyph-name="I.titl.sinf" horiz-adv-x="405" 
d="M326 821h-103v-782h103v-39h-246v39h102v782h-102v39h246v-39z" />
    <glyph glyph-name="J.titl.sinf" horiz-adv-x="438" 
d="M342 860v-39h-102v-588q0 -245 -191 -245h-24l2 39h18q154 0 154 211v583h-103v39h246z" />
    <glyph glyph-name="T.titl.sinf" horiz-adv-x="722" 
d="M682 821h-299v-782h100v-39h-245v39h102v782h-299v39h641v-39z" />
    <glyph glyph-name="Y.titl.sinf" horiz-adv-x="720" 
d="M383 399v-360h102v-39h-245v39h102v360l-313 461h49l284 -420l281 420h49z" />
    <glyph glyph-name="u.sinf" horiz-adv-x="722" 
d="M580 594h43v-594h-43v102q-32 -52 -96 -83t-138 -31q-110 0 -178 71.5t-68 188.5v346h41v-344q0 -100 57.5 -161.5t151.5 -61.5q70 0 134 33.5t96 89.5v444z" />
    <glyph glyph-name="v.sinf" horiz-adv-x="610" 
d="M582 594l-250 -594h-53l-250 594h45l231 -557l232 557h45z" />
    <glyph glyph-name="w.sinf" horiz-adv-x="964" 
d="M240 0l-211 594h43l194 -553l189 553h53l190 -553l195 553h43l-213 -594h-51l-191 553l-188 -553h-53z" />
    <glyph glyph-name="x.sinf" horiz-adv-x="577" 
d="M543 0h-51l-203 270l-203 -270h-51l227 305l-215 289h53l189 -254l188 254h53l-215 -289z" />
    <glyph glyph-name="y.sinf" horiz-adv-x="610" 
d="M537 594h45l-353 -836h-43l99 232l-256 604h45l231 -555z" />
    <glyph glyph-name="z.sinf" horiz-adv-x="612" 
d="M553 594v-35l-451 -520h451v-39h-506v35l451 520h-422v39h477z" />
    <glyph glyph-name="zero.cv01" horiz-adv-x="1206" 
d="M614 1454q233 0 355.5 -153.5t122.5 -446.5v-274q0 -293 -122.5 -446.5t-355.5 -153.5h-22q-232 0 -353.5 153.5t-121.5 446.5v274q0 293 121.5 446.5t353.5 153.5h22zM592 1411q-209 0 -318.5 -142.5t-109.5 -414.5v-274q0 -272 109.5 -414.5t318.5 -142.5h22
q209 0 318.5 142.5t109.5 414.5v274q0 272 -109.5 414.5t-318.5 142.5h-22z" />
    <glyph glyph-name="two.cv01" horiz-adv-x="1015" 
d="M63 0v45q0 99 20 170t77.5 145t152.5 146.5t252 169.5q160 99 229.5 185.5t69.5 207.5q0 143 -96.5 241.5t-255.5 98.5q-174 0 -288 -100.5t-113 -270.5h-48q-1 191 126.5 303.5t322.5 112.5q179 0 290 -110t111 -275q0 -72 -21.5 -131.5t-68.5 -112t-99.5 -94
t-135.5 -94.5q-157 -102 -243.5 -167t-143.5 -134t-74.5 -133t-17.5 -158h802v-45h-848z" />
    <glyph glyph-name="three.cv01" horiz-adv-x="1064" 
d="M600 784q68 -5 134.5 -35t119.5 -79.5t86 -121t33 -151.5q0 -174 -132.5 -295.5t-322.5 -121.5q-118 0 -215 42t-156.5 118t-68.5 171h47q13 -126 123.5 -206t269.5 -80q175 0 290.5 108t115.5 264q0 161 -122 263t-325 102h-57v37h59q168 0 276.5 86.5t108.5 218.5
q0 128 -97 215.5t-247 87.5q-149 0 -244 -82.5t-102 -218.5h-47q12 157 119.5 251.5t273.5 94.5q168 0 280.5 -99.5t112.5 -248.5q0 -125 -88 -216t-225 -104z" />
    <glyph glyph-name="four.cv01" horiz-adv-x="1146" 
d="M1079 371v-49h-225v-322h-49v322h-764v51l760 1061h53v-1063h225zM90 371h715v995z" />
    <glyph glyph-name="seven.cv01" horiz-adv-x="1028" 
d="M973 1434v-45l-668 -1389h-53l676 1389h-809v-224h-49v269h903z" />
    <glyph glyph-name="zero.tf" 
d="M608 -20q-229 0 -357 195t-128 542t128 542t357 195t357.5 -195t128.5 -542t-128.5 -542t-357.5 -195zM608 25q207 0 321.5 183t114.5 509t-114.5 509t-321.5 183t-321.5 -183t-114.5 -509t114.5 -509t321.5 -183z" />
    <glyph glyph-name="one.tf" 
d="M633 45h397v-45h-846v45h400v1321l-338 -309v67l340 310h47v-1389z" />
    <glyph glyph-name="two.tf" 
d="M213 0v43l612 623q103 106 158 211t55 192q0 149 -99.5 244.5t-256.5 95.5q-174 0 -288 -100.5t-113 -270.5h-48q-1 191 126.5 303.5t322.5 112.5q174 0 289.5 -108.5t115.5 -276.5q0 -95 -58.5 -208.5t-166.5 -221.5l-590 -594h844v-45h-903z" />
    <glyph glyph-name="three.tf" 
d="M487 805l517 584h-795v45h862v-45l-516 -576q55 14 117 14q173 0 291 -113.5t118 -285.5q0 -196 -129 -322t-327 -126q-179 0 -302.5 90.5t-148.5 240.5h47q25 -130 135 -208t269 -78q179 0 293 113t114 290q0 160 -109.5 256t-279.5 96q-80 0 -156 -20v45z" />
    <glyph glyph-name="four.tf" 
d="M1120 387v-45h-225v-342h-49v342h-744v45l549 1047h56l-549 -1047h688v602h49v-602h225z" />
    <glyph glyph-name="five.tf" 
d="M612 -20q-172 0 -296 93t-144 238h47q23 -126 132.5 -206t260.5 -80q169 0 286.5 113.5t117.5 277.5q0 170 -117.5 288.5t-286.5 118.5q-97 0 -182.5 -30t-136.5 -86h-39l68 727h657v-45h-617l-61 -627q50 50 133.5 78t177.5 28q189 0 321 -131t132 -321
q0 -183 -132 -309.5t-321 -126.5z" />
    <glyph glyph-name="six.tf" 
d="M606 899q116 0 222.5 -61.5t173.5 -169.5t67 -232q0 -190 -134.5 -323t-326.5 -133t-326.5 133t-134.5 323q0 78 32.5 175t90.5 190l396 633h55l-377 -592q49 22 123 39.5t139 17.5zM608 25q170 0 293 122t123 289q0 110 -57 206.5t-154 154t-207 57.5q-151 0 -295 -66
q-56 -91 -87 -184t-31 -168q0 -168 122 -289.5t293 -121.5z" />
    <glyph glyph-name="seven.tf" 
d="M162 1434h895v-45l-658 -1389h-53l666 1389h-850v45z" />
    <glyph glyph-name="eight.tf" 
d="M608 -18q-196 0 -323 115t-127 292q0 140 91.5 247.5t233.5 133.5q-115 29 -189.5 121.5t-74.5 206.5q0 154 109.5 253t279.5 99t279.5 -99t109.5 -253q0 -114 -74.5 -206.5t-189.5 -121.5q142 -29 234 -136.5t92 -244.5q0 -177 -127.5 -292t-323.5 -115zM608 793
q151 0 247.5 85.5t96.5 219.5t-97 220.5t-247 86.5t-247 -86.5t-97 -220.5t96.5 -219.5t247.5 -85.5zM608 27q177 0 291.5 102t114.5 260q0 157 -114.5 258t-291.5 101t-291 -101t-114 -258q0 -158 114 -260t291 -102z" />
    <glyph glyph-name="nine.tf" 
d="M647 1454q192 0 326.5 -133.5t134.5 -323.5q0 -78 -32.5 -174.5t-90.5 -189.5l-395 -633h-55l376 592q-49 -22 -123 -39.5t-139 -17.5q-86 0 -170.5 36.5t-148.5 98t-104 148t-40 179.5q0 190 134.5 323.5t326.5 133.5zM944 645q119 195 119 352q0 168 -122.5 290
t-293.5 122q-111 0 -207.5 -56t-152.5 -151t-56 -205t57 -206t154 -153.5t207 -57.5q153 0 295 65z" />
    <glyph glyph-name="zero.tf.cv01" 
d="M621 1454q233 0 355 -153.5t122 -446.5v-274q0 -293 -122 -446.5t-355 -153.5h-23q-232 0 -353.5 153.5t-121.5 446.5v274q0 293 121.5 446.5t353.5 153.5h23zM598 1411q-209 0 -318.5 -142.5t-109.5 -414.5v-274q0 -272 109.5 -414.5t318.5 -142.5h23q209 0 318.5 142.5
t109.5 414.5v274q0 272 -109.5 414.5t-318.5 142.5h-23z" />
    <glyph glyph-name="two.tf.cv01" 
d="M195 0v45q0 131 40.5 222.5t146.5 186t314 222.5q160 99 229.5 185.5t69.5 207.5q0 143 -96.5 241.5t-255.5 98.5q-174 0 -288 -100.5t-113 -270.5h-47q-1 191 126 303.5t322 112.5q179 0 290 -110t111 -275q0 -72 -21.5 -131.5t-68.5 -112t-99.5 -94t-135.5 -94.5
q-157 -102 -243.5 -167t-143.5 -134t-74.5 -133t-17.5 -158h802v-45h-847z" />
    <glyph glyph-name="three.tf.cv01" 
d="M719 784q68 -5 134.5 -35t119.5 -79.5t86 -121t33 -151.5q0 -174 -132.5 -295.5t-322.5 -121.5q-118 0 -215 42t-156.5 118t-68.5 171h47q13 -126 123.5 -206t269.5 -80q175 0 290 108t115 264q0 161 -121.5 263t-324.5 102h-57v37h59q168 0 276.5 86.5t108.5 218.5
q0 128 -97 215.5t-247 87.5q-149 0 -244 -82.5t-102 -218.5h-47q12 157 119.5 251.5t273.5 94.5q168 0 280.5 -99.5t112.5 -248.5q0 -125 -88 -216t-225 -104z" />
    <glyph glyph-name="four.tf.cv01" 
d="M1212 371v-49h-225v-322h-49v322h-764v51l760 1061h53v-1063h225zM223 371h715v995z" />
    <glyph glyph-name="seven.tf.cv01" 
d="M1081 1434v-45l-667 -1389h-54l676 1389h-809v-224h-49v269h903z" />
    <glyph glyph-name="zero.tf.zero" 
d="M608 1454q229 0 357.5 -195t128.5 -542t-128.5 -542t-357.5 -195t-357 195t-128 542t128 542t357 195zM608 1409q-207 0 -321.5 -183t-114.5 -509q0 -243 66 -410l723 862q-115 240 -353 240zM608 25q207 0 321.5 183t114.5 509q0 238 -63 405l-723 -862
q114 -235 350 -235z" />
    <glyph glyph-name="zero.zero" horiz-adv-x="1204" 
d="M602 1454q229 0 357 -195t128 -542t-128 -542t-357 -195t-357 195t-128 542t128 542t357 195zM602 1409q-207 0 -321.5 -183t-114.5 -509q0 -245 65 -410l723 862q-115 240 -352 240zM602 25q207 0 321.5 183t114.5 509q0 238 -63 405l-723 -862q114 -235 350 -235z" />
    <glyph glyph-name="three.sinf" horiz-adv-x="645" 
d="M223 485l299 336h-467v39h525v-35l-301 -333q34 6 63 6q104 0 174 -69t70 -171q0 -118 -78.5 -194t-198.5 -76q-109 0 -185 56.5t-89 148.5h41q13 -75 77.5 -120.5t155.5 -45.5q103 0 168.5 65.5t65.5 167.5q0 91 -64 147t-164 56q-43 0 -92 -12v34z" />
    <glyph glyph-name="four.sinf" horiz-adv-x="681" 
d="M643 244v-41h-133v-203h-41v203h-444v37l327 620h45l-325 -616h397v346h41v-346h133z" />
    <glyph glyph-name="five.sinf" horiz-adv-x="630" 
d="M303 -12q-104 0 -180 57t-88 148h41q14 -73 76.5 -119.5t150.5 -46.5q97 0 164.5 65.5t67.5 159.5q0 98 -67.5 166.5t-164.5 68.5q-122 0 -186 -67h-35l41 440h403v-39h-366l-35 -358q61 61 180 61q115 0 194 -78t79 -194q0 -110 -80.5 -187t-194.5 -77z" />
    <glyph glyph-name="six.sinf" horiz-adv-x="645" 
d="M328 543q108 0 193 -83t85 -196q0 -115 -82 -195.5t-198 -80.5t-197.5 80.5t-81.5 195.5q0 96 74 217l235 379h47l-221 -348q82 31 146 31zM326 27q98 0 168.5 70t70.5 167t-71 168.5t-168 71.5q-84 0 -172 -37q-68 -116 -68 -203q0 -97 71 -167t169 -70z" />
    <glyph glyph-name="seven.sinf" horiz-adv-x="593" 
d="M18 860h543v-35l-391 -825h-47l395 821h-500v39z" />
    <glyph glyph-name="eight.sinf" horiz-adv-x="649" 
d="M324 -10q-117 0 -195 69.5t-78 176.5q0 80 52.5 144.5t138.5 82.5q-66 17 -110 72t-44 122q0 92 66.5 152.5t169.5 60.5q104 0 170.5 -60t66.5 -153q0 -66 -43 -121t-112 -73q84 -19 138 -83.5t54 -143.5q0 -106 -77.5 -176t-196.5 -70zM324 481q87 0 142.5 49.5
t55.5 124.5q0 77 -55.5 126.5t-142.5 49.5q-86 0 -141.5 -49.5t-55.5 -126.5q0 -75 55.5 -124.5t141.5 -49.5zM324 29q101 0 167 58t66 149q0 90 -65.5 148t-167.5 58t-168 -58t-66 -148q0 -89 66.5 -148t167.5 -59z" />
    <glyph glyph-name="nine.sinf" horiz-adv-x="630" 
d="M295 872q116 0 198 -80.5t82 -195.5q0 -44 -19.5 -103.5t-53.5 -113.5l-238 -379h-47l221 348q-72 -31 -143 -31q-108 0 -193.5 83t-85.5 196q0 115 81.5 195.5t197.5 80.5zM465 393q70 113 70 203q0 97 -71 167.5t-169 70.5q-97 0 -168.5 -70.5t-71.5 -167.5
t72.5 -168.5t169.5 -71.5q92 0 168 37z" />
    <glyph glyph-name="zero.dnom" horiz-adv-x="724" 
d="M362 -12q-138 0 -216 117.5t-78 324.5t78 324.5t216 117.5t216.5 -117.5t78.5 -324.5t-78.5 -324.5t-216.5 -117.5zM362 27q120 0 187 106.5t67 296.5q0 191 -67 297.5t-187 106.5t-186.5 -106.5t-66.5 -297.5t66.5 -297t186.5 -106z" />
    <glyph glyph-name="zero.sinf" horiz-adv-x="724" 
d="M362 -12q-138 0 -216 117.5t-78 324.5t78 324.5t216 117.5t216.5 -117.5t78.5 -324.5t-78.5 -324.5t-216.5 -117.5zM362 27q120 0 187 106.5t67 296.5q0 191 -67 297.5t-187 106.5t-186.5 -106.5t-66.5 -297.5t66.5 -297t186.5 -106z" />
    <glyph glyph-name="one.sinf" horiz-adv-x="376" 
d="M262 860v-860h-41v813l-188 -123v45l194 125h35z" />
    <glyph glyph-name="two.sinf" horiz-adv-x="661" 
d="M55 0v35l361 364q127 130 127 238q0 86 -58 141.5t-147 55.5q-102 0 -167.5 -60.5t-64.5 -157.5h-40q-1 117 76 186.5t196 69.5q106 0 177 -66.5t71 -168.5q0 -57 -36.5 -126t-103.5 -136l-333 -336h489v-39h-547z" />
    <glyph glyph-name="one.dnom" horiz-adv-x="401" 
d="M262 860v-860h-41v813l-188 -123v45l194 125h35z" />
    <glyph glyph-name="two.dnom" horiz-adv-x="583" 
d="M55 0v35l361 364q127 130 127 238q0 86 -58 141.5t-147 55.5q-102 0 -167.5 -60.5t-64.5 -157.5h-40q-1 117 76 186.5t196 69.5q106 0 177 -66.5t71 -168.5q0 -57 -36.5 -126t-103.5 -136l-333 -336h489v-39h-547z" />
    <glyph glyph-name="three.dnom" horiz-adv-x="645" 
d="M223 485l299 336h-467v39h525v-35l-301 -333q34 6 63 6q104 0 174 -69t70 -171q0 -118 -78.5 -194t-198.5 -76q-109 0 -185 56.5t-89 148.5h41q13 -75 77.5 -120.5t155.5 -45.5q103 0 168.5 65.5t65.5 167.5q0 91 -64 147t-164 56q-43 0 -92 -12v34z" />
    <glyph glyph-name="four.dnom" horiz-adv-x="681" 
d="M643 244v-41h-133v-203h-41v203h-444v37l327 620h45l-325 -616h397v346h41v-346h133z" />
    <glyph glyph-name="five.dnom" horiz-adv-x="616" 
d="M303 -12q-104 0 -180 57t-88 148h41q14 -73 76.5 -119.5t150.5 -46.5q97 0 164.5 65.5t67.5 159.5q0 98 -67.5 166.5t-164.5 68.5q-122 0 -186 -67h-35l41 440h403v-39h-366l-35 -358q61 61 180 61q115 0 194 -78t79 -194q0 -110 -80.5 -187t-194.5 -77z" />
    <glyph glyph-name="six.dnom" horiz-adv-x="667" 
d="M328 543q108 0 193 -83t85 -196q0 -115 -82 -195.5t-198 -80.5t-197.5 80.5t-81.5 195.5q0 96 74 217l235 379h47l-221 -348q82 31 146 31zM326 27q98 0 168.5 70t70.5 167t-71 168.5t-168 71.5q-84 0 -172 -37q-68 -116 -68 -203q0 -97 71 -167t169 -70z" />
    <glyph glyph-name="seven.dnom" horiz-adv-x="593" 
d="M18 860h543v-35l-391 -825h-47l395 821h-500v39z" />
    <glyph glyph-name="eight.dnom" horiz-adv-x="649" 
d="M324 -10q-117 0 -195 69.5t-78 176.5q0 80 52.5 144.5t138.5 82.5q-66 17 -110 72t-44 122q0 92 66.5 152.5t169.5 60.5q104 0 170.5 -60t66.5 -153q0 -66 -43 -121t-112 -73q84 -19 138 -83.5t54 -143.5q0 -106 -77.5 -176t-196.5 -70zM324 481q87 0 142.5 49.5
t55.5 124.5q0 77 -55.5 126.5t-142.5 49.5q-86 0 -141.5 -49.5t-55.5 -126.5q0 -75 55.5 -124.5t141.5 -49.5zM324 29q101 0 167 58t66 149q0 90 -65.5 148t-167.5 58t-168 -58t-66 -148q0 -89 66.5 -148t167.5 -59z" />
    <glyph glyph-name="nine.dnom" horiz-adv-x="630" 
d="M295 872q116 0 198 -80.5t82 -195.5q0 -44 -19.5 -103.5t-53.5 -113.5l-238 -379h-47l221 348q-72 -31 -143 -31q-108 0 -193.5 83t-85.5 196q0 115 81.5 195.5t197.5 80.5zM465 393q70 113 70 203q0 97 -71 167.5t-169 70.5q-97 0 -168.5 -70.5t-71.5 -167.5
t72.5 -168.5t169.5 -71.5q92 0 168 37z" />
    <glyph glyph-name="zero.numr" horiz-adv-x="724" 
d="M362 -203q-138 0 -216 118t-78 325t78 324.5t216 117.5t216.5 -117.5t78.5 -324.5t-78.5 -325t-216.5 -118zM362 -164q120 0 187 106.5t67 297.5q0 190 -67 296.5t-187 106.5t-186.5 -106t-66.5 -297t66.5 -297.5t186.5 -106.5z" />
    <glyph glyph-name="one.numr" horiz-adv-x="401" 
d="M262 1434v-861h-41v813l-188 -122v45l194 125h35z" />
    <glyph glyph-name="two.numr" horiz-adv-x="583" 
d="M55 573v35l361 365q127 130 127 237q0 86 -58 141.5t-147 55.5q-103 0 -168 -60t-64 -157h-40q-1 117 76 186.5t196 69.5q106 0 177 -67t71 -169q0 -57 -36.5 -126t-103.5 -136l-333 -336h489v-39h-547z" />
    <glyph glyph-name="three.numr" horiz-adv-x="645" 
d="M223 1059l299 336h-467v39h525v-35l-301 -334q34 6 63 6q104 0 174 -69t70 -171q0 -118 -78.5 -194t-198.5 -76q-109 0 -185 56.5t-89 148.5h41q13 -75 77.5 -120.5t155.5 -45.5q102 0 168 66t66 168q0 91 -64 146.5t-164 55.5q-43 0 -92 -12v35z" />
    <glyph glyph-name="four.numr" horiz-adv-x="681" 
d="M643 817v-41h-133v-203h-41v203h-444v37l327 621h45l-325 -617h397v346h41v-346h133z" />
    <glyph glyph-name="five.numr" horiz-adv-x="616" 
d="M303 561q-104 0 -180 57t-88 148h41q14 -73 76.5 -119.5t150.5 -46.5q97 0 164.5 65.5t67.5 159.5q0 98 -67.5 167t-164.5 69q-121 0 -186 -68h-35l41 441h403v-39h-366l-35 -359q62 62 180 62q115 0 194 -78.5t79 -194.5q0 -110 -80.5 -187t-194.5 -77z" />
    <glyph glyph-name="six.numr" horiz-adv-x="667" 
d="M328 1116q108 0 193 -82.5t85 -195.5q0 -115 -82 -196t-198 -81t-197.5 81t-81.5 196q0 96 74 217l235 379h47l-221 -349q82 31 146 31zM326 600q98 0 168.5 70.5t70.5 167.5t-71 168t-168 71q-84 0 -172 -37q-68 -116 -68 -202q0 -97 71 -167.5t169 -70.5z" />
    <glyph glyph-name="seven.numr" horiz-adv-x="593" 
d="M18 1434h543v-35l-391 -826h-47l395 822h-500v39z" />
    <glyph glyph-name="eight.numr" horiz-adv-x="649" 
d="M324 563q-117 0 -195 69.5t-78 176.5q0 80 52.5 144.5t138.5 82.5q-66 17 -110 72.5t-44 122.5q0 92 66.5 152.5t169.5 60.5q104 0 170.5 -60t66.5 -153q0 -66 -43 -121.5t-112 -73.5q84 -19 138 -83.5t54 -143.5q0 -106 -77.5 -176t-196.5 -70zM324 1055
q87 0 142.5 49.5t55.5 124.5q0 77 -55.5 126.5t-142.5 49.5q-86 0 -141.5 -49.5t-55.5 -126.5q0 -75 55.5 -124.5t141.5 -49.5zM324 602q101 0 167 58t66 149t-66 149t-167 58q-102 0 -168 -58.5t-66 -148.5q0 -89 66.5 -148t167.5 -59z" />
    <glyph glyph-name="nine.numr" horiz-adv-x="630" 
d="M295 1446q116 0 198 -81t82 -196q0 -44 -19.5 -103.5t-53.5 -113.5l-238 -379h-47l221 349q-72 -31 -143 -31q-108 0 -193.5 82.5t-85.5 195.5q0 115 81.5 196t197.5 81zM465 967q70 113 70 202q0 97 -71 167.5t-169 70.5q-97 0 -168.5 -70.5t-71.5 -167.5
q0 -96 72.5 -167.5t169.5 -71.5q92 0 168 37z" />
    <glyph glyph-name="zero.sups" horiz-adv-x="724" 
d="M362 571q-138 0 -216 118t-78 325t78 324.5t216 117.5t216.5 -117.5t78.5 -324.5t-78.5 -325t-216.5 -118zM362 610q120 0 187 106.5t67 297.5q0 190 -67 296.5t-187 106.5t-186.5 -106t-66.5 -297t66.5 -297.5t186.5 -106.5z" />
    <glyph glyph-name="one.sups" horiz-adv-x="376" 
d="M262 1444v-860h-41v813l-188 -123v45l194 125h35z" />
    <glyph glyph-name="two.sups" horiz-adv-x="632" 
d="M55 584v34l361 365q127 130 127 238q0 86 -58 141t-147 55q-103 0 -168 -60t-64 -157h-40q-1 117 76 186.5t196 69.5q106 0 177 -66.5t71 -168.5q0 -58 -36.5 -127t-103.5 -136l-333 -335h489v-39h-547z" />
    </font>
</defs>
</svg>
